<svg id="Layer_1" data-name="Layer 1" xmlns="http://www.w3.org/2000/svg" xmlns:xlink="http://www.w3.org/1999/xlink" viewBox="0 0 478.02 237.16"><defs><style>.cls-1{fill:url(#linear-gradient);}.cls-2{fill:#fff;}</style><linearGradient id="linear-gradient" x1="142.51" y1="36.09" x2="335.75" y2="36.09" gradientUnits="userSpaceOnUse"><stop offset="0" stop-color="#396"/><stop offset="1" stop-color="#004f32"/></linearGradient></defs><title>astonMartin</title><path d="M151,521.66l-5.4,14.24h10.93L151,521.66m16.7,31.59c-1-.06-1.74-.17-2.61-.17s-1.78.11-2.61.17c-1.46-4.6-3.25-9.95-5.22-15H144.62c-1.74,4.88-3.52,9.78-4.9,15-.69-.06-1.23-.17-1.83-.17a14.23,14.23,0,0,0-1.74.17l15.46-38.88h1.14Z" transform="translate(-75.89 -316.75)"/><path d="M172.11,545.76c2,3.54,4.16,5.78,8,5.78s6.91-3.72,6.91-8.12c0-10.35-15.55-5.8-15.55-18.35,0-7.18,5.08-10.7,11-10.7a10.29,10.29,0,0,1,7.09,2.69,35.71,35.71,0,0,0-1.33,4.54h-.5c-1.05-3-3.2-4.83-6.13-4.83a6.19,6.19,0,0,0-6.26,6.52c0,10.2,15.64,6.09,15.64,18,0,7.95-5.54,12.66-12.26,12.66-2.42,0-6.4-1.14-8.1-3.2a26,26,0,0,0,.91-4.95h.51" transform="translate(-75.89 -316.75)"/><path d="M209.49,553.36c-.78-.05-1.46-.17-2.15-.17s-1.51.12-2.2.17V517.88a82,82,0,0,0-10.89.66c0-.54.18-1.12.18-1.66s-.14-1.05-.18-1.68h25.61c0,.63-.14,1.11-.14,1.68s.09,1.12.14,1.66a76.22,76.22,0,0,0-10.38-.66v35.48" transform="translate(-75.89 -316.75)"/><path d="M250.29,521.6A12.61,12.61,0,0,0,240,516.2c-8.74,0-14,7.4-14,18.7s6.13,17.18,13.54,17.18c10.47,0,14.22-12.12,13.91-18.24,0-4.6-.55-8.52-3.15-12.24m-29.19,12.64c0-12.18,8.1-19.87,18.39-19.87,9.33,0,18.8,5.69,18.8,19,0,12.38-7.82,20.5-18.89,20.5S221.11,546.13,221.11,534.24Z" transform="translate(-75.89 -316.75)"/><path d="M294.11,553.25h-1.47c-.55-.77-1.55-2.12-2.61-3.37l-21.41-26.59h-.5v30a13,13,0,0,0-1.42-.17,10,10,0,0,0-1.37.17V515.2h1.92l23.6,28.65h.5V515.2a9.65,9.65,0,0,0,1.38.17,12.92,12.92,0,0,0,1.37-.17v38.05" transform="translate(-75.89 -316.75)"/><path d="M350.38,515.2c1.33,13.75,2.7,27.44,4,38.05-.87-.06-1.56-.17-2.34-.17s-1.55.11-2.33.17c-.82-11.18-1.83-23.19-2.52-28.7-5.76,11.52-10,20.41-13,28.1h-.55l-2.75-6.29c-3.16-7.35-6.63-14.59-10-21.82-1.09,10.86-2.43,21.87-2.43,28.7-.64-.06-1.19-.17-1.74-.17a17.13,17.13,0,0,0-1.78.17c1.28-8.95,4.25-32.19,4.76-38.05H321c4,8.86,8.74,19.29,14,29.16,4.71-9.52,9.29-19.18,14.32-29.16h1" transform="translate(-75.89 -316.75)"/><path d="M372.52,521.66l-5.4,14.24h10.93l-5.53-14.24m16.69,31.59c-1-.06-1.73-.17-2.6-.17s-1.79.11-2.61.17c-1.42-4.6-3.25-9.95-5.22-15H366.16c-1.74,4.88-3.52,9.78-4.9,15-.69-.06-1.23-.17-1.83-.17a15.16,15.16,0,0,0-1.74.17l15.46-38.88h1.15Z" transform="translate(-75.89 -316.75)"/><path d="M398.82,532.55a25.05,25.05,0,0,0,6.4-.26,7.82,7.82,0,0,0,6.36-8c0-3.83-1.74-6.32-5.44-7a41.62,41.62,0,0,0-7.32-.06v15.3m-4.35-17.35H405c7.64,0,11,2.86,11,8.46,0,6.46-5.17,9.58-10.2,10.58l10.25,14.52,2.38,3.09,1,1.4c-1.05-.06-2-.17-2.88-.17s-2,.11-2.84.17c-1.1-1.71-2.1-3.29-3.15-4.83l-5.86-8.52-3.93-5.24h-1.92v18.58c-.78-.06-1.46-.17-2.15-.17s-1.51.11-2.19.17Z" transform="translate(-75.89 -316.75)"/><path d="M434.73,553.36c-.78-.05-1.51-.17-2.2-.17s-1.46.12-2.2.17V517.88a81.9,81.9,0,0,0-10.84.66c0-.54.14-1.12.14-1.66s-.09-1.05-.14-1.68h25.62c0,.63-.18,1.11-.18,1.68s.14,1.12.18,1.66a77.41,77.41,0,0,0-10.38-.66v35.48" transform="translate(-75.89 -316.75)"/><path d="M450.79,515.2c.73.06,1.46.17,2.2.17s1.41-.11,2.19-.17v38.05c-.78-.06-1.51-.17-2.19-.17s-1.47.11-2.2.17V515.2" transform="translate(-75.89 -316.75)"/><path d="M493.65,553.25h-1.51c-.55-.77-1.55-2.12-2.56-3.37l-21.45-26.59h-.51v30a13.4,13.4,0,0,0-1.37-.17,10.71,10.71,0,0,0-1.42.17V515.2h2l23.56,28.65h.5V515.2a10.48,10.48,0,0,0,1.37.17,13.93,13.93,0,0,0,1.42-.17v38.05" transform="translate(-75.89 -316.75)"/><rect class="cls-1" x="142.51" y="20.38" width="193.24" height="31.42"/><path d="M93.44,347.67h0v0" transform="translate(-75.89 -316.75)"/><path d="M549.66,325.92l-3.49,6.45c-.67,1.19-1,1.73-3.73,1.94H437.33c1.15-2.24,2.15-4.27,3-6,.05-.06,3.78-7.5,10.38-7.5H547a3.17,3.17,0,0,1,3,1.46,2.27,2.27,0,0,1,.29,1.17,5.83,5.83,0,0,1-.67,2.51M536.8,338.7l-3.68,7.23a6.47,6.47,0,0,1-3.73,3.68c-2.05.57-6.12.21-7.55,0L432.4,343c1.15-1.94,2.25-3.79,3.2-5.56h102A8.85,8.85,0,0,0,536.8,338.7Zm-15.2,15.92s-3.54,7-4.25,8.4c-.19.27-1.2,1.49-4.5,1l-85.71-12.88c1.19-1.73,2.29-3.44,3.35-5.08l91.06,6.75c.1,0,.48.06,1.05.12A8.38,8.38,0,0,0,521.6,354.63Zm-29.49,18.64c-3.25,1-9.56-.15-11.71-.66,0,0-40.35-9.26-58.89-13.56,1.29-1.67,2.49-3.38,3.68-5l86,12.94Zm-29.21,9.59c-4.11,1.25-9.51-.78-9.61-.78l0,0-39.44-13.62c2-2.21,3.82-4.45,5.59-6.66l60.42,13.92c.1,0,1.34.33,3.11.6ZM432.12,393c-2.77.87-6.94-1-8.27-1.73l-21.42-11.2c3.25-3,6.31-6,9.13-9.11l40.87,14.13c.09,0,.86.3,2,.6Zm-6.31,6.93c-1.19,3.41-2.44,6.93-10.8,10.46-3.49,1.2-7.6-2.21-7.6-2.27s-9.37-7.47-20-16A144.77,144.77,0,0,0,400,382.23l22.56,11.83a19.51,19.51,0,0,0,5.26,2A12.63,12.63,0,0,0,425.81,399.92ZM394.21,417l-3.16,1c-2.63.72-5.88-2.24-6.88-3.44,0,0-5.11-5.94-11.62-13.56a125.45,125.45,0,0,0,12.24-7.11l20.94,16.79a16.81,16.81,0,0,0,3,1.91C404.11,414,394.21,417,394.21,417Zm-27.68,8.46c-2.2.39-4.74-3.68-5.5-5.17l-6.31-12a126.38,126.38,0,0,0,15.1-6l12.29,14.37a19.63,19.63,0,0,0,3.44,3Zm-20.94,6.42a4.54,4.54,0,0,1-3.82-.54c-2.29-1.58-3.1-5.23-3.16-5.43l-3.2-13a125,125,0,0,0,16.49-3.7l6.69,12.67a18.48,18.48,0,0,0,3.63,5ZM332,427.16s-9-9.59-12-12.85c4.25-.15,8.46-.51,12.57-1l3.3,13.33a15,15,0,0,0,2.58,5.68C336,431.5,335.22,430.63,332,427.16Zm-15.73-15.89V370.73h5.78l9.8,39.5A127.1,127.1,0,0,1,316.29,411.27Zm-18.35-1,9.8-39.5h5.78v40.54A133.27,133.27,0,0,1,297.94,410.23Zm-2.53,19.51a8.77,8.77,0,0,1-4.06,2.54,14.88,14.88,0,0,0,2.58-5.71l3.3-13.3a124.07,124.07,0,0,0,12.57,1Zm-4.21-3.85s-.76,3.85-3.15,5.47a4.53,4.53,0,0,1-3.82.54l-16.64-5.08a17.58,17.58,0,0,0,3.63-5s2.82-5.32,6.64-12.61a122.68,122.68,0,0,0,16.54,3.7Zm-27.91-.42-19-5.8a19.73,19.73,0,0,0,3.44-3s5.45-6.36,12.28-14.37a126.64,126.64,0,0,0,15.11,6l-6.26,11.92C268.06,421.79,265.48,425.85,263.28,425.46ZM238.76,418l-17.69-5.41a15.81,15.81,0,0,0,3.06-1.94S234,402.7,245,393.85A130.9,130.9,0,0,0,257.26,401l-11.61,13.56C244.64,415.72,241.39,418.68,238.76,418Zm-23.95-7.59c-8.37-3.52-9.61-7.05-10.8-10.46a13.79,13.79,0,0,0-2.06-3.85,20.17,20.17,0,0,0,5.31-2c-.05,0,11.28-5.91,22.51-11.83a145,145,0,0,0,12.62,9.86l-19.93,16C222.41,408.16,218.25,411.6,214.81,410.37ZM197.7,393c-.86-.27-10.23-3.34-22.28-7.32a15.19,15.19,0,0,0,2-.63s33.13-11.44,40.87-14.13c2.82,3.11,5.88,6.15,9.13,9.14L206,391.23C204.63,392,200.52,393.85,197.7,393Zm-30.78-10.13-20-6.57c1.77-.27,3-.57,3.1-.6l60.47-13.92c1.72,2.21,3.58,4.42,5.54,6.66l-39.48,13.62C176.42,382.08,171.07,384.08,166.91,382.86Zm-29.16-9.59L118.58,367l86-12.94c1.19,1.64,2.39,3.34,3.73,5l-58.94,13.56C147.26,373.12,141,374.23,137.75,373.27ZM117,364c-3.25.48-4.25-.72-4.44-1l-4.3-8.45a7.47,7.47,0,0,0-1-1.62c.57-.06,92.11-6.87,92.11-6.87,1.05,1.64,2.15,3.35,3.35,5.08Zm-16.54-14.43a6.48,6.48,0,0,1-3.73-3.68c-1.48-2.87-3.44-7.14-4.44-8.51h102c1,1.76,2.06,3.61,3.2,5.56L108,349.61C106.58,349.82,102.47,350.18,100.42,349.61Zm-13-15.3c-2.44-.21-3-.54-3.73-1.94,0,0-3.2-6-3.49-6.45a5.84,5.84,0,0,1-.67-2.51c0-1.46,1-2.6,3.3-2.63H179.1c6.5,0,10.37,7.5,10.37,7.5.86,1.76,1.86,3.79,3.06,6Zm188.58-13.53c4.49,0,8,1.46,10.61,4.36a16.87,16.87,0,0,1,3.83,8.19,6.74,6.74,0,0,0,.33,1H195.78c-1.48-2.69-3.87-7.53-3.87-7.53a19.74,19.74,0,0,0-4.73-6Zm137.48,20.76v-4.12h18.88c-1,1.7-2,3.47-3.15,5.32Zm0,7.56v-4.3l13.77,1c-1,1.55-2.1,3.2-3.21,4.84Zm0,8.1v-4.93l8.51,1.25c-1.15,1.61-2.34,3.2-3.58,4.81Zm0,3.2,2.77.66c-.91,1.11-1.82,2.21-2.77,3.35Zm-28.78,10.33h23c-2.34,2.63-7.89,7.68-8,7.83C394,375.63,388.57,372.76,384.65,370.73Zm-23.9,0h17.3l19.12,10a138.06,138.06,0,0,1-12.24,9.38C375.71,382.71,366,374.91,360.75,370.73Zm-14.05,0H356l26.34,21.12a126,126,0,0,1-11.81,6.69C361.8,388.42,351.38,376.23,346.7,370.73Zm-11.81,0h7.89l25,29.16a116.71,116.71,0,0,1-14.48,5.62Zm-3.25,0,18.79,35.64a123.6,123.6,0,0,1-15.78,3.46L325,370.73Zm-33.46,0h6.65l-9.66,39.11a126.2,126.2,0,0,1-15.82-3.46C286.41,393,295.79,375.21,298.18,370.73Zm-11.19,0h7.93l-18.35,34.8a116.75,116.75,0,0,1-14.49-5.67C272.08,388.18,284.12,374.11,287,370.73Zm-13.14,0h9.27l-23.81,27.82a134,134,0,0,1-11.81-6.69C258.93,382.68,270.88,373.12,273.85,370.73Zm-43.69,7.83c-.19-.18-5.69-5.38-8-7.83h23Zm21.61-7.83h17.31l-24.19,19.39a132.93,132.93,0,0,1-12.24-9.38C241.72,376,250.13,371.57,251.76,370.73Zm-35.42-10.31v3.94l-2.73-3.32Q215.26,360.65,216.34,360.42Zm0-8.16v5l-4.87,1.1c-1.24-1.61-2.44-3.2-3.59-4.81Zm0-7.47v4.3l-10.47,1.58c-1.15-1.64-2.25-3.26-3.25-4.84Zm0-3.26-15.68,1.16q-1.72-2.73-3.16-5.29h18.83Zm2.87,26.05s0,0,0-.06V337.45H410.65v30.11l0,0Zm120.22-34.27a16.87,16.87,0,0,1,3.82-8.19c2.58-2.9,6.12-4.36,10.61-4.36h88.77a19.76,19.76,0,0,0-4.73,6c-1.05,2.15-2.34,4.69-3.87,7.53H339.1A6.19,6.19,0,0,0,339.43,333.33Zm213.72-13.14a6.83,6.83,0,0,0-6.07-3.44H353.87c-5.45,0-9.9,1.85-13.15,5.53a21.6,21.6,0,0,0-4.83,10.13c0,.18-.29,1-1.86,1H295.79c-1.63,0-1.86-.84-1.86-1a21.78,21.78,0,0,0-4.83-10.16c-3.25-3.68-7.69-5.53-13.14-5.53H82.68a6.81,6.81,0,0,0-6,3.41c-.76,1.52-1.39,4.09.33,7.68.05,0,3.54,6.6,3.54,6.6,1.48,2.66,3.11,3.62,6.6,3.88a3.85,3.85,0,0,1,2.77,2.39l3.63,7.08c.77,1.65,2.53,5.47,8.65,6.39a3.88,3.88,0,0,1,2.87,2.33l4.44,8.75c1.29,2.84,3.11,3.88,6.41,5l80.83,26.59c2.72.9,3.87,4.39,3.87,4.39,1.91,5.59,4.44,10.19,17.06,14.43,0,0,66.11,20.22,66.11,20.22.81.3,8.41,2.87,14.1-3.28l15.49-16.58a1.94,1.94,0,0,1,3.06,0l15.49,16.58c5.74,6.15,13.29,3.58,14.15,3.28,0,0,66.06-20.19,66.11-20.22,12.57-4.24,15.2-8.93,17-14.43.09-.24,1.15-3.49,3.87-4.39,0,0,12.23-4,80.79-26.59,3.34-1.14,5.16-2.18,6.45-5l4.4-8.69a3.87,3.87,0,0,1,2.87-2.39c6.17-.92,7.94-4.75,8.75-6.39,0,0,3.59-7.08,3.59-7.08,1.1-2.21,2.73-2.39,2.82-2.39,3.44-.27,5.12-1.22,6.5-3.88,0,0,3.58-6.6,3.58-6.6a10.48,10.48,0,0,0,1.1-4.42A7.22,7.22,0,0,0,553.15,320.18Z" transform="translate(-75.89 -316.75)"/><path class="cls-2" d="M228.29,353.4c.15-.42,2.29-6.1,2.58-6.75.24.66,2.44,6.34,2.58,6.75h-5.16m3.59-11.14h-.81l-8.17,20.52h2.25v-.15c.67-2.48,1.53-4.87,2.34-7.17,0,0,.14-.33.19-.48H234c.86,2.18,1.77,4.69,2.68,7.68l0,.12h3.06Z" transform="translate(-75.89 -316.75)"/><path class="cls-2" d="M240.62,361.32l.1.06a6.29,6.29,0,0,0,4.3,1.73c3.87,0,6.55-2.78,6.55-6.75,0-3.29-2.25-4.27-4.4-5.23-1.91-.84-3.73-1.64-3.73-4.09a3,3,0,0,1,3.06-3.2,3.18,3.18,0,0,1,3.06,2.39l0,.12h.48l.77-2.57-.1-.09a5.32,5.32,0,0,0-3.77-1.43c-3.59,0-5.88,2.24-5.88,5.71s2.34,4.57,4.44,5.5c1.87.81,3.63,1.58,3.63,4,0,2.24-1.53,4-3.44,4-1.72,0-2.91-.87-4-2.93l0-.09h-.48l-.57,2.81" transform="translate(-75.89 -316.75)"/><path class="cls-2" d="M266,342.68H252.52v2.12l.19,0a43,43,0,0,1,5.5-.33v18.4h2.58v-18.4a42,42,0,0,1,5.21.33l.14,0v-2.12H266" transform="translate(-75.89 -316.75)"/><path class="cls-2" d="M280.06,359.53a6,6,0,0,1-4.78,2.3c-4.16,0-6.88-3.43-6.88-8.75,0-5.86,2.77-9.5,7.12-9.5a6.41,6.41,0,0,1,5.26,2.72,10.42,10.42,0,0,1,1.58,6.25V353a10.78,10.78,0,0,1-2.29,6.57m-4.78-17.27c-5.74,0-9.7,4.3-9.7,10.49s3.87,10.36,9.66,10.36c6,0,10-4.33,10-10.81C285.22,345.37,280.2,342.26,275.28,342.26Z" transform="translate(-75.89 -316.75)"/><path class="cls-2" d="M303.15,342.68h-1.63v14.88h0l-12.28-14.88H288v20.11h1.72V347.22h0L300.9,361l1.39,1.79.05,0h1V342.68h-.14" transform="translate(-75.89 -316.75)"/><path class="cls-2" d="M332.11,342.68h-.62l-4.34,8.84s-2.78,5.59-3,6.09c-2.67-5-5.06-10.28-7.12-14.82l-.05-.12h-.91l0,.18c-.24,3-1.77,15.06-2.44,19.72l-.05.21h2.15v-.18c0-2.84.48-7.05,1-11.53,0,0,.19-2,.29-2.78.29.66,3.68,7.86,4.92,10.81l1.48,3.35h.48l0-.12c1.48-3.85,3.63-8.27,6.5-14.07.43,3.46,1,10.4,1.24,14.34l0,.18h2.72v-.21c-.62-4.87-1.29-11.32-2.1-19.72v-.18h-.15" transform="translate(-75.89 -316.75)"/><path class="cls-2" d="M340.81,353.4c.14-.42,2.29-6.07,2.53-6.75.28.66,2.49,6.34,2.63,6.75h-5.16m3.59-11.14h-.81l-8.17,20.52h2.2l0-.15c.67-2.51,1.53-4.9,2.34-7.23a3.79,3.79,0,0,0,.19-.42h6.31c.86,2.21,1.77,4.78,2.68,7.68l0,.12h3.06Z" transform="translate(-75.89 -316.75)"/><path class="cls-2" d="M356.4,351.7v-7.59a17.83,17.83,0,0,1,3.59,0,3.11,3.11,0,0,1,2.72,3.47,3.87,3.87,0,0,1-3.2,3.94,13,13,0,0,1-3.1.15m3.73,1.14c3.25-.72,5.21-2.81,5.21-5.59,0-3.08-2-4.57-5.93-4.57h-5.59v20.11h2.58v-9.65h.72l2.06,2.66s3,4.39,3,4.39l1.67,2.6h3.39S360.46,353.25,360.13,352.84Z" transform="translate(-75.89 -316.75)"/><path class="cls-2" d="M380.25,342.68H366.77v2.12l.19,0a42.25,42.25,0,0,1,5.45-.33v18.4H375v-18.4a40.89,40.89,0,0,1,5.21.33l.19,0v-2.12h-.14" transform="translate(-75.89 -316.75)"/><rect class="cls-2" x="306.65" y="25.96" width="2.43" height="20.08"/><path class="cls-2" d="M402.29,342.68v14.88h0L390,342.68h-1.24v20.11h1.77V347.22h0L401.67,361l1.39,1.79,1,0V342.68h-1.77" transform="translate(-75.89 -316.75)"/></svg>