<?xml version="1.0" encoding="utf-8"?>
<!-- Generator: Adobe Illustrator 21.1.0, SVG Export Plug-In . SVG Version: 6.00 Build 0)  -->
<svg version="1.1"
	 id="svg3072" xmlns:cc="http://creativecommons.org/ns#" xmlns:dc="http://purl.org/dc/elements/1.1/" xmlns:rdf="http://www.w3.org/1999/02/22-rdf-syntax-ns#" xmlns:svg="http://www.w3.org/2000/svg"
	 xmlns="http://www.w3.org/2000/svg" xmlns:xlink="http://www.w3.org/1999/xlink" x="0px" y="0px" viewBox="0 0 395 125"
	 style="enable-background:new 0 0 395 125;" xml:space="preserve">
<style type="text/css">
	.st0{fill:#595959;}
	.st1{stroke:#C4C4C4;stroke-width:0.585;stroke-miterlimit:3.864;}
	.st2{fill:#0C0C0C;}
	.st3{fill:#E0E0E0;}
	.st4{fill:#FFFFFF;}
</style>
<path id="path2492" class="st0" d="M232.4,7.6C220.5,1.9,209.6,0,196.8,0c-11.6,0-23.8,2.4-34.9,7.2c-11.5-4-39.1-1.6-45.1-1.5
	c-6.9,0.2-35.4-1.5-42.2-1.5c-6.7,0-20.7,0.2-31.2,0.9c-16,1.1-34.1-0.5-36.3-1C6.1,3.8,5.3,4.5,5.3,4.5c-0.5,0.6-5.3,6-5.3,6
	l0.5,1.6l11.4,5.7l-1.6,7.4l11.1,5c0,0,0,6.2,0.6,7c0.6,0.8,11.8,3.6,11.8,3.6s1.1,7.2,1.9,7.9c1.3,1.1,13,2.3,13,2.3
	s3.6,6.5,5.2,7.1c1.6,0.6,14.1,2.5,16.5,1.9c0,0,1,5.4,3.3,6.4c2.4,1,16,0.6,16,0.6s1.7,5.3,4.4,6.2c2.5,0.8,14.4-2.3,14.4-2.3
	s1.7,4,3.5,4.7c2.6,1.1,12.2-2.3,12.2-2.3c4.9,20.1,21.3,34.3,40.7,41.7l2.7,5.4l6.4-2.4l3.3,5l5.8-3.1l4,4.7l5.2-3.7l4.6,4.2
	l4.6-4.3l5.2,3.8l3.9-4.7l5.8,3.1l3.3-5l6.4,2.4l2.6-5.4c17.9-6.9,34.5-21.2,39.9-39.3c1.7,0.7,4.9,1.8,7.5,1.9c0,0,3-1.1,4.2-4.8
	c0,0,10.4,3.2,12.3,2.6c0,0,1.7-0.1,3.4-5.4c1.1,0.5,1.9,0.2,3.5,0.6c8.1,1.7,11.6,0.8,11.6,0.8s1.8-0.3,3.2-7
	c0.7,0.1,1.2,0.2,1.8,0.2c0,0,12,0.3,14.1-0.7c0,0,1.9-0.5,2.6-7.2c5,0.7,9.4,1.1,13,0.6c0,0,4-1.4,5.6-9.2
	c2.7-0.2,10.8-0.7,11.8-1.9c0,0,2-0.9,2-8c3.1-0.2,8.3-0.9,10.1-2.8c0,0,2-2.2,1.1-7.6c7.4-1.5,10-3.9,10-3.9
	c-0.1-2.6-2.4-7.4-2.4-7.4s8.3-3.2,10.3-4.8l0.7-1.2c0,0-5-6-5.8-6.1c-1.8-0.4-17.9,1.9-28.3,1.9c-10.4,0-29.1-1.6-36.9-1.6
	c-7.7,0-31.8,1.7-43.2,1.7c-11.3,0-15.7-1.7-24.1-1.7C251.6,4.7,239.7,5,232.4,7.6"/>
<path id="path2608" class="st1" d="M149.4,60.3c0-19.4,21-35.2,47-35.2c25.9,0,47,15.7,47,35.2c0,19.4-21,35.2-47,35.2
	C170.4,95.5,149.4,79.7,149.4,60.3z"/>
<path id="path2624" class="st2" d="M238.5,10.4c0.7-0.2,1.4,0,1.8,0.5c0.4,0.5,0.3,1.3-0.3,1.6c-0.5,0.3-1.1,0.3-1.6,0.4
	c-1.3,0.3-5.9,1-6.1,2.6c-0.1,0.9,1.1,1.9,1.5,2.3c0.6,0.5-0.5-0.5,0.2,0.1c0.9,0.8,3,2.2,1.9,3.6c-0.3,0.3-0.7,0.5-1.2,0.5
	c-2.2-0.2-5.1-4.5-5.4-5.2c-0.3-0.9-0.2-1.8,0.3-2.5C231.4,11.7,235.9,11.3,238.5,10.4"/>
<path id="path2636" class="st2" d="M159.3,10c2.5,0.6,4,0.6,5.4,2.9c0.7,1.2,0.8,3-0.5,4.7c-0.8,1.1-1.1,1.4-2,2.4
	c-0.9,1.1-1,1.8-2.5,2c-0.5,0.1-0.9,0-1.2-0.4c-1-1.4,1.1-3.2,2.2-4.4c0.4-0.5,1.4-1.9,1.2-2.5c-0.3-2-2.7-1.9-4.2-2.4
	c-0.6-0.2-2.2-0.5-2.7-0.8c-0.6-0.4-0.4-1.1-0.1-1.7C155.3,9.4,156.8,9.4,159.3,10"/>
<g>
	<path id="path2496" class="st3" d="M368.7,18.7c-2.7,0-5.4,0-8.1,0c-4.6,0.2-9.5,0.1-14.3,0.2c-6.2,0.1-20.6,0.2-21.3,0.3
		c-3,0-6,0-8.9,0c-5.1,0-9.5,0-14.6,0c-0.9,0-6,0.2-7.6,0.2c-0.7,0-2-0.1-2.8,0c-1.2,0.2-3.2,2.7-0.8,2.7c0.1,0,0.2,0,0.3-0.1
		c0.2,0,0.5-0.1,0.7-0.1c0.7-0.2,1.5,0,2.2,0.1c1.3,0.1,2.5,0.2,3.8,0.3c3.3,0.2,6.6,0.4,9.9,0.7c2.4,0.2,4.8,0.4,7.1,0.6
		C331.8,24.5,349,26,367,26c4.2,0,7.9-1.8,9.2-2.2c0.6-0.2,1.7-0.3,2.2-0.7c0.9-0.8-0.1-3.7-1-4.3C376.8,18.5,369.4,18.6,368.7,18.7
		"/>
	<path id="path2500" class="st3" d="M19,20c-0.9,0.3-1.3,0.8-1.4,1.8c-0.1,0.7,0.5,2.4,2.2,3.3c1.3,0.6,6.1,2.8,7.4,3.1
		c1.2,0.2,73.9-4,74.1-4c1-0.4,3.7-1.2,3.4-2.7c-0.1-0.4-0.8-0.9-1.2-1c-0.8-0.3-9.8,0.5-10.5,0.5C86.8,20.9,20.7,20,19,20"/>
	<path id="path2504" class="st3" d="M274.1,21.1c-0.8,0-1.6,0.5-1.9,1.3c-0.3,0.7-0.4,1.7,0.3,2.2c0.6,0.5,1.6,0.6,2.4,0.9
		c1.3,0.3,2.6,0.7,3.9,1c1.5,0.4,2.7,0.6,4.5,0.7c1.3,0.1,2.5-0.2,2.8-1.2c0.4-1.2,0.2-2.1-0.7-2.6c-0.5-0.3-2.3-0.8-5.1-1.3
		C277.7,21.5,274.9,21.1,274.1,21.1"/>
	<path id="path2508" class="st3" d="M118,21c-2.5,0.8-5.2,1.2-7.8,1.6c-1,0.2-2.4,0.2-3.2,0.8c-0.4,0.3-0.6,0.7-0.7,1.1
		c-0.1,0.4,0,0.9,0.2,1.2c0.4,0.5,2.8,1.5,4.4,1.2c2.5-0.6,4.7-1.4,7.1-2.1c0.8-0.2,1.9-0.4,2.5-1c0.6-0.7,0.2-1.5-0.3-2.1
		C119.6,21.2,118.8,20.8,118,21"/>
	<path id="path2512" class="st3" d="M290.1,25c-0.3,0.1-0.6,0.2-0.8,0.5c-0.8,0.8-1,2.2,0.6,2.2c0.6-0.2,2.4,0.1,3,0.2
		c1.2,0.2,2.3,0.3,3.5,0.5c4.7,0.7,9.3,1.5,14,2.2c5.6,0.9,11.3,1.8,17,2.5c4,0.4,8,1.1,12.1,1.5c6.3,0.6,12.4,1.5,19,1.5
		c0.4,0,0.8,0,1.2-0.1c0.2,0,0.5,0,0.7-0.1c0.2,0,0.3,0,0.5-0.1c0.2,0,0.4,0,0.5-0.1c0.2,0,0.4,0,0.6,0c0.2,0,0.3,0,0.5-0.1
		c0.1,0,0.3,0,0.4-0.1c0.1,0,0.2,0,0.3-0.1c0.1,0,0.2,0,0.3-0.1c0.1,0,0.2,0,0.3-0.1c0.6-0.2,1.2-0.3,1.8-0.5
		c2.1-0.6,3.2-1.5,3.9-3.6c0.2-0.5,0.4-1.1,0-1.5c-0.3-0.4-0.8-0.4-1.3-0.5c-2.6,0-5.3,0-7.9,0c-3.6-0.1-7.2-0.3-10.8-0.4
		c-13.3-0.6-26.5-1.7-39.6-2.5c-4.5-0.3-8.9-0.7-13.4-1C294.6,25.4,292,25,290.1,25"/>
	<path id="path2516" class="st3" d="M121.2,26.8c-2.4,0.5-4.6,1.5-6.9,2.3c-0.9,0.3-2.2,0.5-2.9,1.3c-0.4,0.5-0.5,1.1-0.4,1.7
		c0.1,0.4,0.3,1.1,0.6,1.4c0.6,0.7,2.2,1.3,3.3,1.3c0.6,0,1.5-0.2,1.9-0.4c1.8-1,3.6-1.9,5.4-2.9c0.6-0.3,1.4-0.4,1.9-0.9
		C125.9,28.9,122.6,26.6,121.2,26.8"/>
	<path id="path2520" class="st3" d="M270.8,27.7c-1,0.3-3.3,1.6-2.3,2.7c0.4,0.5,1.7,0.9,2.2,1.1c0.7,0.3,0.6,0.4,1.3,0.7
		c0.8,0.3,1.5,0.7,2.3,1c1.4,0.7,2.2,1.4,3.9,1.4c2.1,0,3,0.3,4-1.7c0.3-0.5,0.1-1.1-0.2-1.5c-0.5-0.6-3.2-1.6-4.4-2
		C275.1,28.6,271.4,27.5,270.8,27.7"/>
	<path id="path2524" class="st3" d="M103.1,27.1c-1.6,0.2-13.7,1.3-18,1.6c-2.3,0.2-43.2,2.7-46.8,2.8c-0.7,0.1-9.3,0-10.2,0.7
		c-0.5,0.4,0.1,2.7,0.5,3.1c0.8,0.8,2.4,1,3.4,1.3c3.2,0.9,6,1.9,9.7,1.9c0.2,0,64.1-8.1,65.3-8.1c0.2-0.2,0.3-0.3,0.3-0.5
		c-0.1-0.6-2.3-2.3-2.8-2.6C104.1,27.1,103.6,27.1,103.1,27.1"/>
	<path id="path2528" class="st3" d="M286.3,29.7c-0.6,0.2-1.4,0.6-1.2,1.4c0.1,0.6,0.4,1.6,0.9,2c0.9,0.7,2.9,0.9,4,1.2
		c3.1,0.8,6.3,1.6,9.4,2.4c4.6,1.2,9.3,2.2,14,3.3c5.7,1.3,11.6,2.5,17.5,3.5c3.2,0.5,6.5,1.1,9.8,1.5c1.7,0.2,3.4,0.5,5.2,0.5
		c0.2,0,0.3,0,0.5-0.1c0.3,0,0.6,0,0.9-0.1c0.2,0,0.4,0,0.7-0.1c0.2,0,0.3,0,0.5-0.1c0.2,0,0.5,0,0.7-0.1c0.2,0,0.5,0,0.7-0.1
		c0.2,0,0.5,0,0.7-0.1c0.2,0,0.4,0,0.5-0.1c0.2,0,0.3,0,0.5-0.1c0.2,0,0.3,0,0.5-0.1c0.2,0,0.3,0,0.5-0.1c0.1,0,0.3,0,0.4-0.1
		c0.1,0,0.2,0,0.3-0.1c0.1,0,0.2,0,0.3-0.1c0.1,0,0.2,0,0.3-0.1c0.1,0,0.2,0,0.3-0.1c0.6-0.3,1.3-0.3,1.9-0.7
		c0.8-0.5,2.8-3.2,1.7-4.1c-0.8-0.7-5.3-0.5-6.7-0.7c-4.2-0.3-8.5-0.8-12.7-1.2c-6-0.6-12-1.6-17.9-2.4c-7-0.9-14-2-20.9-3.2
		c-3.2-0.5-6.4-1.1-9.6-1.6C288.9,30.5,287.8,29.7,286.3,29.7"/>
	<path id="path2532" class="st3" d="M102.2,33.8c-3.6,0.6-7.1,1.2-10.7,1.8c-5.6,1-27.8,4.3-33.3,4.9c-3.5,0.4-7.1,0.8-10.7,1.1
		c-6.6-0.3-7.8,0.8-7,2.5c0.4,0.8,0.7,1.7,1.4,2.3c0.9,0.7,8.3,2.1,11.1,2.1c3.4,0.1,18.7-2.3,21.2-2.9c3.9-1,33.8-8.9,34.6-9.4
		c0.6-0.4,0.1-2.2-0.6-3.1C107.7,32.4,103.9,33.5,102.2,33.8"/>
	<path id="path2536" class="st3" d="M126.3,33c-1.1,0.1-8.4,4.5-8.9,5.2c-0.4,0.5-0.3,1-0.2,1.6c0.1,0.4,0.3,0.9,0.6,1.2
		c0.8,0.8,2.6,0.8,3.8,0.8c0.3-0.1,0.7-0.3,1-0.4c0.6-0.4,1.2-0.9,1.8-1.4c1.2-1,2.2-1.7,3.4-2.7c0.6-0.4,2.1-0.8,2.5-1.5
		C131.3,34.2,127.6,33,126.3,33"/>
	<path id="path2540" class="st3" d="M266,33c-1.2,0.1-3.4,0.8-3.6,2.4c-0.1,0.4,0,0.8,0.3,1.1c0.5,0.5,4.8,2.6,6.2,3.5
		c1,0.7,1.8,1.4,3.2,1.4c1.9-0.1,2.5-0.5,3-0.8c0.8-0.5,1.8-1.7,1.1-2.6c-0.6-0.8-1.9-1.2-2.8-1.6c-1-0.5-2-0.9-3-1.4
		C269.8,34.6,267.1,33,266,33"/>
	<path id="path2544" class="st3" d="M283.9,36.2c-0.6,0.3-1.3,0.6-1.9,0.8c-0.9,0.3-3.1,0.8-2.6,2.1c0.4,1.1,10.9,4.1,14.1,5.3
		c8.3,2.9,15.5,5.3,24.2,7.2c6.4,1.4,13.2,3,20.2,3c0.3,0,0.6,0,0.9-0.1c0.2,0,0.4,0,0.6-0.1c0.1,0,0.2,0,0.3-0.1
		c0.5-0.2,1-0.3,1.4-0.7c0.7-0.5,1.1-1.2,1.6-1.8c0.5-0.6,1.3-1,1.6-1.6c0.1-0.3,0.1-0.7-0.1-1c-0.2-0.3-0.6-0.4-0.9-0.5
		c-1.6-0.2-3.2-0.4-4.9-0.7c-3.2-0.5-6.3-1-9.5-1.5c-4.2-0.7-8.5-1.6-12.7-2.5c-6.7-1.4-13.2-2.9-19.7-4.5c-3-0.8-6-1.6-9-2.3
		c-0.6-0.2-1.3-0.4-1.9-0.6C285.1,36.5,284.6,36.2,283.9,36.2"/>
	<path id="path2548" class="st3" d="M132.7,38.1c-1.1,0-4.3,3.2-5.4,4.1c-0.6,0.5-1.9,1.6-2.2,2.3c-0.5,1.3,0.3,2,1.2,2.6
		c0.8,0.6,3.2,0.2,4.3-0.6c0.8-0.6,5.8-5,6.1-5.6C138.1,38.5,134.4,38.1,132.7,38.1"/>
	<path id="path2552" class="st3" d="M112.5,38.1c-0.4,0.1-0.9,0.2-1.3,0.4C110,39,83.8,47,71.4,49.6c-3.6,0.8-7.2,1.2-10.9,1.8
		c-1.1,0.2-3.5,0-4.3,0.7c-0.5,0.5,1,2.9,1.4,3.5c1.1,1.6,14,2.1,19.7,0.7c2.3-0.7,36.4-12.5,37.1-13.3c0.7-0.9,0.5-3.2,0.4-3.6
		C114.5,38.3,113.5,38.1,112.5,38.1"/>
	<path id="path2556" class="st3" d="M259.8,38.3c-1,0.3-2.6-0.2-3.3,0.8c-0.4,0.5-0.4,1.3-0.1,1.8c0.4,0.6,6,5.1,6.6,5.4
		c0.9,0.4,2,0.4,3.1,0.4c0.9,0,2.8-0.8,2.6-2.2c-0.1-0.4-0.3-0.7-0.6-1c-0.8-0.8-1.9-1.2-2.8-1.9c-0.8-0.5-1.7-1.2-2.5-1.7
		c-0.7-0.5-1.3-0.9-2.1-1.5C260.6,38.4,260.2,38.3,259.8,38.3"/>
	<path id="path2560" class="st3" d="M251.6,42.6c-0.9,0.2-2,0.6-1.8,1.8c0,0.2,1.5,1.3,2,1.9c1.2,1.2,2.2,3.4,3.8,4.2
		c1.1,0.6,2.7,1.3,4,0.7c1.6-0.7,1.2-2.3,0.9-2.6c-1.1-1.5-2.7-2.6-4-3.9c-0.6-0.6-1.2-1.6-2-1.9C253.6,42.5,252.5,42.6,251.6,42.6"
		/>
	<path id="path2564" class="st3" d="M139,42.8c-0.8,0.5-1.9,1.8-2.5,2.5c-0.5,0.5-1,1-1.5,1.5c-1,1-3,2.7-1.3,3.9
		c0.7,0.5,1.9,0.9,2.7,0.7c0.6-0.3,1.2-0.3,1.8-0.8c0.6-0.5,0.9-1.1,1.3-1.7c0.4-0.7,1.9-2.7,2.3-3c0.8-0.7,1.9-1.2,1.1-2.5
		C142.6,42.8,139.8,42.4,139,42.8"/>
	<path id="path2568" class="st3" d="M277.9,42.9c-0.7,0.3-3.3,1.2-3.3,2c0.1,1.1,1.6,1.5,2.6,1.9c0.7,0.2,1.4,0.6,2,1
		c1.3,0.7,2.7,1.4,4,2.1c2.1,1.1,4.3,2.1,6.4,3.2c3.1,1.6,6.3,3.1,9.5,4.4c3.3,1.4,6.7,3,10.4,3.7c3.1,0.6,6.7,0.4,10.1,0.4
		c0.3,0,0.6,0,0.8-0.1c0.5,0,0.9,0,1.4-0.1c0.2,0,0.5,0,0.7-0.1c0.1,0,0.3,0,0.4-0.1c0.1,0,0.3,0,0.4-0.1c0.1,0,0.2,0,0.3-0.1
		c0.3-0.1,0.7-0.3,1-0.4c0.8-0.5,2.5-2.4,1.8-3.3c-0.7-0.9-3.7-1.1-4.9-1.3c-2.6-0.6-5.1-1.1-7.6-1.8c-9.1-2.2-17.8-5.2-26.4-8.1
		c-2.2-0.8-4.5-1.6-6.7-2.4C280,43.5,279.1,42.9,277.9,42.9"/>
	<path id="path2572" class="st3" d="M117.2,45.1c-1.7,0.1-7.8,3.6-10.3,4.6c-6.8,2.9-14,5.3-21.1,7.7c-1.9,0.6-3.8,1.1-5.7,1.7
		c-1.2,0.3-2.6,0.5-3.7,1.1c-0.3,0.2-0.6,0.4-0.6,0.8c-0.1,0.6,0.4,1.1,0.9,1.5c0.5,0.4,1.1,0.9,1.7,1.1c1,0.4,2.1,0.3,3.3,0.4
		c2.7,0.1,8.1,1,11.6-0.6c3.2-1.4,16.9-8.5,20.4-10.4c1.7-0.9,9.1-4.4,9-5.7C122.6,45,119.1,45.1,117.2,45.1"/>
	<path id="path2576" class="st3" d="M271.1,47.3c-0.6,0.4-2.2,1.6-2,2.5c0.2,0.9,3.3,2.3,3.8,2.7c4.6,3.4,9.2,6.8,14.1,9.9
		c2.7,1.7,5.4,3.5,8.3,4.6c2.9,1.1,6.3,1.4,9.7,1.4c0.2,0,0.4,0,0.6,0c0.3-0.1,0.6-0.2,0.9-0.3c0.8-0.5,2.7-2.1,2.1-3.1
		c-0.1-0.2-0.4-0.4-0.6-0.5c-0.7-0.2-1.4-0.5-2.1-0.7c-1.2-0.4-2.4-0.9-3.6-1.3c-3.8-1.5-7.4-3.1-11.1-4.8c-5-2.4-9.9-4.9-14.7-7.5
		c-1.5-0.8-3-1.7-4.5-2.6c-0.1,0-0.3-0.1-0.4-0.1C271.3,47.3,271.2,47.3,271.1,47.3"/>
	<path id="path2580" class="st3" d="M263.8,50.4c-0.3,0.1-0.5,0.3-0.7,0.6c-0.4,0.5-0.5,1.1-0.7,1.7c-0.2,0.5-0.4,1-0.7,1.5
		c-0.1,0.3-0.1,0.6,0,0.9c0.3,0.6,1,0.6,1.6,0.8c0.4,0.2,0.8,0.5,1.2,0.9c3.4,3.1,6.6,6.5,10,9.4c1.3,1.1,2.4,2.5,3.8,3.3
		c1.2,0.6,2.6,0.9,3.9,1.3c2,0.5,4,1.2,6.3,1.2c0.8-0.4,3.3-1.2,2.9-2.5c0-0.1,0-0.1-0.1-0.2c-0.1-0.1-0.1-0.2-0.2-0.2
		c-0.8-0.9-2.1-1.4-3.1-2c-1.9-1.2-3.7-2.4-5.6-3.6c-4.5-2.9-8.7-6.3-13.1-9.5c-1.6-1.2-2.7-3-4.7-3.5c-0.1,0-0.2,0-0.3,0
		c-0.1,0-0.2,0-0.3,0C264,50.4,263.9,50.4,263.8,50.4"/>
	<path id="path2584" class="st3" d="M124.5,50.5c-1.2,0.3-29.3,15.5-29.7,16.2c-0.7,1.1,1.4,2.7,2.4,3c1.5,0.3,10-0.5,13.7-2.6
		c1.1-0.8,13.8-10.7,14.8-11.5c1.2-1,5.2-3.1,4.7-3.9C130,50.6,125.6,50.1,124.5,50.5"/>
	<path id="path2588" class="st3" d="M132.3,54.3c-0.8-0.1-5.2,5.4-15.9,12.7c-0.9,0.6-3,1.9-3.4,2.9c-0.7,1.8,2.4,2.3,3.5,2.3
		c0.3,0,6-0.8,8.7-2.3c1.2-0.7,13.2-12.6,13.6-13.1c0.2-0.2,0.3-1.4,0.2-1.5c-0.6-0.9-2.6-0.3-3.7-0.4
		C134.4,54.7,133.2,54.5,132.3,54.3"/>
	<path id="path2592" class="st3" d="M255.5,54.4c-1,0.3-2.1,1.5-1.6,2.8c0.2,0.7,1,0.8,1.5,1.2c0.5,0.4,0.8,0.9,1.2,1.3
		c2.1,2.9,4.3,5.9,6.5,8.7c0.9,1.1,1.8,2.4,3,3.3c1.6,1.1,4.7,2.2,6.8,2.2c0.8-0.4,2.6-0.4,2.7-1.6c0,0,0-0.1,0-0.2
		c-0.1-1.1-2.1-2.5-2.9-3.2c-3.2-3-6.3-6-9.5-9c-0.7-0.7-1.3-1.3-2-2c-0.6-0.7-1.1-1.5-1.9-2C258.2,55,256.9,54.4,255.5,54.4"/>
	<path id="path2596" class="st3" d="M129.7,77.4c-0.5,0.2-0.3,1-0.2,1.5c0.2,0.8,3.4,5.8,4.7,7.8c1.2,1.7,2.3,3.5,3.7,5.1
		c5.3,6.2,11.7,11.7,18.7,15.2c1.1,0.5,6.8,3.5,8.1,3.4c0.3,0,0.4-0.3,0.3-0.4c-0.1-0.3-0.4-0.5-0.6-0.7c-1.3-0.6-2.6-1.2-3.9-1.8
		c-2.3-1.1-4.5-2.3-6.6-3.7c-5-3.2-9.5-6.9-13.7-11.5c-1.9-2.1-3.2-4.3-5-6.8c-1.6-2.3-3.8-6.7-4.4-7.5
		C130.5,77.4,130.1,77.1,129.7,77.4"/>
	<path id="path2600" class="st3" d="M262.5,77.9c-0.6,0.3-3.7,6-6.4,9.9c-3,4.3-6.8,8.4-11,11.8c-3.5,2.8-6.9,4.8-10.8,6.8
		c-2.4,1.2-5.5,2.5-6.1,3c-0.8,0.6-0.4,1.1,0.5,1.1c0.8-0.3,4.4-1.8,8-3.8c7.6-4.1,15.3-11,20.6-18.1c2.3-3.1,5.4-8.8,5.7-9.6
		C263.4,78.3,263.2,77.9,262.5,77.9"/>
	<path id="path2604" class="st3" d="M166.7,9.4c0,0-0.8-1.4,0.9-2.3c1.7-0.8,14.4-4.8,29.3-4.8c16.4,0,30.7,5.3,31.6,5.9
		c1.1,0.9,0.1,2.6-1.2,2.4c-1.3-0.2-14.2-5.7-30.2-5.7c-16,0-27.2,4.2-28.1,4.8C167.8,10.3,166.7,9.4,166.7,9.4"/>
	<path id="path2628" class="st3" d="M274.7,17.3c-0.1,1.8,5.2,1.5,6.5,1.6c1.9,0.2,5.6,1.5,6.3,0.9c0.9-0.8,1.8-4.3,0.2-4.4
		c-2.2-0.1-3.1,0.2-5.6,0.3C279.5,15.9,274.8,15.5,274.7,17.3"/>
	<path id="path2632" class="st3" d="M118.3,18c0.1,1.3-5.3,1.2-6.6,1.4c-1.9,0.2-5,1.5-6,0.3c-0.8-0.8-1.8-3.3-0.2-3.4
		c2.2-0.1,3.8,0.1,6.3,0.2C114.4,16.7,118.2,16.1,118.3,18"/>
	<path id="path2640" class="st3" d="M270.6,16.7c0.5,0.1,1.2,0.2,1.3,0.8c0.1,0.8-0.5,1.6-2.2,1.8c-1.2-0.1-3.5-2.2-4.4-0.4
		c-0.8,1.5,4.2,2.1,3.9,3.7c-0.2,1.3-0.6,1.5-1.8,1.5c-0.5,0-1.7-0.7-2.1-0.9c-1.1-0.5-3.8-2.6-4.8-0.9c-1,1.7,5.8,3.9,5.6,5.2
		c-0.2,1.2-1.4,2.2-2.4,1.9c-1.3-0.3-5.5-5.2-7.4-3.3c-1.8,1.8,5.3,4.9,4.9,5.9c-0.6,1.8-2.2,2.3-4.4,0.5c-1.2-1-3-2.7-4-1.3
		c-1.3,1.7,2.4,3.9,2.7,4.5c0.8,1.4-1.1,3.1-2.3,2.8c-1.1-0.2-2.8-4.4-4.4-2.9c-1.2,1.1,1.8,3.8,1.5,4.8c-0.1,1-2.7,2.3-3.8,1.4
		c-1.6-1.1,2.2-6.6-1.6-11.8c-1.8-2.2-3.3-5.7-3.4-6.3c-0.1-1.1-0.1-2.9,0.6-3.8c2.6-3.5,14.6-3.3,19.7-3.5
		C265.2,16.3,267.1,16.7,270.6,16.7"/>
	<path id="path2644" class="st3" d="M121.6,17.2c-0.7,0-1.3,0.1-1.4,0.8c-0.1,0.8,0,2.2,1.4,2.2c1.7,0,3.7-2.2,4.7-0.8
		c1.1,1.6-4.6,2.5-3.7,4.5c1.2,2.5,3.5,0.2,3.9,0.1c1.2-0.5,4.8-3.7,6.3-1.6c1.3,1.9-4.6,4.5-5.4,5.4c-0.2,0.3-0.6,1.6-0.5,2
		c1.3,2.9,4.6,0.1,6.8-2.3c0.8-0.9,1.4-1.4,2.2-1.6c1.1-0.3,2.1-0.1,2.4,0.9c0.2,0.6,0,1.2-0.4,1.6c-0.5,0.4-5.6,4.1-5.4,5.2
		c0.4,2.2,1.7,2.5,2.7,2c1.1-0.5,4.1-5.5,5.8-4.8c0.5,0.2,1.1,0.3,1.2,0.7c0.3,0.6,0.2,1.5-0.2,2c-0.5,0.7-1.4,1.5-2.1,2.1
		c-0.5,0.5-1.1,1-1.5,1.6c-0.8,1.5,0.4,2.2,1.8,2.2c0.5,0,0.7-0.3,1.1-0.6c0.8-0.7,1.7-3.8,3.4-3c1.8,0.9-1.5,3.4-1.2,5.1
		c0.5,1.3,2.6,1.6,3.2,0.6c0.7-1.6,0.3-4,0.9-6.7c0.6-2.5,2.4-6.2,3.3-7.7c0.5-0.9,1.2-1.6,1.5-2.6c0-0.1,0-0.1,0-0.2
		c0.1-1.1-0.6-2-1.3-2.7c-1.2-1.1-2.9-1.8-4.4-2.3c-4.6-1.5-9.4-1.6-14.7-1.9C128.6,17.3,125.1,17.2,121.6,17.2"/>
	<path id="path2648" class="st3" d="M244.5,45.3c0.6-1.3,3.6,0.1,3.8,0.4c0.8,0.7,1.1,1.8,1.7,2.7c0.7,1,2.6,3.2,2.5,4.4
		c-0.1,0.9-3.8,3.8-4.6,3.1c0,0,0-0.1-0.1-0.1c-0.5-3.5-1.7-6.9-3.4-10.1C244.4,45.5,244.4,45.4,244.5,45.3"/>
	<path id="path2652" class="st3" d="M248.5,57.6c1,0,2.7,0.4,3.4,1c0.6,0.5,0.9,1.3,1.3,1.9l2.1,3l5,6.6l2.3,2.9
		c0.4,0.7,0.3,1.2-0.3,1.7l-0.4,0.1c-2.3,0-5.9-0.8-7.5-2.2c-0.8-0.7-1.2-1.5-1.7-2.3l-2.4-4.4c-0.4-0.7-1.8-2.7-2-3.4
		c0-0.1-0.1-0.2-0.1-0.3c0-0.6,0.1-1.1,0.1-1.7c0-0.8,0-1.5-0.1-2.3C248.2,57.8,248.3,57.6,248.5,57.6"/>
	<path id="path2656" class="st3" d="M139.2,59.8c1.3-1.8,3.1-3.3,4.7-3.1c0.4,0,0.6,0.2,0.8,0.4c-0.1,1.1-0.2,2.1-0.2,3.2l0,0.5
		l0,0.1c-0.5,1.6-0.6,1.2-1.7,3.3c-1.7,3.2-3.5,7.8-4.6,8.2c-1.6,0.7-4,0.6-5.7,1.1c-2.5,0.6-4.2,0-4.2-1.2
		C128.3,70.9,138.2,61.3,139.2,59.8"/>
	<path id="path2660" class="st3" d="M139.9,74.9c1.5,0.1,1.9,2.1,3.6,2.5c1.1,0.3,2.3-0.3,3.2-0.8c0.6-0.3,1.3-0.9,2.1-0.9
		c4.9,8.5,13.8,15.5,24.9,19.5c0,0,0,0.1,0.1,0.1c0.1,0.4,0,0.8-0.2,1c-0.6,0.7-6.2,9.5-7.4,9.7c-1,0.4-4.9-2.1-6.3-2.9
		c-7.4-3.9-14.4-9.2-19.8-16.1c-1.7-2.2-6.5-7.7-6.5-10C133.7,75.4,139,74.9,139.9,74.9"/>
	<path id="path2664" class="st3" d="M253.3,76.2c0.6-0.2,5,1.4,5.1,2.4c0,0.9-2.7,4.6-5.8,8.6c-5.3,7-11.9,11.8-19.2,15.8
		c-1.6,0.9-3.3,1.7-4.9,2.3l-1.4,0.6c-0.4,0-0.8-0.1-1.1-0.4c-0.6-0.6-6.3-9-6.6-9.4c-0.2-0.3-0.2-0.8,0-1.1
		c10.4-3.9,18.9-10.3,23.9-18.3c0.8-0.2,2.3,1,3,1.3c1.1,0.5,2.5,1.1,3.9,0.7C251.6,78.5,252.2,76.7,253.3,76.2"/>
	<path id="path2668" class="st3" d="M204.1,98.7c0.6,0.3,0.9,1,1.1,1.4c0.4,0.9,1.8,8.9,2.6,12.1c0.2,1,0.5,2.7,0.3,3.8
		c-0.1,1-1.3,2.3-2.4,2.5c-1,0.1-2.9-1.3-3.2-2c-0.4-1-0.4-2.1-0.5-3.3c-0.3-3.4-0.8-11.5-0.8-12.4c0-0.5,0.2-1.3,0.7-1.8
		C202.7,98.8,203.4,98.8,204.1,98.7"/>
	<path id="path2672" class="st3" d="M210.8,97.6c0.3,0.3,0.5,0.6,0.7,0.8c0.6,0.8,3.5,8.7,4.8,11.7c0.4,1,1,2.6,1,3.7
		c0,1-0.9,2.6-2,2.9c-1,0.3-3.2-0.8-3.6-1.5c-0.6-0.9-0.8-2.1-1.1-3.2c-0.9-3.4-2.8-11.5-3-12.4c-0.1-0.4-0.1-1,0.2-1.6
		C208.8,98,209.8,97.8,210.8,97.6"/>
	<path id="path2676" class="st3" d="M216.9,95.9c0.4,0.2,0.7,0.6,1,0.8c0.7,0.7,4.5,8.2,6.2,11.1c0.5,1,1.3,2.4,1.5,3.6
		c0.1,1-0.6,2.6-1.7,3.1c-0.9,0.4-3.3-0.4-3.8-1c-0.7-0.8-1-2-1.4-3.1c-1.3-3.2-4.2-11.1-4.5-11.9c-0.1-0.5-0.2-1.2,0.1-1.8
		C215.1,96.5,216.1,96.2,216.9,95.9"/>
	<path id="path2680" class="st3" d="M197.4,99.1c0.5,0.4,0.7,1.1,0.9,1.5c0.3,0.9,0.7,9.1,1.1,12.3c0.1,1.1,0.2,2.7-0.1,3.8
		c-0.3,0.9-1.5,2.1-2.7,2.1c-1,0-2.7-1.6-3-2.4c-0.3-1-0.1-2.2-0.1-3.3c0.2-3.4,0.7-11.5,0.8-12.4c0.1-0.5,0.3-1.2,0.9-1.6
		c0.4,0,0.8,0,1.2,0C196.7,99.1,197.1,99.1,197.4,99.1"/>
	<path id="path2684" class="st3" d="M191.2,98.9c0.4,0.5,0.5,1.2,0.6,1.6c0.2,1-0.7,9.1-0.9,12.3c-0.1,1.1-0.2,2.7-0.7,3.7
		c-0.4,0.9-1.9,1.9-3,1.7c-1-0.1-2.4-2.1-2.5-2.8c-0.1-1,0.3-2.1,0.5-3.3c0.7-3.3,2.5-11.3,2.7-12.1c0.1-0.4,0.4-1,0.9-1.3
		C189.6,98.8,190.4,98.9,191.2,98.9"/>
	<path id="path2688" class="st3" d="M185,98.2c0.5,0.6,0.5,1.4,0.5,2c0,1-2.3,8.8-3,12c-0.3,1-0.7,2.6-1.3,3.5
		c-0.6,0.8-2.2,1.5-3.3,1.1c-0.9-0.3-2-2.4-2-3.2c0-1.1,0.6-2.1,1-3.1c1.3-3.1,4.4-10.7,4.8-11.5c0.2-0.4,0.6-0.9,1.1-1.2
		C183.5,97.9,184.2,98,185,98.2"/>
	<path id="path2692" class="st3" d="M178.9,96.8c0.4,0.6,0.2,1.4,0.1,1.9c-0.1,1-3.7,8.4-4.9,11.3c-0.4,1-1.1,2.5-1.9,3.3
		c-0.7,0.7-2.4,1.2-3.4,0.6c-0.9-0.4-1.6-2.7-1.5-3.5c0.2-1,0.9-1.9,1.5-2.9c1.7-2.9,6.1-9.9,6.6-10.6c0.2-0.3,0.6-0.6,1-0.9
		C177.2,96.4,178.1,96.6,178.9,96.8"/>
	<path id="path2696" class="st3" d="M145.8,45c0.9-0.2,2.6-0.9,2.9,0c-1.8,3.2-3.1,6.6-3.7,10.1c-0.7,0.4-2.3-0.6-4.1-1.3
		c-2.3-1,1.1-2.9,2.3-4.7C143.9,48.2,145,45.7,145.8,45"/>
	<path id="path2700" class="st3" d="M144.8,64.2c0.5,3.4,1.5,6.6,3,9.6c-0.3,0.6-3.8,1.9-5.6,0.4C141.2,72.9,143.6,64.1,144.8,64.2"
		/>
	<path id="path2704" class="st3" d="M380.8,6.6c0.8,0,1.6,0,2.2,0.3c0.9,0.5,3.6,3.1,3.6,4.2c0,0.6-3.4,1.6-4.9,2.2
		c-1.1,0.5-3.7,1.5-4.1,1.6c-0.3,0.1-2.3,0.1-2.6,0.1c-0.5,0-3.6,0-4.9,0c-0.5,0-10.1,0.3-13.3,0.3c-3.6,0-7.2,0.1-10.7,0.1
		c-0.8,0-4.9,0.1-5.2,0.1h-15.4h-3.3l-1.3,0.1l-0.8,0.1h-9.9c-0.8,0-5.8,0.1-8,0.3c-3.1,0.3-7.6,0.6-7.8,0.6c-0.6,0-1.8,0.2-2-0.4
		c-0.2-0.7,1.3-1,1.8-1.1c5.5-1.1,11.1-2.4,17.3-3.2c10.4-1.3,15.4-1.4,17.1-1.9c1-0.3,0.8-1.6,0-1.7c-11.2-1.3-36.1,3.5-39.7,4.3
		c-6.7,1.4-11.6,1.8-13.2,1.8H260c-8.6,0-12.4,0.9-13,1c-1.7,0.4-3.2,0.9-4.7,1.7c-3.1,1.6-5.1,3.6-3.8,7.3c0.5,0.8,0.9,1.9,1.4,2.7
		c1.1,2.1,2.4,4.7,3.6,6.7c0.8,1.5,1.3,3.3,1.3,5.1l-0.4,2.3c0,0.4-1,2.1-1.5,1.8c-0.1,0-0.1-0.1-0.3-0.3c-0.6-0.9-1.3-1.7-1.9-2.6
		c-0.2-0.3-0.4-0.6-0.5-0.6c-0.8-1,1.5-2.5,1.3-3.8c-0.4-2.6-4.3-7.6-7.2-10c-1.7-1.4-3.3-3.2-4.8-5c-0.6-0.8-1.3-1.6-2-2.4
		c-0.6-0.7-0.8-1.2-1-2.1c-0.4-1.8,0.7-2.9,1.8-3.8c0.7-0.6,2-1.4,3.1-1.8c2.9-1.2,9.9-2.4,13.9-2.9c1.4-0.1,4.7-0.5,7.2-0.6
		c2.8,0,5.4,0.1,8,0.3c5.1,0.4,10,1.3,15.2,1.4c7.6,0.1,15-0.4,22.4-0.7c3.3-0.2,6.8-0.4,10.3-0.7c5.4-0.5,22-0.3,24.4-0.1
		c1.2,0.1,12.2,0.5,17.7,0.9c1.2,0.1,2.2,0.2,3,0.3c2.4-0.1,4.8,0.1,7.2-0.1c4.5-0.3,8.9-0.8,13.3-1.1L380.8,6.6L380.8,6.6z"/>
	<path id="path2708" class="st3" d="M74.2,6.2c7.1,0,13.3,0.6,20.1,0.9c3.5,0.2,6.9,0.2,10.4,0.4c3.5,0.2,7.2,0.4,10.8,0.4
		c6.4,0,12.5-0.4,18.8-0.7l4.8,0c3-0.1,6.3-0.2,9.4,0.1c1.9,0.2,3.8,0.2,5.6,0.4c2.5,0.3,6.8,0.8,8.6,1.6c1.7,0.7,2.9,1.9,3.5,2.6
		c1.2,1.3,3.1,3.4,2,5c-0.4,0.8-1.6,2-2.2,2.6c-0.8,0.9-7.2,6.1-8.8,8.4c-1.4,2-1.9,3.5-2.7,5c-1.2,2,0.1,3.5-0.3,4.7
		c-1.3,1.4-2.5,2.8-3.6,4.3c-0.2,0.1-0.4,0.2-0.6,0.1c-1.1-0.8-0.9-2.4-0.6-4.5c0.1-1.6,1.4-4.9,1.9-5.7c0.9-1.7,3.8-5.2,4-5.8
		c1.9-5.2-3.3-8.4-7.3-9.6c-1.3-0.4-2.6-0.9-4-1.2c-5.1-0.9-10.5-0.8-16-1c-3.8-0.1-7.7-0.3-11.6-0.3l-8.3,0
		c-2.6-0.2-5.3-0.4-7.8-0.9c-4.2-1-7.8-1.9-12-2.8c-3.6-0.8-7.5-1.5-11.3-1.7c-2.6-0.2-7.2-0.4-9.9-0.4c-2,0-16.8-0.2-19,0.5
		c-0.8,0.1-0.6,1.6-0.1,1.7c2.8,0.8,13.4,1,20.4,0.8c4.1,0.2,8.7,0.7,12.6,1.3c5,0.7,9.7,1.6,14.3,3.1l5,1.3
		c0.8,0.3,1.9,0.8,0.8,1.6c-3.1,0-5.9-0.6-9-0.6c-7.9,0-19.2-0.2-27.1-0.2c-0.8-0.1-39-0.5-43.6-0.7c-5.1-0.3-9.7-2.7-11.4-3.5
		c-0.7-0.3-2.6-1.8-2.4-2c0.4-0.9,2.4-4.4,4.1-4.6c3.5,0.3,7.7,0.8,11.3,0.9c0,0,25.5-0.3,26.3-0.3c3.8-0.3,13-0.7,16.9-0.8
		C68.4,6.3,72.1,6.1,74.2,6.2"/>
	<path id="path2712" class="st3" d="M248.3,66c1.2-0.1,3.6,9.9,2.1,10.7c-1.6,0.8-5.3-1.1-5.8-1.6c-0.1-0.1-0.1-0.2-0.1-0.3
		c1.4-2.7,2.5-5.5,3.1-8.4C247.8,66.1,248,66,248.3,66"/>
	<path id="path2716" class="st3" d="M197.3,7c-12.8,0-26.5,3.6-27,4.3c-1.2,1.8,1.4,1.8,1.3,4.3c-0.1,3.1-2.5,5.2-3.4,6.1
		c-3.3,3.4-7.4,5.2-10.3,9c-0.2,0.3-0.4,1.6-0.1,2c0.8,1,2.5-0.1,3-0.4c6-4.7,11.7-6.5,18.6-8.6c1.7-0.5,10.3-2.3,21.5-1.8
		c9.8,0.4,18.9,3,26.8,7.5c3.2,1.8,6,4.1,9,6.6c1.1,0.9,1.9-0.4,2-0.9c0-0.6-0.4-1.4-0.7-1.9c-2.3-3.8-7.3-7.1-10.8-11.2
		c-1.7-2-2.6-2.7-3.2-3.9c-2.1-3.6,1.1-3.8,0.7-5.4C224.1,11.5,211.5,7,197.3,7"/>
</g>
<path id="path2612" class="st4" d="M192.8,32.1c-0.4,0.2-1,0.1-1.4,0.1c-1.9,0.2-3.8,0.5-5.6,0.8c-5.3,1-10.5,3-14.8,6
	c-1.1,0.7-2.4,1.6-3.2,2.7c0,0,0,0.1-0.1,0.1c-0.3,0.5-0.9,0.9-1.1,1.5c-0.1,0.2-0.2,0.6-0.1,0.8c0.3,0.8,1.9,2.3,2.7,2.7
	c0.4,0.2,1.1,0.7,1.1,1.2c0.1,0.7-0.1,1.5-0.1,2.1c0,0.9,0,1.8,0,2.7v13.1v5.2c0,0.8,0,1.5,0,2.3c-0.1,0.4-1.6,1.8-2,2.2
	c-0.5,0.5-0.7,1.2-1.1,1.8c0,0,0,0.1,0,0.1c0.2,0.2,0.2,0.6,0.3,0.9c0.5,0.7,1.2,1.5,2,2.1c5.9,4.6,14.9,7.1,22.8,7.8
	c3.1,0.2,6.4,0,9.5,0c0.3-0.3,2.2-0.3,2.8-0.3c0.3-0.2,1.6-0.3,2.1-0.3c0.3-0.3,1.1-0.3,1.5-0.3c0.2-0.2,0.5-0.2,0.7-0.2
	C209,87,209.6,87,210,87c0.2-0.2,0.7-0.3,1-0.3c0.2-0.2,0.7-0.3,0.9-0.3c0.2-0.2,0.7-0.3,1-0.3c0.3-0.3,1.1-0.5,1.5-0.5
	c0.2-0.3,0.6-0.3,0.9-0.5c0.8-0.4,1.5-0.7,2.3-1.1c2.7-1.5,5-3.6,6.4-6.4c0.3-0.5,0.7-1,0.7-1.7c0.2-0.2,0.3-0.6,0.3-1
	c0.3-0.3,0.3-1,0.3-1.5c0.4-0.4,0.2-1.6,0.2-2.2c-0.1-5.4-4.3-10.5-9-12.5c-0.1,0-0.3,0-0.3-0.2c0.3-0.2,0.8-0.7,1.3-0.7
	c0.3-0.5,1.5-1,2-1.4c1.1-0.9,3.8-3.5,3.8-4.9c0.2-0.2,0.3-0.4,0.3-0.7c0.2-0.2,0.3-0.6,0.3-0.9c0.4-0.4,0.3-1.4,0.3-2.1
	c0.3-0.4,0.1-1.3,0-1.7c-0.5-2.6-1.5-4.7-3.3-6.6c-0.4-0.4-0.9-0.7-1.3-1.1c-1.3-1.3-2.9-2.1-4.4-2.9c-4.3-2.1-9.4-3.3-14.6-3.5
	C197.9,32.1,195.4,32.1,192.8,32.1L192.8,32.1z M195.5,36.7c3,0,5.9,0.3,8.2,1.6c3.5,2.1,4.6,6.3,4.1,10.3c-0.3,2.4-1.1,4.7-3,6.3
	c-1.8,1.6-4.1,1.9-6.6,2.2c-5.4,0.7-11-1.2-12.6-6.3c-0.4-1.2-0.7-2.6-0.7-4c0-0.7,0.1-1.4,0.1-2.1c0.2-0.3,0.3-0.9,0.3-1.3
	c0.2-0.2,0.3-0.5,0.3-0.8c0.1-0.1,0.3-0.4,0.3-0.6c0.1-0.1,0.2-0.2,0.2-0.4c0.3-0.2,0.8-1,0.8-1.4c0.4-0.2,0.7-0.7,1-1
	c0.9-0.9,2.7-1.9,4-1.9c0.1-0.1,0.3-0.2,0.5-0.2c0.3-0.3,1.1-0.3,1.5-0.3C194.3,36.6,195.1,37,195.5,36.7z M194.8,61.5
	c3.6,0,6.9,0.1,9.7,1.4c6.2,2.8,6.7,13,2.5,17.6c-3.1,3.4-9.7,4-14.3,2.8c-1-0.3-2.1-0.5-3-1c-1.2-0.7-2.2-1.6-3-2.8
	c-1.2-1.6-1.9-3.9-2-6.1c-0.1-1.2,0.1-2.4,0.1-3.5c0.2-0.2,0.3-0.7,0.3-1.1c0.2-0.2,0.3-0.6,0.3-0.9c0.2-0.1,0.3-0.4,0.3-0.7
	c0.2-0.2,0.4-0.6,0.4-0.9c0.5-0.4,0.8-1.1,1.2-1.6c0.4-0.6,2-1.8,2.6-1.8c0.2-0.3,0.8-0.5,1.2-0.5c0.2-0.2,0.6-0.3,0.9-0.3
	c0.2-0.2,0.8-0.3,1.1-0.3C193.4,61.5,194.4,61.9,194.8,61.5z"/>
</svg>
