<svg id="Layer_1" data-name="Layer 1" xmlns="http://www.w3.org/2000/svg" viewBox="0 0 795.75 639"><defs><style>.cls-1{fill:#fff;}.cls-1,.cls-2,.cls-3,.cls-4{fill-rule:evenodd;}.cls-2{fill:#da2032;}.cls-3{fill:#231f20;}.cls-4{fill:#9b95c9;}</style></defs><title>Bugatti</title><polygon class="cls-1" points="0 0 795.75 0 795.75 639 0 639 0 0 0 0"/><path class="cls-1" d="M199.95,358.17c0-81.33,161.16-147.26,361.22-147.26s361.21,65.93,361.21,147.26S761.22,505.43,561.16,505.43,199.95,439.5,199.95,358.17Z" transform="translate(-163.28 -38.67)"/><path class="cls-2" d="M561.16,237.69C765.39,237.69,889,304.79,889,358.17S765.39,478.66,561.16,478.66,233.29,411.55,233.29,358.17,356.93,237.69,561.16,237.69Z" transform="translate(-163.28 -38.67)"/><path class="cls-3" d="M561.16,209.66c199.86,0,362.77,65.87,362.77,148.51S761,506.68,561.16,506.68,198.39,440.81,198.39,358.17,361.3,209.66,561.16,209.66Zm0,2.5c-200.25,0-359.66,66-359.66,146s159.41,146,359.66,146,359.66-66,359.66-146-159.41-146-359.66-146Z" transform="translate(-163.28 -38.67)"/><path class="cls-3" d="M890.59,358.17c0,54.67-125.37,121.74-329.43,121.74S231.73,412.85,231.73,358.17,357.1,236.44,561.16,236.44,890.59,303.5,890.59,358.17Zm-3.11,0c0-52.09-121.92-119.23-326.31-119.23S234.85,306.09,234.85,358.17,356.77,477.41,561.16,477.41s326.31-67.15,326.31-119.24Z" transform="translate(-163.28 -38.67)"/><path class="cls-2" d="M569.5,224.3c0,3.7-3.73,6.69-8.33,6.69s-8.34-3-8.34-6.69,3.73-6.69,8.34-6.69,8.33,3,8.33,6.69Z" transform="translate(-163.28 -38.67)"/><path class="cls-2" d="M542,224.49c.16,3.69-3.44,6.79-8,6.92s-8.46-2.76-8.62-6.46,3.44-6.8,8-6.92,8.46,2.76,8.62,6.46Z" transform="translate(-163.28 -38.67)"/><path class="cls-2" d="M514.46,225.52c.32,3.69-3.14,6.89-7.73,7.14s-8.58-2.52-8.9-6.21,3.14-6.89,7.73-7.14,8.58,2.52,8.9,6.21Z" transform="translate(-163.28 -38.67)"/><path class="cls-2" d="M487,227.34c.56,3.67-2.69,7-7.26,7.46s-8.73-2.16-9.29-5.83,2.69-7,7.26-7.46,8.73,2.16,9.29,5.83Z" transform="translate(-163.28 -38.67)"/><path class="cls-2" d="M459.72,230.21c.72,3.65-2.38,7.08-6.93,7.66s-8.82-1.91-9.54-5.56,2.38-7.08,6.93-7.66,8.82,1.91,9.54,5.56Z" transform="translate(-163.28 -38.67)"/><path class="cls-2" d="M432.59,234c1,3.62-1.92,7.17-6.42,7.94s-8.93-1.54-9.89-5.16,1.92-7.17,6.42-7.94,8.93,1.54,9.89,5.16Z" transform="translate(-163.28 -38.67)"/><path class="cls-2" d="M405.71,238.75c1.19,3.57-1.45,7.24-5.89,8.2s-9-1.16-10.21-4.73,1.45-7.24,5.89-8.2,9,1.16,10.21,4.73Z" transform="translate(-163.28 -38.67)"/><path class="cls-2" d="M379.18,244.69c1.42,3.52-1,7.29-5.35,8.43s-9.08-.78-10.5-4.3,1-7.29,5.35-8.43,9.08.78,10.5,4.3Z" transform="translate(-163.28 -38.67)"/><path class="cls-2" d="M353.15,251.87c1.65,3.45-.5,7.32-4.79,8.65s-9.12-.4-10.77-3.85.5-7.32,4.8-8.65,9.12.4,10.77,3.85Z" transform="translate(-163.28 -38.67)"/><path class="cls-2" d="M327.65,260.23c2,3.32.3,7.33-3.84,9s-9.13.24-11.15-3.08-.3-7.33,3.84-8.95,9.13-.24,11.15,3.08Z" transform="translate(-163.28 -38.67)"/><path class="cls-2" d="M303,270.15c2.37,3.17,1.09,7.28-2.85,9.19s-9.07.88-11.44-2.29-1.09-7.28,2.85-9.18,9.07-.88,11.44,2.29Z" transform="translate(-163.28 -38.67)"/><path class="cls-2" d="M279.73,281.9c2.71,3,1.88,7.18-1.84,9.35s-8.94,1.51-11.64-1.48-1.88-7.18,1.84-9.35,8.94-1.51,11.64,1.48Z" transform="translate(-163.28 -38.67)"/><path class="cls-2" d="M257.95,295.44a5.81,5.81,0,0,1,0,9.47,9.84,9.84,0,0,1-11.79,0,5.81,5.81,0,0,1,0-9.47,9.84,9.84,0,0,1,11.79,0Z" transform="translate(-163.28 -38.67)"/><path class="cls-2" d="M239,311.52c3.77,2.12,4.69,6.29,2,9.32s-7.84,3.76-11.61,1.64-4.69-6.29-2-9.32,7.84-3.76,11.61-1.64Z" transform="translate(-163.28 -38.67)"/><path class="cls-2" d="M224.21,330.19c4.35,1.2,6.67,5,5.17,8.51s-6.24,5.35-10.6,4.15-6.67-5-5.17-8.51,6.24-5.35,10.6-4.15Z" transform="translate(-163.28 -38.67)"/><path class="cls-2" d="M569.51,492c0,3.7-3.73,6.69-8.33,6.69s-8.34-3-8.34-6.69,3.73-6.69,8.34-6.69,8.33,3,8.33,6.69Z" transform="translate(-163.28 -38.67)"/><path class="cls-2" d="M542,491.86c-.16,3.69-4,6.59-8.62,6.46s-8.2-3.23-8-6.92,4-6.58,8.62-6.46,8.2,3.23,8,6.92Z" transform="translate(-163.28 -38.67)"/><path class="cls-2" d="M514.47,490.83c-.32,3.69-4.3,6.47-8.9,6.21s-8.06-3.46-7.74-7.14,4.3-6.47,8.9-6.21,8.05,3.46,7.73,7.14Z" transform="translate(-163.28 -38.67)"/><path class="cls-2" d="M487,489c-.56,3.67-4.72,6.28-9.29,5.83s-7.82-3.79-7.26-7.46,4.72-6.28,9.29-5.83,7.82,3.79,7.26,7.46Z" transform="translate(-163.28 -38.67)"/><path class="cls-2" d="M459.73,486.13c-.72,3.65-5,6.14-9.54,5.56s-7.65-4-6.93-7.66,5-6.14,9.54-5.56,7.65,4,6.93,7.66Z" transform="translate(-163.28 -38.67)"/><path class="cls-2" d="M432.59,482.39c-1,3.62-5.38,5.92-9.89,5.16s-7.38-4.32-6.42-7.94,5.38-5.92,9.89-5.16,7.38,4.32,6.42,7.94Z" transform="translate(-163.28 -38.67)"/><path class="cls-2" d="M405.71,477.6c-1.19,3.57-5.76,5.69-10.21,4.73s-7.09-4.63-5.89-8.2,5.76-5.69,10.21-4.73,7.09,4.63,5.89,8.2Z" transform="translate(-163.28 -38.67)"/><path class="cls-2" d="M379.19,471.66c-1.42,3.52-6.12,5.44-10.5,4.3s-6.78-4.92-5.35-8.43,6.12-5.44,10.5-4.3,6.77,4.92,5.35,8.43Z" transform="translate(-163.28 -38.67)"/><path class="cls-2" d="M353.15,464.47c-1.65,3.45-6.47,5.18-10.77,3.85s-6.45-5.2-4.8-8.65,6.47-5.17,10.77-3.85,6.44,5.2,4.79,8.65Z" transform="translate(-163.28 -38.67)"/><path class="cls-2" d="M327.65,456.12c-2,3.32-7,4.7-11.15,3.08s-5.86-5.63-3.84-9,7-4.7,11.15-3.08,5.86,5.63,3.84,9Z" transform="translate(-163.28 -38.67)"/><path class="cls-2" d="M303,446.19c-2.37,3.17-7.49,4.19-11.44,2.29s-5.22-6-2.85-9.19,7.49-4.19,11.44-2.29,5.22,6,2.85,9.19Z" transform="translate(-163.28 -38.67)"/><path class="cls-2" d="M279.72,434.44c-2.71,3-7.92,3.65-11.64,1.48s-4.55-6.36-1.84-9.35,7.92-3.65,11.64-1.48,4.55,6.36,1.84,9.35Z" transform="translate(-163.28 -38.67)"/><path class="cls-2" d="M257.94,420.9a9.84,9.84,0,0,1-11.79,0,5.81,5.81,0,0,1,0-9.47,9.84,9.84,0,0,1,11.79,0,5.81,5.81,0,0,1,0,9.47Z" transform="translate(-163.28 -38.67)"/><path class="cls-2" d="M239,404.83c-3.77,2.12-9,1.39-11.61-1.64s-1.72-7.2,2-9.32,9-1.39,11.61,1.64,1.72,7.2-2,9.32Z" transform="translate(-163.28 -38.67)"/><path class="cls-2" d="M224.2,386.16c-4.35,1.2-9.1-.65-10.6-4.15s.82-7.3,5.17-8.51,9.1.65,10.6,4.15-.82,7.3-5.17,8.51Z" transform="translate(-163.28 -38.67)"/><path class="cls-2" d="M216.91,364.86c-4.6.13-8.46-2.76-8.62-6.46s3.44-6.79,8-6.92,8.46,2.76,8.62,6.46-3.44,6.79-8,6.92Z" transform="translate(-163.28 -38.67)"/><path class="cls-2" d="M906,351.48c4.6.13,8.2,3.23,8,6.92s-4,6.59-8.62,6.46-8.2-3.23-8-6.92,4-6.58,8.62-6.46Z" transform="translate(-163.28 -38.67)"/><path class="cls-2" d="M903.57,373.5c4.35,1.2,6.67,5,5.17,8.51s-6.24,5.35-10.6,4.15-6.67-5-5.17-8.51,6.24-5.35,10.6-4.15Z" transform="translate(-163.28 -38.67)"/><path class="cls-2" d="M892.87,393.86c3.77,2.12,4.69,6.29,2,9.32s-7.84,3.76-11.61,1.64-4.69-6.29-2-9.32,7.84-3.76,11.61-1.64Z" transform="translate(-163.28 -38.67)"/><path class="cls-2" d="M876.18,411.44a5.81,5.81,0,0,1,0,9.47,9.84,9.84,0,0,1-11.79,0,5.81,5.81,0,0,1,0-9.47,9.84,9.84,0,0,1,11.79,0Z" transform="translate(-163.28 -38.67)"/><path class="cls-2" d="M856.1,426.57c2.71,3,1.88,7.18-1.84,9.35s-8.94,1.51-11.64-1.48-1.88-7.18,1.84-9.35,8.94-1.51,11.64,1.48Z" transform="translate(-163.28 -38.67)"/><path class="cls-2" d="M833.58,439.3c2.37,3.17,1.1,7.28-2.85,9.19s-9.07.88-11.44-2.29-1.09-7.28,2.85-9.19,9.07-.88,11.44,2.29Z" transform="translate(-163.28 -38.67)"/><path class="cls-2" d="M809.67,450.25c2,3.32.3,7.33-3.84,9s-9.13.24-11.15-3.08-.3-7.33,3.84-9,9.13-.24,11.15,3.08Z" transform="translate(-163.28 -38.67)"/><path class="cls-2" d="M784.75,459.67c1.65,3.45-.5,7.32-4.79,8.65s-9.12-.4-10.77-3.85.5-7.32,4.79-8.65,9.12.4,10.77,3.85Z" transform="translate(-163.28 -38.67)"/><path class="cls-2" d="M759,467.52c1.42,3.52-1,7.29-5.35,8.43s-9.08-.78-10.5-4.3,1-7.29,5.35-8.43,9.08.78,10.5,4.3Z" transform="translate(-163.28 -38.67)"/><path class="cls-2" d="M732.73,474.13c1.19,3.57-1.45,7.24-5.89,8.2s-9-1.16-10.21-4.73,1.45-7.24,5.89-8.2,9,1.16,10.21,4.73Z" transform="translate(-163.28 -38.67)"/><path class="cls-2" d="M706.05,479.61c1,3.62-1.92,7.17-6.42,7.94s-8.93-1.54-9.89-5.16,1.92-7.17,6.42-7.94,8.93,1.54,9.89,5.16Z" transform="translate(-163.28 -38.67)"/><path class="cls-2" d="M679.07,484c.72,3.65-2.38,7.08-6.93,7.66s-8.82-1.91-9.54-5.56,2.38-7.08,6.93-7.66,8.82,1.91,9.54,5.56Z" transform="translate(-163.28 -38.67)"/><path class="cls-2" d="M651.85,487.38c.56,3.67-2.69,7-7.26,7.46s-8.73-2.16-9.29-5.83,2.69-7,7.26-7.46,8.73,2.16,9.29,5.83Z" transform="translate(-163.28 -38.67)"/><path class="cls-2" d="M624.49,489.89c.32,3.69-3.14,6.89-7.73,7.14s-8.58-2.52-8.9-6.21,3.14-6.89,7.74-7.14,8.57,2.52,8.9,6.21Z" transform="translate(-163.28 -38.67)"/><path class="cls-2" d="M597,491.39c.16,3.69-3.44,6.79-8,6.92s-8.46-2.76-8.62-6.46,3.44-6.79,8-6.92,8.46,2.76,8.62,6.46Z" transform="translate(-163.28 -38.67)"/><path class="cls-2" d="M552.84,224.3c0-3.7,3.73-6.69,8.34-6.69s8.33,3,8.33,6.69-3.73,6.69-8.33,6.69-8.34-3-8.34-6.69Z" transform="translate(-163.28 -38.67)"/><path class="cls-2" d="M580.37,224.49c.16-3.69,4-6.59,8.62-6.46s8.2,3.23,8,6.92-4,6.58-8.62,6.46-8.2-3.23-8-6.92Z" transform="translate(-163.28 -38.67)"/><path class="cls-2" d="M607.87,225.52c.32-3.69,4.3-6.47,8.9-6.21s8.05,3.46,7.73,7.14-4.3,6.47-8.9,6.21-8.06-3.46-7.73-7.14Z" transform="translate(-163.28 -38.67)"/><path class="cls-2" d="M635.31,227.34c.56-3.67,4.72-6.28,9.29-5.83s7.82,3.79,7.26,7.46-4.72,6.28-9.29,5.83-7.82-3.79-7.26-7.46Z" transform="translate(-163.28 -38.67)"/><path class="cls-2" d="M662.61,230.21c.72-3.65,5-6.14,9.54-5.56s7.65,4,6.93,7.66-5,6.14-9.54,5.56-7.65-4-6.93-7.66Z" transform="translate(-163.28 -38.67)"/><path class="cls-2" d="M689.75,234c1-3.62,5.38-5.92,9.89-5.16s7.38,4.32,6.42,7.94-5.38,5.92-9.89,5.16-7.38-4.32-6.42-7.94Z" transform="translate(-163.28 -38.67)"/><path class="cls-2" d="M716.63,238.75c1.19-3.57,5.76-5.69,10.21-4.73s7.08,4.63,5.89,8.2-5.76,5.69-10.21,4.73-7.09-4.63-5.89-8.2Z" transform="translate(-163.28 -38.67)"/><path class="cls-2" d="M743.15,244.69c1.42-3.52,6.13-5.44,10.5-4.3s6.77,4.92,5.35,8.43-6.12,5.44-10.5,4.3-6.78-4.92-5.35-8.43Z" transform="translate(-163.28 -38.67)"/><path class="cls-2" d="M769.19,251.87c1.65-3.45,6.47-5.18,10.77-3.85s6.44,5.2,4.79,8.65-6.47,5.18-10.77,3.85-6.45-5.2-4.8-8.65Z" transform="translate(-163.28 -38.67)"/><path class="cls-2" d="M794.68,260.23c2-3.32,7-4.7,11.15-3.08s5.86,5.63,3.84,8.95-7,4.7-11.15,3.08-5.86-5.63-3.84-9Z" transform="translate(-163.28 -38.67)"/><path class="cls-2" d="M819.29,270.15c2.37-3.17,7.49-4.19,11.44-2.29s5.22,6,2.85,9.18-7.49,4.19-11.44,2.29-5.22-6-2.85-9.19Z" transform="translate(-163.28 -38.67)"/><path class="cls-2" d="M842.61,281.9c2.71-3,7.92-3.65,11.64-1.48s4.55,6.36,1.84,9.35-7.92,3.65-11.64,1.48-4.55-6.36-1.84-9.35Z" transform="translate(-163.28 -38.67)"/><path class="cls-2" d="M864.39,295.44a9.84,9.84,0,0,1,11.79,0,5.81,5.81,0,0,1,0,9.47,9.84,9.84,0,0,1-11.79,0,5.81,5.81,0,0,1,0-9.47Z" transform="translate(-163.28 -38.67)"/><path class="cls-2" d="M883.3,311.52c3.77-2.12,9-1.38,11.61,1.64s1.72,7.2-2,9.32-9,1.38-11.61-1.64-1.72-7.2,2-9.32Z" transform="translate(-163.28 -38.67)"/><path class="cls-2" d="M898.13,330.19c4.35-1.2,9.1.65,10.6,4.15s-.81,7.3-5.17,8.51-9.1-.65-10.6-4.15.81-7.3,5.17-8.51Z" transform="translate(-163.28 -38.67)"/><path class="cls-1" d="M293.72,404.81h36c15.05,0,25.65-12.9,25.65-23.51,0-10.13-5.94-16.16-12.78-19.15L339.87,361l2.65-1.3c6.15-3,10.12-11.27,10.12-16.92,0-7.14-5.35-17-17.35-20.21l.44-1a32.16,32.16,0,0,1,7.59,3.12,36.09,36.09,0,0,1,3.95,2.63,80.47,80.47,0,0,1,6.56,5.23,54.93,54.93,0,0,1,5,5.06A21.19,21.19,0,0,1,364,350.75c0,5.6-3.72,13.82-9.92,17.39l-.41.24,4.71,3.78a20.54,20.54,0,0,1,8.37,17.14c0,11-10.93,24.6-27,24.6H301.49l-9.56-7.65,1.79-1.43Zm29.11-10.74H311.48V366.26h12.76c5.57,0,10.2,4.09,12,9.31a9.33,9.33,0,0,0-2-.22h-11.4v18.73Zm0-38.6q-.65,0-1.33,0h-10V332.24h10c6,0,11.45,3.27,12.56,9.32a14.29,14.29,0,0,0-2.57-.23h-8.66v14.15Z" transform="translate(-163.28 -38.67)"/><path class="cls-1" d="M410.92,406.87c16.81,0,31.13-11.21,31.13-24.85V322l1.79-1.44,9.56,7.65V390c0,14.26-14.95,25.94-32.49,25.94-7.56,0-15.45-2.52-23.29-7.22-5.54-3.32-11-9-11.87-10.49-.31-.53-1.63-2.29-3.07-4.65l.7-.15c5.28,7.95,15.81,13.42,27.55,13.42Zm-11-86.31,9.56,7.65V390a7.5,7.5,0,0,0,.27,2c-6.9-.44-11.61-4.84-11.61-10V322l1.79-1.44Z" transform="translate(-163.28 -38.67)"/><path class="cls-1" d="M474.41,397.66c-.33-.56-1.74-2.43-3.21-4.91l.72-.19c5.13,8.42,16.1,14.31,28.29,14.31,21.24,0,30.92-9.89,30.92-24.86v-19.2l1.79-1.44,9.56,7.65v21c0,15.5-10.21,25.94-32.27,25.94-8,0-15.61-2.48-23.51-7.22-5.79-3.47-11.43-9.62-12.29-11.08Zm38.38-15.52-9.56-7.65,1.79-1.44H515.5v9.09ZM487.24,382V344.3c0-6,5.26-11.06,12.82-11.6,8.33-.59,14.33,3.75,15.31,9.82a14.11,14.11,0,0,0-5.2-.74c-6.8.48-11.58,5.13-11.58,10.51V390a7.83,7.83,0,0,0,.61,3c-7-.85-12-5.81-12-11Zm36.68-57.57a51.39,51.39,0,0,1,8.51,6.33,41.57,41.57,0,0,1,6,7,25.46,25.46,0,0,1,4,14.51v1.44H523.88l-9.56-7.65,1.79-1.44h15v-.35c0-11.48-5.69-20-18.06-23.34l.31-1.05a39,39,0,0,1,10.53,4.54Z" transform="translate(-163.28 -38.67)"/><path class="cls-1" d="M592,376.69H578.33l11.24-39.93c.7-2.45,2.91-2.38,3.5,0l4.79,19L592,376.69Zm17.44,29.56,1.79-1.43h18l-23.74-82.88,1.34-1.35,9.56,7.66,25.43,85.66H618.95l-9.56-7.65ZM586,398l-4.47,15.88H559.24l-9.52-7.62,2.35-1.47h18.33l4.47-15.88h31.36l2.3,9.09Z" transform="translate(-163.28 -38.67)"/><path class="cls-1" d="M658.43,406.41l1.79-1.44H678V334.51h21.95V322l1.79-1.44,9.56,7.65V343.6H689.33v70.47H668l-9.56-7.65ZM646,343.6l-9.56-7.65,1.79-1.44h21.34v9.09Z" transform="translate(-163.28 -38.67)"/><path class="cls-1" d="M726.35,343.6l-9.56-7.65,1.79-1.44h21.34v9.09Zm55.68-23,9.56,7.65V343.6H769.64v70.47H748.3l-9.56-7.65,1.79-1.44h17.76V334.51h21.95V322l1.79-1.44Z" transform="translate(-163.28 -38.67)"/><polygon class="cls-1" points="657.59 281.88 667.15 289.54 667.15 375.23 645.81 375.23 636.25 367.57 638.04 366.14 655.8 366.14 655.8 283.32 657.59 281.88 657.59 281.88"/><path class="cls-4" d="M354.67,342.75A22,22,0,0,0,348.21,328c1.55,1.15,3.67,2.77,5.61,4.54a54.93,54.93,0,0,1,5,5.06A21.19,21.19,0,0,1,364,350.75c0,5.6-3.72,13.82-9.92,17.39l-.41.24,4.71,3.78a20.54,20.54,0,0,1,8.37,17.14c0,11-10.93,24.6-27,24.6H301.49l-9.3-7.45h37.55c16.59,0,27.69-14,27.69-25.15,0-10.56-6.15-17.09-13.48-20.42,6.76-3.54,10.73-12.26,10.73-18.13Zm-31.85,49.69h-9.31V367.9h10.72c4.09,0,8.05,3.08,9.8,7.45H322.83v17.09Zm-1.33-58.56c4.78,0,9.31,2.47,10.45,7.46h-9.12v12.51q-.64,0-1.33,0h-8v-20Z" transform="translate(-163.28 -38.67)"/><path class="cls-4" d="M409.51,390v.33c-5.6-.52-9.31-4.12-9.31-8.33V320.76l9.31,7.45V390Zm-21.07,11.33a38,38,0,0,0,22.48,7.15c17.91,0,33.17-11.92,33.17-26.49V320.76l9.31,7.45V390c0,14.26-14.95,25.94-32.49,25.94-7.56,0-15.45-2.52-23.29-7.22a50.61,50.61,0,0,1-9.18-7.39Z" transform="translate(-163.28 -38.67)"/><path class="cls-4" d="M477.51,401.27a38.35,38.35,0,0,0,22.71,7.25c22.48,0,33-10.72,33-26.5V361.58l9.31,7.45v21c0,15.5-10.21,25.94-32.27,25.94-8,0-15.61-2.48-23.51-7.22a49.59,49.59,0,0,1-9.19-7.47Zm26-26.58h10v7.45h-.67l-9.3-7.45Zm-3.25-40.36c6.79-.48,11.76,2.79,13,7.65a12,12,0,0,0-3-.19c-6.8.48-11.58,5.13-11.58,10.51V390a7.45,7.45,0,0,0,.1,1.24c-5.59-1-9.41-5.06-9.41-9.24V344.3c0-5.19,4.54-9.51,11-10Zm14.34,12h18.59v-2c0-7.73-2.52-14.25-7.74-18.89a47.73,47.73,0,0,1,7,5.38,41.57,41.57,0,0,1,6,7,25.46,25.46,0,0,1,4,14.51v1.44H523.88l-9.3-7.45Z" transform="translate(-163.28 -38.67)"/><path class="cls-4" d="M592.42,375.05H580.88l10.42-37,5.46,21.61-4.34,15.41Zm17.22,31.4h22.05L607.2,321l9.08,7.27,25.43,85.66H618.95l-9.31-7.45Zm-59.7,0H572l4.47-15.88h28.06l1.88,7.45H586l-4.47,15.88H559.24l-9.3-7.45Z" transform="translate(-163.28 -38.67)"/><path class="cls-4" d="M658.68,406.61H680V336.14H702V320.76l9.31,7.45V343.6H689.33v70.47H668l-9.3-7.45Zm-21.95-70.47h20.83v7.45H646l-9.3-7.45Z" transform="translate(-163.28 -38.67)"/><path class="cls-4" d="M717,336.14h20.83v7.45H726.35l-9.3-7.45ZM739,406.61h21.34V336.14h21.95V320.76l9.31,7.45V343.6H769.64v70.47H748.3L739,406.61Z" transform="translate(-163.28 -38.67)"/><polygon class="cls-4" points="636.51 367.78 657.84 367.78 657.84 282.08 667.15 289.54 667.15 375.23 645.81 375.23 636.51 367.78 636.51 367.78"/><path class="cls-3" d="M291.32,406.25l2.22-1.78h36.19c14.73,0,25.22-12.67,25.22-23.17,0-10-5.85-15.91-12.56-18.85L339,361l3.29-1.61c6-2.92,9.91-11,9.91-16.62,0-7.13-5.41-17-17.47-20l.72-1.64a33.08,33.08,0,0,1,12.1,5.93,81.1,81.1,0,0,1,6.6,5.26,55.4,55.4,0,0,1,5,5.1,21.49,21.49,0,0,1,5.26,13.35c0,5.67-3.75,14-10.1,17.68l4.34,3.49a20.85,20.85,0,0,1,8.5,17.39c0,11.08-11,24.95-27.43,24.95H301.31l-10-8Zm31.94-30.55v18.73H311V365.91h13.19c6.08,0,11,4.61,12.59,10.18a9,9,0,0,0-2.61-.4Zm0-34V355.8c-.57,0-1.15.07-1.76.07H311v-24H321.5c6.41,0,12.15,3.59,13.07,10.13a13.54,13.54,0,0,0-3.08-.35Z" transform="translate(-163.28 -38.67)"/><path class="cls-3" d="M383.59,393c5.15,8,15.64,13.48,27.33,13.48,16.57,0,30.7-11.06,30.7-24.5V321.85l2.22-1.78,10,8v62c0,14.45-15.15,26.29-32.92,26.29-7.68,0-15.66-2.56-23.55-7.29-5.58-3.35-11.11-9.11-12-10.62-.33-.56-1.78-2.48-3.3-5l1.53-.33Zm14.14-71.19,2.22-1.78,10,8v62a7.22,7.22,0,0,0,.4,2.37c-7.45-.23-12.61-4.89-12.61-10.37V321.85Z" transform="translate(-163.28 -38.67)"/><path class="cls-3" d="M598.29,355.76l-6,21.28H577.79l11.36-40.35c.81-2.83,3.67-2.72,4.34,0l4.81,19Zm20.48,58.49-10-8,2.22-1.78h17.59l-23.67-82.62,1.77-1.78,10,8,25.58,86.18Zm-9.71-15.88H586.29l-4.47,15.88H559.06l-10-8,2.86-1.78h18.13l4.47-15.88h32.05l2.47,9.78Z" transform="translate(-163.28 -38.67)"/><path class="cls-3" d="M667.81,414.41l-10-8,2.22-1.78h17.51V334.16H699.5V321.85l2.22-1.78,10,8v15.88H689.76v70.47ZM660,343.94H645.86l-10-8,2.22-1.78H660v9.78Z" transform="translate(-163.28 -38.67)"/><path class="cls-3" d="M740.35,343.94H726.18l-10-8,2.22-1.78h21.95v9.78Zm39.46-22.09,2.22-1.78,10,8v15.88H770.07v70.47H748.12l-10-8,2.22-1.78h17.51V334.16h21.95V321.85Z" transform="translate(-163.28 -38.67)"/><polygon class="cls-3" points="655.37 283.18 657.59 281.39 667.58 289.4 667.58 375.58 645.63 375.58 635.64 367.57 637.86 365.79 655.37 365.79 655.37 283.18 655.37 283.18"/><path class="cls-3" d="M486.44,409c-5.84-3.5-11.53-9.69-12.42-11.2-.35-.59-1.88-2.61-3.41-5.27l1.55-.4c5,8.45,15.92,14.39,28.06,14.39,21,0,30.49-9.71,30.49-24.51V362.67l2.22-1.78,10,8V390c0,15.67-10.37,26.29-32.7,26.29-8.11,0-15.82-2.52-23.76-7.29Zm29.5-26.53h-3.32l-10-8,2.22-1.78h11.09v9.78Zm-16.1,10.93c-7.64-.62-13-5.89-13-11.39V344.3c0-6.13,5.41-11.39,13.22-11.94,8.83-.62,15.14,4.16,15.85,10.7a14.61,14.61,0,0,0-5.67-.93c-6.56.46-11.19,4.95-11.19,10.17V390a7.67,7.67,0,0,0,.82,3.39Zm13.24-74a39.47,39.47,0,0,1,11.11,4.71,51.7,51.7,0,0,1,8.57,6.38,42,42,0,0,1,6.06,7.06,25.76,25.76,0,0,1,4.1,14.68v1.79H523.7l-10-8,2.22-1.79H530.7c0-11.5-5.74-19.92-18.14-23.11l.51-1.73Z" transform="translate(-163.28 -38.67)"/><path class="cls-1" d="M313.27,367.69v24.95h11c7,0,11-6.14,11-12.47,0-6.8-5.29-12.47-11-12.47Zm0-34v20.41h8.23c7,0,11-3.88,11-10.21,0-6.8-5.29-10.21-11-10.21Zm30.18,27.21c7.41,3.24,13.72,9.75,13.72,20.41,0,11.08-11,24.95-27.43,24.95H291.32V320.07H327c19.2,0,27.43,13.61,27.43,22.68,0,5.93-4.1,14.78-11,18.14Z" transform="translate(-163.28 -38.67)"/><path class="cls-1" d="M421.89,382V320.07h21.95v62c0,14.45-15.15,26.29-32.92,26.29S378,396.47,378,382v-62h21.95v62c0,4.66,4.45,8.59,11,8.59s11-3.94,11-8.59Z" transform="translate(-163.28 -38.67)"/><path class="cls-1" d="M513.71,382v-7.53H502.62v-13.6h30.29V382c0,15.67-10.37,26.29-32.7,26.29-17.77,0-33.14-11.84-33.14-26.29V344.3c0-14.45,15.37-26.29,33.14-26.29,22.33,0,32.7,10.61,32.7,26.29v1.79h-19.2V344.3c0-6.21-5.52-10.73-13.5-10.17C493.65,334.59,489,339,489,344.3V382c0,4.66,4.63,9.17,11.19,9.63,8,.56,13.5-3.43,13.5-9.64Z" transform="translate(-163.28 -38.67)"/><path class="cls-1" d="M601,375.25l-9.64-38.18-10.75,38.18Zm-51.88,31,27.43-86.18h30.18l24.69,86.18h-22.6l-4-15.88H576.31l-4.47,15.88Z" transform="translate(-163.28 -38.67)"/><polygon class="cls-1" points="516.48 367.74 494.54 367.74 494.54 297.27 472.59 297.27 472.59 281.39 538.43 281.39 538.43 297.27 516.48 297.27 516.48 367.74 516.48 367.74"/><polygon class="cls-1" points="596.8 367.74 574.85 367.74 574.85 297.27 552.9 297.27 552.9 281.39 618.75 281.39 618.75 297.27 596.8 297.27 596.8 367.74 596.8 367.74"/><polygon class="cls-1" points="635.64 281.39 657.59 281.39 657.59 367.57 635.64 367.57 635.64 281.39 635.64 281.39"/><path class="cls-4" d="M567.33,281.83v14.48h17.84c5.63,0,9-3.26,9-7.24s-3.39-7.24-9-7.24Zm0-22.45v12.9h17.84c5,0,8-2.9,8-6.45s-3-6.45-8-6.45Zm-34.44,22.79v-13.3h9.92v3.41H554v-12.9H527.16v4.33h-9.92v-12.3h67.93c10.46,0,18.94,6.81,18.94,15.21a13.59,13.59,0,0,1-4.69,10l-.26.24.28.23a14.51,14.51,0,0,1,5.66,11.17c0,8.83-8.92,16-19.92,16H517.24V292h9.93v4.33H554V281.83H542.8v3.41h-9.92v-3.07Z" transform="translate(-163.28 -38.67)"/><path class="cls-3" d="M585.16,296c5.37,0,8.58-3.09,8.58-6.89s-3.21-6.89-8.58-6.89H567.76V296Zm0-24c4.73,0,7.6-2.73,7.6-6.1s-2.88-6.1-7.6-6.1H567.76v12.21Zm-41.93,10.24v3.41H532.45V268.53h10.79v3.41h10.3V259.73H527.59v4.33H516.8v-13h68.36c10.7,0,19.37,7,19.37,15.55a13.9,13.9,0,0,1-4.8,10.25,14.82,14.82,0,0,1,5.78,11.41c0,9-9.11,16.34-20.35,16.34H516.81v-13h10.79V296h25.94V282.18Z" transform="translate(-163.28 -38.67)"/></svg>