<?xml version="1.0" encoding="iso-8859-1"?>
<!-- Generator: Adobe Illustrator 19.1.0, SVG Export Plug-In . SVG Version: 6.00 Build 0)  -->
<!DOCTYPE svg PUBLIC "-//W3C//DTD SVG 1.1//EN" "http://www.w3.org/Graphics/SVG/1.1/DTD/svg11.dtd">
<svg version="1.1" xmlns="http://www.w3.org/2000/svg" xmlns:xlink="http://www.w3.org/1999/xlink" x="0px" y="0px"
	 viewBox="0 0 27.191 43.635" style="enable-background:new 0 0 27.191 43.635;" xml:space="preserve">
<g id="Ferrari">
	<g>
		<path style="fill:#FFFFFF;" d="M25.825,0c0.755,0,1.366,0.604,1.366,1.351v40.933c0,0.747-0.611,1.351-1.366,1.351H1.365
			C0.611,43.635,0,43.031,0,42.284V1.351C0,0.604,0.611,0,1.365,0H25.825"/>
		<path style="fill:#FFF200;" d="M0.531,6.068h26.147v36.134c0,0.301-0.051,0.486-0.254,0.688c-0.22,0.219-0.413,0.238-0.761,0.238
			L1.312,43.131c-0.192,0-0.339-0.061-0.498-0.195c-0.197-0.169-0.283-0.379-0.283-0.601L0.531,6.068"/>
		<rect x="0.531" y="4.25" style="fill:#ED1C24;" width="26.147" height="1.856"/>
		<rect x="0.531" y="2.39" style="fill:#FFFFFF;" width="26.147" height="1.856"/>
		<path style="fill:#009A4E;" d="M1.27,0.502h24.652c0.395,0,0.759,0.381,0.759,0.752v1.185H0.531l0.002-1.042V1.31
			C0.533,0.889,0.857,0.543,1.27,0.502"/>
		<path d="M25.825,0c0.755,0,1.366,0.604,1.366,1.351v40.933c0,0.747-0.611,1.351-1.366,1.351H1.365C0.611,43.635,0,43.031,0,42.284
			V1.351C0,0.604,0.611,0,1.365,0H25.825 M25.825,0.539H1.365c-0.453,0-0.82,0.364-0.82,0.812v40.933c0,0.448,0.367,0.81,0.82,0.81
			h24.46c0.453,0,0.82-0.362,0.82-0.81V1.351C26.645,0.904,26.278,0.539,25.825,0.539z"/>
		<path d="M13.114,8.361c0,0-0.017,0.158-0.052,0.25c-0.035,0.085-0.128,0.143-0.122,0.2c0.006,0.056,0.066,0.124,0.159,0.171
			C13.19,9.03,13.227,9.067,13.32,9.09c0.087,0.021,0.197,0.085,0.228,0.012c0.031-0.074-0.016-0.164-0.068-0.25
			c-0.092-0.15-0.138-0.187-0.273-0.393C13.178,8.415,13.155,8.367,13.114,8.361"/>
		<path d="M12.43,24.595c0.009-0.027,0.225,0.11,0.338,0.176c0.236,0.142,0.343,0.226,0.552,0.382
			c0.166,0.126,0.246,0.191,0.412,0.334c0.204,0.176,0.314,0.326,0.369,0.292c0.079-0.095-0.13-0.374-0.315-0.525
			c-0.18-0.149-0.366-0.27-0.51-0.364c-0.185-0.123-0.202-0.152-0.478-0.337c-0.298-0.199-0.554-0.45-0.554-0.45l-0.289-0.227
			L11.5,23.494l-0.503-0.464l-0.38-0.423c0,0-0.296-0.362-0.343-0.431c-0.048-0.069-0.187-0.293-0.302-0.482
			c-0.103-0.17-0.302-0.434-0.32-0.456c-0.108-0.13-0.353-0.078-0.638-0.246c-0.346-0.205-0.43-0.392-0.43-0.392
			s-0.013-0.027-0.026-0.042c-0.013-0.015-0.039-0.034-0.039-0.034l-0.181-0.126l-0.104-0.068c0,0-0.079-0.065-0.178-0.108
			c-0.1-0.044-0.321-0.173-0.321-0.173l-0.396-0.253c0,0-0.155-0.125-0.206-0.166c-0.052-0.04-0.15-0.096-0.15-0.096
			S6.919,19.502,6.9,19.501c-0.019-0.001-0.101-0.009-0.101-0.009s-0.076-0.02-0.154,0.071c-0.078,0.092-0.059,0.043,0.068,0.558
			c0.05,0.203,0.045,0.918,0.099,1.136c0.068,0.28,0.265,0.641,0.285,0.684c0.02,0.042,0.034,0.199,0.034,0.199
			s-0.008,0.127,0.005,0.207c0.06,0.37,0.6,0.126,0.72,0.633c0.117,0.5-0.07,0.999-0.07,0.999s-0.116,0.248-0.28,0.287
			c-0.164,0.038-0.418-0.325-0.602-0.619c-0.181-0.289-0.33-0.668-0.377-0.788c-0.048-0.12-0.073-0.147-0.128-0.234
			c-0.081-0.13-0.147-0.106-0.238-0.312c-0.092-0.205-0.01-0.288-0.051-0.467c-0.024-0.099-0.045-0.11-0.076-0.252
			c-0.03-0.141-0.07-0.59-0.07-0.59l-0.057-0.418c0,0-0.02-0.191-0.046-0.31c-0.091-0.418-0.123-0.822-0.123-0.822l-0.017-0.166
			l-0.006-0.172c0,0-0.005-0.083,0.015-0.167c0.02-0.085,0.061-0.155,0.061-0.155s0.084-0.141,0.099-0.177
			c0.014-0.034,0.186-0.234,0.186-0.234s0.09-0.075,0.238-0.165c0.148-0.09,0.28-0.084,0.28-0.084s0.039-0.004,0.301,0.029
			c0.261,0.032,0.799,0.175,0.935,0.21c0.134,0.036,0.294,0.092,0.398,0.15c0.299,0.162,0.389,0.094,0.152-0.093
			c-0.16-0.125-0.205-0.181-0.334-0.299c-0.109-0.1-0.194-0.167-0.276-0.259c-0.081-0.094-0.313-0.436-0.313-0.436l-0.145-0.214
			c0,0-0.078-0.088-0.09-0.094c-0.012-0.007-0.051-0.037-0.051-0.037s-0.096,0.005-0.195-0.014c-0.1-0.02-0.147,0.12-0.147,0.12
			s-0.215,0.401-0.434,0.647c-0.354,0.399-0.608,0.67-0.739,0.883c-0.183,0.294-0.142,0.617-0.236,0.766
			c-0.055,0.087-0.085,0.1-0.115,0.177c-0.092,0.232,0.241,0.359,0.165,0.615c-0.122,0.407-1.075,0.809-1.201,0.742
			c-0.131-0.069-0.024-0.619,0.02-0.797c0.045-0.179,0.179-0.443,0.191-0.456c0.012-0.013,0.044-0.075,0.054-0.128
			c0.01-0.052,0.014-0.172,0.02-0.238c0.006-0.067,0.034-0.172,0.034-0.172s0.004-0.023,0.088-0.205
			c0.085-0.184,0.395-0.612,0.618-1.02c0.147-0.266,0.208-0.428,0.354-0.695c0.135-0.245,0.367-0.619,0.367-0.619
			s0.098-0.191,0.144-0.261c0.046-0.073,0.144-0.21,0.236-0.346c0.092-0.135,0.115-0.236,0.235-0.348
			c0.1-0.093,0.167-0.142,0.298-0.184c0.194-0.064,0.326-0.03,0.524,0.025c0.205,0.056,0.346,0.15,0.481,0.261
			c0.134,0.112,0.233,0.236,0.233,0.236l0.065,0.096l0.04,0.024l0.125,0.08l0.285,0.189c0,0,0.677,0.461,0.715,0.486
			c0.036,0.024,0.158,0.123,0.181,0.131c0.025,0.007,0.205-0.188,0.559-0.432c0.409-0.284,0.554-0.263,0.69-0.337
			c0.134-0.074,0.189-0.135,0.294-0.24c0.159-0.159,0.16-0.244,0.34-0.465c0.181-0.221,0.351-0.345,0.351-0.345
			s0.025-0.025,0.348-0.39c0.323-0.364,0.465-0.64,0.465-0.64l0.177-0.355c0,0,0.257-0.552,0.339-0.77
			c0.083-0.219,0.083-0.291,0.083-0.291s0.012-0.057-0.05-0.169c-0.064-0.111-0.13-0.061-0.253-0.035
			c-0.235,0.05-0.378-0.011-0.616-0.052c-0.217-0.036-0.331-0.101-0.549-0.137c-0.221-0.037-0.35-0.074-0.572-0.052
			c-0.034,0.004-0.101,0.018-0.134,0.029c-0.125,0.042-0.16,0.051-0.253,0.105c-0.108,0.05-0.178,0.066-0.298,0.069
			c-0.083,0.002-0.133,0.005-0.209-0.025c-0.053-0.02-0.083-0.035-0.124-0.073c-0.025-0.023-0.038-0.037-0.057-0.067
			c-0.002-0.023-0.01-0.022,0.013-0.06c0.022-0.039,0.049-0.045,0.049-0.045l0.101-0.025c0,0,0.143-0.037,0.156-0.041
			c0.013-0.004,0.149-0.048,0.209-0.067c0.061-0.019,0.127-0.054,0.127-0.054s0.037-0.059,0.023-0.092
			c-0.018-0.038-0.099-0.042-0.099-0.042s-0.114,0.042-0.126,0.045c-0.012,0.002-0.194,0.06-0.194,0.06s-0.142,0.031-0.253,0.057
			c-0.111,0.025-0.27,0.038-0.27,0.038l-0.048-0.013c0,0-0.054-0.036-0.062-0.074c-0.008-0.034-0.013-0.059-0.019-0.097
			c-0.024-0.141-0.052-0.225-0.019-0.364c0.013-0.058,0.026-0.09,0.051-0.144c0.021-0.045,0.035-0.07,0.063-0.112l0.087-0.143
			l0.165-0.244c0.057-0.057,0.094-0.086,0.166-0.126c0.105-0.059,0.166-0.075,0.298-0.09c0.129-0.014,0.147-0.013,0.329-0.054
			c0.184-0.042,0.314-0.114,0.314-0.114s0.439-0.161,0.707-0.293c0.28-0.137,0.403-0.284,0.693-0.398
			c0.123-0.048,0.194-0.07,0.321-0.103c0.016-0.01,0.024-0.02,0.029-0.039c0.012-0.046-0.059-0.067-0.108-0.062
			c-0.044,0.004-0.144,0.05-0.167,0c-0.017-0.038,0.092-0.061,0.092-0.061s0.051-0.024,0.053-0.052
			c0.001-0.044-0.074-0.015-0.108-0.019c-0.17-0.019-0.184-0.05-0.302-0.079c-0.139-0.035-0.214-0.078-0.358-0.084
			c-0.127-0.005-0.246,0.022-0.326,0.041c-0.079,0.02-0.081-0.057-0.05-0.073c0.223-0.104,0.228-0.112,0.385-0.12
			c0.086-0.004,0.206,0.015,0.22,0.021c0.013,0.007,0.185-0.001,0.229-0.046c0.045-0.044-0.141-0.042-0.229-0.076
			c-0.081-0.032-0.205-0.041-0.203-0.095c0.004-0.054,0.064-0.024,0.107-0.035c0.054-0.013,0.085-0.012,0.14-0.019
			c0.099-0.013,0.108-0.023,0.254-0.035c0.145-0.014,0.354,0.048,0.354,0.048s0.219,0.097,0.327,0.149
			c0.108,0.05,0.238,0.076,0.238,0.076s0.153,0.021,0.269-0.051c0.118-0.072,0.051-0.12,0.01-0.186
			c-0.04-0.062-0.092-0.153-0.017-0.324c0.067-0.149,0.101-0.323,0.12-0.339c0.024-0.019,0.116,0.115,0.176,0.17
			c0.214,0.2,0.498,0.299,0.766,0.718c0.021,0.034,0.12-0.02,0.43,0.027c0.31,0.048,0.582,0.38,0.65,0.459
			c0.071,0.08,0.162,0.076,0.162,0.076l0.149,0.02l0.541,0.009c0,0,0.246-0.044,0.387,0.01c0.099,0.037,0.429,0.258,0.279,0.341
			c-0.105,0.059-0.204-0.07-0.299-0.076c-0.112-0.007-0.161,0.014-0.262,0.039c-0.21,0.053-0.661,0.189-0.497,0.244
			c0.012,0.005,0.035,0.008,0.035,0.008l0.081,0.014c0,0,0.198,0.045,0.318,0.092c0.181,0.071,0.266,0.15,0.433,0.248
			c0.095,0.055,0.137,0.11,0.241,0.141c0.095,0.028,0.156,0,0.254,0.017c0.128,0.023,0.2,0.049,0.318,0.105
			c0.175,0.084,0.238,0.185,0.395,0.298c0.078,0.057,0.144,0.065,0.203,0.142c0.014,0.017,0.025,0.026,0.031,0.046
			c0.021,0.07-0.115,0.029-0.187,0.017c-0.079-0.013-0.112-0.053-0.186-0.086c-0.109-0.051-0.16-0.108-0.279-0.129
			c-0.086-0.017-0.137-0.004-0.225,0.001c-0.086,0.004-0.131,0.017-0.216,0.018c-0.145,0.002-0.227-0.01-0.37-0.04
			c-0.16-0.034-0.24-0.096-0.398-0.129c-0.18-0.037-0.497-0.191-0.467-0.037c0.016,0.074,0.184,0.136,0.184,0.136
			s0.116,0.062,0.226,0.111c0.11,0.048,0.171,0.12,0.171,0.12l0.076,0.056c0,0,0.078,0.108,0.181,0.229
			c0.1,0.12,0.279,0.116,0.279,0.116s0.108,0,0.34,0.048c0.231,0.048,0.469,0.191,0.469,0.191s0.18,0.123,0.285,0.247
			c0.104,0.124,0.044,0.186,0.031,0.199c-0.012,0.013-0.007,0.007-0.022,0.013c-0.012,0.006-0.142-0.156-0.142-0.156l-0.093-0.079
			c0,0-0.09-0.064-0.208-0.101c-0.117-0.037-0.156-0.012-0.156-0.012s-0.249,0.07-0.467,0.064c-0.215-0.006-0.327-0.092-0.327-0.092
			l-0.137-0.092c0,0-0.205-0.192-0.213-0.101c-0.005,0.062,0.09,0.13,0.09,0.13s0.066,0.067,0.11,0.109
			c0.083,0.082,0.117,0.123,0.213,0.208c0.095,0.086,0.154,0.086,0.154,0.086s0.051,0.012,0.071,0.016
			c0.02,0.004,0.054,0.013,0.054,0.013s0.032,0.012,0.181,0.073c0.148,0.06,0.308,0.19,0.308,0.19s0.015,0.012,0.037,0.017
			c0.022,0.002,0.066,0.024,0.078,0.028c0.013,0.003,0.051,0.003,0.137,0.015c0.087,0.013,0.054,0.068,0.054,0.068l-0.015,0.021
			l-0.071,0.048c0,0-0.092,0.026-0.154,0.029c-0.064,0.004-0.154-0.032-0.154-0.032l-0.192-0.072c0,0-0.194-0.051-0.236-0.058
			c-0.042-0.006-0.215-0.041-0.244-0.047c-0.028-0.007-0.115-0.038-0.138-0.051c-0.023-0.013-0.066-0.021-0.171-0.073
			c-0.104-0.051-0.145-0.111-0.275-0.152c-0.131-0.042-0.21-0.05-0.308,0.018c-0.169,0.116,0.254,0.135,0.464,0.24
			c0.31,0.153,0.485,0.265,0.558,0.43c0.074,0.166,0.149,0.225,0.149,0.225s0.219,0.11,0.316,0.225
			c0.054,0.062,0.061,0.114,0.115,0.176c0.12,0.14,0.352,0.133,0.398,0.252c0.044,0.111-0.188,0.061-0.309,0.05
			c-0.217-0.021-0.27-0.221-0.473-0.301c-0.115-0.046-0.188-0.046-0.305-0.086c-0.214-0.07-0.314-0.162-0.528-0.229
			c-0.13-0.04-0.364-0.21-0.335-0.079c0.005,0.032,0.024,0.056,0.033,0.075c0.011,0.019,0.065,0.089,0.065,0.089
			s0.072,0.095,0.105,0.12c0.031,0.026,0.169,0.13,0.367,0.238c0.196,0.108,0.367,0.314,0.367,0.314s0.059,0.084,0.087,0.143
			c0.029,0.066,0.008,0.086,0.055,0.178c0.043,0.091,0.064,0.109,0.122,0.165c0.144,0.139,0.296,0.111,0.479,0.186
			c0.05,0.021,0.054,0.029,0.108,0.086c0.054,0.057-0.01,0.081-0.01,0.081s-0.204,0.053-0.336,0.042
			c-0.171-0.013-0.248-0.066-0.414-0.149c-0.169-0.082-0.257-0.231-0.274-0.24c-0.015-0.01-0.056-0.054-0.088-0.076
			c-0.032-0.023-0.114-0.04-0.187-0.06c-0.074-0.02-0.116-0.024-0.191-0.044c-0.101-0.029-0.207-0.073-0.254-0.089
			c-0.048-0.017-0.156-0.036-0.236,0.011c-0.159,0.094,0.247,0.158,0.373,0.293c0.065,0.068,0.092,0.115,0.153,0.187
			c0.046,0.055,0.066,0.093,0.123,0.136c0.039,0.029,0.111,0.06,0.111,0.06s0.098,0.045,0.241,0.124
			c0.143,0.079,0.31,0.302,0.31,0.302l0.101,0.155l0.06,0.089l0.016,0.041l0.022,0.05c0,0,0.073,0.095,0.127,0.126
			c0.054,0.032,0.044,0.061,0.044,0.061s-0.006,0.02-0.044,0.041c-0.037,0.023-0.057,0.004-0.111-0.012
			c-0.054-0.015-0.089-0.067-0.136-0.104c-0.049-0.039-0.1-0.134-0.187-0.188c-0.077-0.046-0.177-0.063-0.216-0.075
			c-0.038-0.014-0.133-0.074-0.171-0.09c-0.037-0.015-0.136-0.06-0.136-0.06s-0.191-0.106-0.296-0.135
			c-0.105-0.029-0.038,0.035-0.038,0.035s0.094,0.147,0.184,0.205c0.117,0.078,0.282,0.146,0.228,0.209
			c-0.037,0.041-0.086,0.026-0.139,0.02c-0.088-0.01-0.194-0.115-0.194-0.115s-0.044-0.029-0.241-0.091
			c-0.196-0.064-0.123,0.043-0.078,0.101c0.044,0.056,0.104,0.089,0.104,0.089l0.133,0.06l0.061,0.019c0,0,0.054,0.01,0.231,0.051
			c0.177,0.04,0.275,0.127,0.275,0.127s0.095,0.089,0.227,0.186c0.134,0.099,0.266,0.124,0.34,0.134
			c0.073,0.009,0.071,0.06,0.071,0.06s0.01,0.047,0.005,0.062c-0.002,0.016-0.018,0.029-0.034,0.029
			c-0.015,0-0.022,0.006-0.041,0.017c-0.02,0.01-0.095,0.022-0.095,0.022s-0.198-0.006-0.354-0.045
			c-0.154-0.038-0.291-0.145-0.306-0.151c-0.012-0.006-0.156-0.086-0.257-0.118c-0.096-0.032-0.252-0.018-0.269-0.012
			c-0.016,0.006-0.07,0.015-0.161,0.042c-0.093,0.024,0.023,0.06,0.023,0.06l0.066,0.006l0.158,0.012c0,0,0.164,0.019,0.302,0.07
			c0.138,0.05,0.228,0.152,0.32,0.244c0.092,0.091,0.193,0.151,0.193,0.151l0.073,0.048l0.038,0.029l0.01,0.025
			c0,0-0.004,0.013-0.01,0.029c-0.006,0.017-0.029,0.029-0.029,0.029s-0.034-0.006-0.049-0.006c-0.017,0-0.121-0.055-0.198-0.089
			c-0.079-0.035-0.12-0.068-0.205-0.089c-0.073-0.018-0.171-0.026-0.193-0.019c-0.022,0.006-0.183,0.029-0.308,0.037
			c-0.125,0.01-0.232,0.012-0.379-0.006c-0.209-0.025-0.486-0.19-0.522-0.144c-0.072,0.096,0.148,0.124,0.255,0.186
			c0.147,0.085,0.401,0.161,0.401,0.161s0.186,0.041,0.294,0.092c0.238,0.111,0.31,0.274,0.502,0.447
			c0.105,0.096,0.191,0.138,0.332,0.159c0.122,0.018,0.12,0.003,0.313-0.035c0.194-0.038,0.312-0.222,0.368-0.155
			c0.011,0.013,0.006,0.025,0.004,0.044c-0.004,0.019-0.019,0.054-0.019,0.054s-0.022,0.031-0.056,0.067
			c-0.035,0.035-0.169,0.108-0.238,0.136c-0.07,0.029-0.241,0.076-0.456,0.07c-0.215-0.006-0.518-0.171-0.518-0.171l-0.217-0.092
			c0,0-0.1-0.047-0.169-0.073c-0.181-0.068-0.296-0.062-0.481-0.111c-0.115-0.031-0.191-0.064-0.294-0.085
			c-0.105-0.023-0.045,0.019-0.035,0.034c0.049,0.067,0.115,0.088,0.198,0.126c0.11,0.054,0.187,0.043,0.299,0.09
			c0.126,0.051,0.236,0.122,0.306,0.167c0.068,0.044,0.12,0.094,0.187,0.164l0.231,0.198c0,0,0.054,0.044,0.06,0.062
			c0.006,0.019,0.032,0.067,0.02,0.143c-0.014,0.076-0.076,0.023-0.076,0.023l-0.061-0.039l-0.061-0.056l-0.097-0.08
			c0,0-0.083-0.075-0.226-0.148c-0.142-0.074-0.313-0.092-0.313-0.092s-0.152-0.023-0.147,0.025
			c0.007,0.047,0.041,0.051,0.161,0.082c0.121,0.031,0.2,0.092,0.2,0.092s0.123,0.092,0.213,0.193c0.088,0.101,0.114,0.2,0.114,0.2
			s0.045,0.083,0.159,0.193c0.114,0.111,0.174,0.073,0.167,0.127c-0.006,0.054-0.056,0.064-0.056,0.064s-0.029-0.003-0.041-0.003
			c-0.012,0-0.042-0.016-0.073-0.029c-0.032-0.012-0.152-0.095-0.152-0.095s-0.188-0.153-0.209-0.167
			c-0.023-0.017-0.2-0.149-0.2-0.149s-0.105-0.067-0.18-0.105c-0.077-0.037-0.178-0.076-0.236-0.095
			c-0.056-0.018-0.161-0.024-0.161-0.024s-0.126-0.019-0.203-0.048c-0.121-0.046-0.262-0.175-0.277-0.181
			c-0.017-0.007-0.13-0.045-0.152-0.042c-0.022,0.002-0.073,0.215-0.085,0.338c-0.051,0.514,0.085,0.856,0.298,1.327
			c0.307,0.685,1.161,1.538,1.161,1.538s0.215,0.122,0.306,0.194c0.255,0.2,0.678,0.483,1.053,0.856
			c0.32,0.321,0.745,0.889,0.745,0.889s0.247,0.343,0.362,0.586c0.139,0.298,0.252,0.753,0.252,0.753s0.01,0.078,0.017,0.095
			c0.01,0.016,0.032,0.037,0.046,0.037l0.149,0.005c0.015,0,0.184-0.012,0.297-0.04c0.111-0.028,0.375-0.149,0.551-0.241
			c0.173-0.093,0.382-0.269,0.382-0.269s0.04-0.034,0.243-0.261c0.205-0.227,0.337-0.568,0.387-0.697
			c0.049-0.128,0.089-0.374,0.119-0.794c0.032-0.422-0.026-0.867-0.026-0.867s-0.077-0.621-0.123-0.832
			c-0.046-0.21-0.159-0.555-0.159-0.555s-0.078-0.307-0.103-0.5c-0.026-0.194-0.029-0.509-0.029-0.509s0-0.193,0.062-0.55
			c0.065-0.355,0.282-0.713,0.282-0.713s0.061-0.12,0.296-0.401c0.241-0.288,0.318-0.333,0.555-0.505
			c0.188-0.135,0.431-0.352,0.511-0.301c0.088,0.055-0.086,0.165-0.144,0.222c-0.148,0.147-0.424,0.406-0.648,0.796
			c-0.195,0.338-0.269,0.561-0.318,0.782c-0.049,0.22-0.028,0.462-0.022,0.544c0.007,0.083,0.052,0.053,0.052,0.053
			s0.475-0.382,0.733-0.671c0.28-0.313,0.529-0.869,0.627-0.874c0.066-0.004,0.097,0.145,0.081,0.214
			c-0.061,0.289-0.082,0.325-0.176,0.517c-0.107,0.22-0.208,0.318-0.357,0.521c-0.156,0.213-0.233,0.294-0.359,0.575
			c-0.182,0.405-0.076,0.718-0.076,0.718s0.022,0.19,0.107,0.188c0.143-0.005,0.457-0.401,0.662-0.726
			c0.152-0.238,0.206-0.512,0.306-0.657c0.09-0.128,0.17,0.208,0.131,0.406c-0.045,0.235-0.161,0.447-0.417,0.779
			c-0.249,0.325-0.242,0.634-0.242,0.634s-0.026,0.141-0.046,0.449c-0.019,0.307,0.068,0.772,0.068,0.772s0.078,0.389,0.094,0.684
			c0.015,0.297,0.005,0.971-0.273,1.495c-0.11,0.21-0.346,0.501-0.346,0.501s-0.182,0.187-0.331,0.296
			c-0.149,0.109-0.507,0.279-0.507,0.279s-0.248,0.085-0.282,0.093c-0.037,0.01-0.059,0.04-0.059,0.04s0.022,0.048,0.032,0.067
			c0.008,0.02,0.078,0.191,0.078,0.191s0.074,0.242,0.103,0.434c0.028,0.192-0.005,0.236-0.032,0.382
			c-0.027,0.141-0.088,0.076-0.104,0.352c-0.013,0.244,0.097,0.367,0.077,0.64c-0.008,0.12-0.144-0.151-0.21-0.266
			c-0.139-0.249-0.106-0.633-0.109-0.728c-0.004-0.095-0.011-0.2-0.046-0.32c-0.043-0.156-0.108-0.277-0.18-0.373
			c-0.073-0.094-0.15-0.148-0.176-0.138c-0.026,0.009-0.028,0.059-0.028,0.083c-0.001,0.027,0.05,0.117,0.061,0.137
			c0.013,0.018,0.105,0.186,0.105,0.186s0.04,0.13,0.056,0.381c0.016,0.249-0.061,0.56-0.061,0.56s-0.1,0.348-0.205,0.554
			c-0.117,0.226-0.378,0.534-0.378,0.534s-0.187,0.171-0.328,0.452c-0.138,0.281-0.019,0.403-0.071,0.44
			c-0.054,0.035-0.164-0.162-0.193-0.296c-0.028-0.125-0.015-0.183,0.037-0.323c0.048-0.134,0.16-0.329,0.16-0.329l0.167-0.285
			c0,0,0.203-0.386,0.266-0.667c0.064-0.279-0.01-0.589-0.01-0.589s-0.008-0.103-0.078-0.098c-0.071,0.004-0.12,0.065-0.149,0.139
			c-0.057,0.154,0.024,0.126-0.064,0.382c-0.068,0.202-0.088,0.175-0.125,0.294c-0.044,0.143-0.067,0.29-0.065,0.379
			c0.004,0.088-0.045,0.051-0.045,0.051s-0.086-0.159-0.086-0.357c0-0.108,0.005-0.169,0.017-0.276
			c0.02-0.172,0.09-0.436,0.09-0.436s0.076-0.26,0.06-0.497c-0.018-0.239-0.101-0.283-0.101-0.283s-0.022-0.032-0.115-0.027
			c-0.092,0.007-0.087,0.172-0.087,0.172s-0.028,0.236-0.065,0.382c-0.101,0.404-0.237,0.617-0.477,0.958
			c-0.217,0.308-0.512,0.579-0.66,0.706c-0.147,0.13-0.599,0.458-0.599,0.458l-0.53,0.353c0,0-0.21,0.205-0.306,0.45
			c-0.098,0.243-0.093,0.434-0.037,0.657c0.056,0.225,0.137,0.327,0.18,0.391c0.042,0.061,0.123,0.171,0.15,0.301
			c0.017,0.079,0.005,0.127,0.01,0.208c0.005,0.071,0.015,0.11,0.012,0.182c-0.002,0.112,0.018,0.192-0.046,0.283
			c-0.046,0.07-0.174,0.131-0.174,0.131s-0.144,0.063-0.23,0.116c-0.902,0.544-1.222,0.897-1.73,1.503
			c-0.161,0.194-0.043,0.182-0.215,0.412c-0.105,0.137-0.346,0.137-0.433,0.301c-0.122,0.224,0.274,0.444-0.183,0.64
			c-0.588,0.254-1.601,0.072-1.621-0.007c-0.055-0.218,0.198-0.469,0.288-0.569c0.412-0.45,0.779-0.461,0.915-0.833
			c0.029-0.079,0.018-0.148,0.346-0.391c0.23-0.17,1.15-0.863,1.552-1.324c0.138-0.159,0.257-0.264,0.316-0.435
			c0.061-0.174-0.06-0.282-0.06-0.282l-0.165-0.269l-0.316-0.566c0,0-0.133-0.301-0.205-0.474c-0.074-0.174-0.213-0.64-0.213-0.64
			s-0.101-0.42-0.119-0.694c-0.03-0.491,0.037-0.777,0.166-1.253c0.167-0.618,0.547-0.877,0.699-1.491
			c0.044-0.178,0.054-0.484-0.037-0.469c-0.086,0.016-0.093,0.257-0.159,0.418c-0.244,0.608-0.567,0.875-0.744,1.505
			c-0.118,0.426-0.167,0.679-0.166,1.122c0.001,0.253-0.008,0.206,0.056,0.645c0.026,0.161,0.065,0.248,0.112,0.406
			c0.034,0.112,0.126,0.323,0.126,0.323s0.126,0.277,0.17,0.472c0.013,0.067,0.031,0.105,0.026,0.172
			c-0.008,0.116,0.012,0.141-0.044,0.246c-0.07,0.131-0.027,0.208-0.249,0.257c-0.198,0.042-0.602-0.09-0.602-0.09
			s-1.662-0.503-2.723-0.358c-0.21,0.028-0.323,0.105-0.534,0.101c-0.192-0.002-0.29-0.153-0.483-0.095
			c-0.039,0.011-0.051,0.039-0.087,0.062c-0.281,0.195-0.066,0.52-0.806,0.352c-0.455-0.104-1.005-0.382-0.91-0.557
			c0.128-0.232,0.299-0.27,0.658-0.418c0.384-0.156,0.961-0.112,1.075-0.12c0.139-0.011,0.338-0.108,0.586-0.114
			c0.429-0.007,0.505,0.044,0.505,0.044l0.728,0.065l1.393,0.017c0,0,0.249-0.018,0.348-0.038c0.1-0.02,0.179-0.216,0.234-0.31
			c0.054-0.093-0.002-0.23-0.002-0.23l-0.041-0.065l-0.133-0.214l-0.245-0.413l-0.272-0.542c0,0-0.178-0.377-0.272-0.626
			c-0.094-0.247-0.149-0.386-0.211-0.641c-0.065-0.263-0.106-0.475-0.114-0.687C12.365,25.079,12.345,24.843,12.43,24.595"/>
		<path style="fill:#FFFFFF;" d="M21.475,24.092c0.293-0.376,0.321-0.726,0.338-1.218c0.013-0.358-0.122-0.91-0.122-0.91
			l-0.018-0.04c0,0-0.051-0.067-0.083,0.021c0.005,0.078,0.015,0.14,0.015,0.14l0.017,0.71c0,0-0.022,0.358-0.144,0.727
			c-0.205,0.623-0.75,0.9-0.83,1.125C20.513,25.02,21.125,24.545,21.475,24.092"/>
		<path style="fill:#FFFFFF;" d="M18.402,25.242c0,0-0.12,0.034-0.122,0.153c-0.002,0.119,0.029,0.221,0.026,0.364
			c-0.002,0.182-0.17,0.392-0.062,0.461c0.184,0.117,0.343-0.709,0.287-0.831C18.474,25.266,18.419,25.24,18.402,25.242"/>
		<path style="fill:#FFFFFF;" d="M16.332,30.968c0,0-0.034-0.018-0.101,0.007c-0.066,0.026-0.061,0.094-0.061,0.094
			s-0.013,0.073,0.04,0.081c0.054,0.01,0.142-0.122,0.142-0.137S16.332,30.968,16.332,30.968"/>
		<path style="fill:#FFFFFF;" d="M14.384,32.352c0,0-0.02,0.02-0.002,0.033c0.018,0.016,0.044-0.004,0.044-0.004
			s0.336-0.263,0.535-0.447c0.21-0.198,0.513-0.539,0.513-0.539s0.021-0.026-0.002-0.048c-0.025-0.022-0.082,0.012-0.13,0.034
			c-0.042,0.022-0.066,0.045-0.098,0.071c-0.029,0.027-0.13,0.13-0.13,0.13l-0.259,0.252l-0.164,0.154l-0.159,0.151l-0.066,0.076
			c0,0-0.017,0.029-0.022,0.037c-0.005,0.008-0.022,0.03-0.022,0.03s-0.025,0.023-0.025,0.031c0,0.006-0.007,0.012-0.007,0.02
			C14.389,32.343,14.384,32.352,14.384,32.352"/>
		<path style="fill:#FFFFFF;" d="M13.803,32.734c0,0-0.036-0.029-0.093-0.001c-0.057,0.031-0.118,0.109-0.123,0.117
			c-0.005,0.011-0.037,0.053-0.015,0.089c0.021,0.037,0.094-0.017,0.105-0.02c0.01,0,0.105-0.076,0.105-0.076
			S13.837,32.809,13.803,32.734"/>
		<path style="fill:#FFFFFF;" d="M12.691,33.86c0,0-0.048-0.088-0.11-0.051c-0.062,0.037-0.096,0.049-0.154,0.128
			c-0.01,0.013-0.071,0.093-0.083,0.114c-0.011,0.02-0.073,0.137,0.053,0.145c0.215,0.012,0.074-0.126,0.148-0.18
			c0.06-0.041,0.172-0.03,0.174-0.074C12.72,33.898,12.691,33.86,12.691,33.86"/>
		<path style="fill:#FFFFFF;" d="M8.879,29.359c0,0-0.129,0.032-0.139,0.076c-0.01,0.046,0.075,0.09,0.089,0.093
			c0.015,0.002,0.044,0.037,0.13-0.022c0.085-0.057,0.081-0.106,0.081-0.106S9.09,29.341,8.879,29.359"/>
		<path style="fill:#FFFFFF;" d="M10.976,29.291c0,0-0.001-0.048-0.092-0.041c-0.093,0.005-0.112,0.022-0.115,0.037
			c-0.003,0.013,0.005,0.037,0.087,0.044C10.94,29.335,10.973,29.33,10.976,29.291"/>
		<path style="fill:#FFFFFF;" d="M12.958,29.348c-0.167-0.001-0.114,0.004-0.217,0.009c-0.186,0.01-0.288,0.002-0.472-0.01
			c-0.258-0.017-0.657-0.081-0.657-0.081s-0.05-0.012-0.07,0.021c-0.018,0.03,0.049,0.101,0.109,0.12
			c0.327,0.101,0.345,0.084,0.567,0.088c0.124,0.001,0.193-0.011,0.316-0.018c0.156-0.012,0.229,0.012,0.399-0.033
			C12.979,29.432,13.022,29.349,12.958,29.348"/>
		<path style="fill:#FFFFFF;" d="M14.075,29.017c0,0-0.034-0.039-0.103-0.005c-0.068,0.033-0.11,0.107-0.11,0.107
			s-0.032,0.051,0.037,0.044c0.067-0.01,0.128-0.039,0.144-0.049C14.06,29.105,14.11,29.058,14.075,29.017"/>
		<path style="fill:#FFFFFF;" d="M13.103,15.614c0,0,0.472-0.442,0.809-1.026c0.2-0.348,0.288-1.159,0.115-0.957
			c-0.078,0.092-0.172,0.513-0.321,0.824c-0.213,0.443-0.666,1.072-0.666,1.072S12.943,15.735,13.103,15.614"/>
		<path style="fill:#FFFFFF;" d="M11.218,16.736c0,0-0.05,0.039-0.027,0.101c0.024,0.064,0.12,0.016,0.12,0.016
			s0.218-0.082,0.447-0.091c0.229-0.01,0.547,0.059,0.547,0.059s0.151,0.042,0.177,0.051c0.025,0.01,0.108,0.05,0.122,0.055
			c0.012,0.005,0.091,0.044,0.135,0.004c0.044-0.04-0.276-0.33-0.602-0.374c-0.543-0.074-0.9,0.16-0.9,0.16L11.218,16.736"/>
		<path style="fill:#FFFFFF;" d="M8.981,18.648c0.038,0.033,0.22-0.313,0.371-0.531c0.111-0.16,0.314-0.428,0.314-0.428
			s0.092-0.123-0.064-0.054c-0.063,0.028-0.235,0.159-0.357,0.401C9.143,18.241,8.94,18.616,8.981,18.648"/>
		<path style="fill:#FFFFFF;" d="M7.726,17.146c0,0-0.039,0.134,0.117,0.301c0.158,0.168,0.198,0.307,0.298,0.206
			c0.027-0.027-0.098-0.254-0.161-0.316c-0.065-0.062-0.112-0.114-0.112-0.114L7.827,17.19l-0.053-0.029l-0.03-0.012
			C7.745,17.149,7.737,17.141,7.726,17.146"/>
		<path style="fill:#FFFFFF;" d="M7.217,15.863c0,0-0.17,0.032-0.211,0.114C6.964,16.06,7.202,16.01,7.202,16.01
			s0.158,0.008,0.161-0.051C7.367,15.898,7.343,15.891,7.217,15.863"/>
		<path style="fill:#FFFFFF;" d="M4.519,20.335c-0.087-0.025-0.101,0.145-0.113,0.2C4.396,20.59,4.445,20.7,4.465,20.7
			c0.02-0.001,0.089-0.109,0.092-0.161C4.561,20.485,4.596,20.359,4.519,20.335"/>
		<path style="fill:#FFFFFF;" d="M7.321,23.666c0,0-0.155-0.123-0.179-0.074c-0.023,0.049,0.128,0.264,0.128,0.264
			s0.046,0.071,0.118,0.039c0.07-0.034,0.045-0.112,0.045-0.112S7.386,23.683,7.321,23.666"/>
		<path style="fill:#FFFFFF;" d="M6.152,20.064c0,0-0.04-0.01-0.054,0.037c-0.015,0.048-0.013,0.125-0.024,0.219
			c-0.008,0.073,0.019,0.269,0.019,0.269s0.015,0.155,0.046,0.247c0.034,0.101,0.123,0.246,0.123,0.246s0.034,0.074,0.075,0.07
			C6.378,21.148,6.368,21.1,6.368,21.1s-0.13-0.516-0.134-0.568c-0.015-0.172-0.015-0.381-0.015-0.381L6.218,20.12
			C6.218,20.12,6.217,20.065,6.152,20.064"/>
		<path style="fill:#FFFFFF;" d="M6.354,18.491c0,0-0.071-0.013-0.137,0.124c-0.067,0.139-0.052,0.196-0.046,0.202
			c0.005,0.006,0.057,0.005,0.142-0.124c0.084-0.128,0.065-0.177,0.065-0.177S6.372,18.491,6.354,18.491"/>
		<path style="fill:#FFFFFF;" d="M8.32,19.916c0,0,0.086,0.129-0.079,0.099c-0.166-0.03-0.513-0.304-0.655-0.378
			c-0.14-0.074-0.37-0.097-0.274-0.184c0.018-0.015,0.023-0.029,0.05-0.03c0.029-0.001,0.124,0.036,0.13,0.04
			c0.005,0.002,0.25,0.104,0.259,0.106c0.009,0.004,0.146,0.062,0.244,0.12c0.098,0.058,0.257,0.169,0.257,0.169L8.32,19.916"/>
		<path style="fill:#FFFFFF;" d="M12.902,23.861c0.045,0.142-0.522-0.299-0.825-0.533c-0.805-0.619-1.789-1.889-1.667-2.002
			c0.101-0.092,0.505,0.489,1.097,1.13C12.141,23.139,12.876,23.777,12.902,23.861"/>
		<path style="fill:#FFFFFF;" d="M15.269,23.254c-0.176,0.188-0.238,0.428-0.137,0.607c0.099,0.175,0.13-0.255,0.24-0.382
			c0.095-0.111,0.154-0.093,0.31-0.204C15.948,23.088,15.491,23.015,15.269,23.254"/>
		<path style="fill:#FFFFFF;" d="M14.262,19.245c-0.121-0.02-0.117,0.164-0.1,0.294c0.081,0.583,0.342,1.032,0.691,1.454
			c0.213,0.258,0.795,0.717,0.863,0.643c0.025-0.026-0.555-0.474-0.924-1.049c-0.261-0.408-0.401-0.753-0.434-1.09
			C14.355,19.455,14.365,19.262,14.262,19.245"/>
		<path style="fill:#FFFFFF;" d="M12.006,10.608c-0.263,0.142-0.718,0.268-0.718,0.268s-0.021,0.045,0.038,0.04
			c0.39-0.031,0.539-0.08,0.747-0.172c0.208-0.09,0.359-0.339,0.359-0.339s0.084-0.155-0.072-0.027
			C12.31,10.417,12.15,10.529,12.006,10.608"/>
		<path style="fill:#FFFFFF;" d="M15.175,9.607c0,0-0.089-0.02-0.149,0.018c-0.06,0.038-0.043,0.068-0.043,0.068
			s0.093,0.071,0.159,0.083c0.066,0.01,0.208,0.071,0.203,0.024c-0.006-0.049-0.086-0.136-0.114-0.16
			C15.205,9.613,15.175,9.607,15.175,9.607"/>
		<path style="fill:#FFFFFF;" d="M13.683,12.344c0.015,0.031,0.282-0.042,0.384-0.099c0.08-0.045,0.112-0.197,0.112-0.197
			s0.022-0.147-0.012-0.09C14.015,12.207,13.668,12.312,13.683,12.344"/>
		<path style="fill:#FFFFFF;" d="M13.675,11.66c0.108-0.206-0.295,0.214-0.5,0.323c-0.125,0.066-0.329,0.154-0.329,0.154
			s-0.054,0.067,0.021,0.061c0.075-0.005,0.266,0.06,0.422-0.06c0.037-0.029,0.198-0.264,0.198-0.264S13.623,11.758,13.675,11.66"/>
		<path style="fill:#FFFFFF;" d="M13.612,12.538c0.008,0.034,0.46,0.023,0.573-0.012c0.089-0.024,0.138-0.182,0.138-0.182
			s0.054-0.138,0.007-0.092C14.126,12.462,13.604,12.505,13.612,12.538"/>
		<path style="fill:#FFFFFF;" d="M6.362,16.673c0,0-0.068-0.025-0.153,0.103c-0.084,0.127-0.464,0.704-0.397,0.789
			c0.08,0.1,0.409-0.516,0.51-0.63c0.101-0.117,0.06-0.234,0.06-0.234S6.379,16.675,6.362,16.673"/>
		<path style="fill:#FFFFFF;" d="M14.639,27.082c-0.042,0.192,0.007,0.584,0.073,0.661c0.161,0.194,0.062-0.304,0.085-0.479
			c0.02-0.162,0.039-0.219,0.12-0.392C15.061,26.559,14.723,26.674,14.639,27.082"/>
		<path style="fill:#FFFFFF;" d="M13.252,10.4c0,0-0.125,0.004-0.223,0.057c-0.099,0.054-0.123,0.13-0.123,0.13
			s-0.02,0.055-0.007,0.085c0.029,0.065,0.164-0.034,0.259-0.001c0.076,0.027,0.113,0.05,0.172,0.12
			c0.051,0.061,0.141,0.149,0.197,0.099c0.058-0.049,0.037-0.174,0.037-0.174s-0.067-0.204-0.154-0.261
			C13.321,10.397,13.252,10.4,13.252,10.4"/>
		<path style="fill:#FFFFFF;" d="M11.171,11.835c0,0-0.07,0.011-0.054,0.096c0.017,0.084,0.062,0.071,0.062,0.071
			s0.145-0.062,0.137-0.15C11.306,11.765,11.171,11.835,11.171,11.835"/>
		<path style="fill:#FFFFFF;" d="M10.155,11.38c0,0-0.076,0.003-0.13,0.098c-0.052,0.094-0.084,0.192-0.084,0.192
			s-0.025,0.123,0.019,0.162c0.045,0.038,0.093-0.08,0.158-0.126c0.038-0.027,0.062-0.04,0.102-0.068
			c0.054-0.037,0.143,0.01,0.137-0.1C10.349,11.427,10.232,11.375,10.155,11.38"/>
		<path style="fill:#FFFFFF;" d="M13.438,10.197c0,0-0.173-0.025-0.166,0.042c0.006,0.062,0.094,0.025,0.15,0.05
			c0.055,0.025,0.092,0.035,0.136,0.075c0.032,0.029,0.029,0.085,0.068,0.086c0.055,0.001,0.044-0.021,0.044-0.021
			s-0.05-0.149-0.115-0.191C13.489,10.195,13.438,10.197,13.438,10.197"/>
		<path style="fill:#FFFFFF;" d="M15.367,10.894c-0.024,0.094-0.039,0.126-0.039,0.126s-0.049,0.191,0.144,0.121
			c0.193-0.071,0.093-0.041,0.232-0.109c0.137-0.067,0.134-0.03,0.235-0.025c0.034,0.001,0.056,0.002,0.108-0.007
			c0.044-0.01,0.026-0.061-0.072-0.087c-0.105-0.027-0.233-0.021-0.382-0.023C15.504,10.89,15.392,10.8,15.367,10.894"/>
		<path style="fill:#FFFFFF;" d="M15.452,10.188c0,0-0.088-0.02-0.149,0.018c-0.06,0.037-0.042,0.067-0.042,0.067
			s0.092,0.073,0.159,0.083c0.066,0.012,0.208,0.073,0.203,0.024c-0.007-0.048-0.086-0.136-0.114-0.16
			C15.482,10.195,15.452,10.188,15.452,10.188"/>
		<path style="fill:#FFFFFF;" d="M15.792,11.515c0,0-0.094-0.019-0.159,0.017c-0.064,0.035-0.046,0.064-0.046,0.064
			s0.1,0.067,0.171,0.078c0.071,0.01,0.222,0.067,0.216,0.021c-0.006-0.045-0.092-0.129-0.12-0.151
			C15.826,11.521,15.792,11.515,15.792,11.515"/>
		<path style="fill:#FFFFFF;" d="M15.821,11.996c0,0-0.1-0.023-0.169,0.019c-0.068,0.041-0.048,0.074-0.048,0.074
			s0.104,0.079,0.18,0.09c0.074,0.012,0.236,0.078,0.228,0.025c-0.006-0.052-0.096-0.148-0.128-0.173
			C15.855,12.004,15.821,11.996,15.821,11.996"/>
		<path style="fill:#FFFFFF;" d="M15.866,12.466c0,0-0.109-0.025-0.182,0.021c-0.074,0.046-0.051,0.084-0.051,0.084
			s0.112,0.088,0.193,0.101c0.082,0.013,0.257,0.088,0.249,0.029c-0.007-0.059-0.105-0.167-0.139-0.196
			C15.904,12.474,15.866,12.466,15.866,12.466"/>
		<path style="fill:#FFFFFF;" d="M15.857,13.046c0,0-0.109-0.023-0.182,0.023c-0.074,0.045-0.054,0.082-0.054,0.082
			s0.115,0.088,0.195,0.101c0.081,0.013,0.255,0.088,0.248,0.029c-0.008-0.059-0.105-0.168-0.138-0.197
			C15.892,13.055,15.857,13.046,15.857,13.046"/>
		<path style="fill:#FFFFFF;" d="M15.777,14.177c0,0-0.11-0.024-0.183,0.023c-0.073,0.046-0.051,0.083-0.051,0.083
			s0.112,0.089,0.193,0.101c0.082,0.012,0.257,0.089,0.249,0.029c-0.007-0.059-0.105-0.167-0.139-0.197
			C15.813,14.186,15.777,14.177,15.777,14.177"/>
		<path style="fill:#FFFFFF;" d="M15.851,13.612c0,0-0.125-0.029-0.213,0.025c-0.084,0.052-0.059,0.095-0.059,0.095
			s0.131,0.103,0.225,0.117c0.093,0.015,0.296,0.101,0.288,0.034c-0.01-0.069-0.122-0.194-0.161-0.228
			C15.892,13.621,15.851,13.612,15.851,13.612"/>
		<path style="fill:#FFFFFF;" d="M15.723,14.689c0,0-0.09-0.021-0.151,0.017c-0.061,0.038-0.042,0.068-0.042,0.068
			s0.093,0.074,0.159,0.084c0.067,0.011,0.21,0.073,0.205,0.024c-0.007-0.049-0.087-0.137-0.115-0.161
			C15.753,14.695,15.723,14.689,15.723,14.689"/>
		<path style="fill:#FFFFFF;" d="M15.638,15.179c0,0-0.073-0.016-0.125,0.015c-0.049,0.031-0.034,0.056-0.034,0.056
			s0.077,0.06,0.132,0.069c0.055,0.009,0.176,0.061,0.171,0.02c-0.005-0.04-0.073-0.114-0.095-0.134
			C15.664,15.185,15.638,15.179,15.638,15.179"/>
		<path style="fill:#FFFFFF;" d="M15.533,15.626c0,0-0.066-0.015-0.112,0.013c-0.044,0.027-0.032,0.051-0.032,0.051
			s0.07,0.054,0.12,0.061c0.05,0.009,0.158,0.055,0.153,0.019c-0.004-0.036-0.064-0.104-0.084-0.122
			C15.556,15.631,15.533,15.626,15.533,15.626"/>
		<path style="fill:#FFFFFF;" d="M15.428,15.993c0,0-0.068-0.015-0.112,0.012c-0.047,0.029-0.033,0.051-0.033,0.051
			s0.07,0.055,0.12,0.062c0.05,0.008,0.158,0.055,0.153,0.018c-0.004-0.036-0.064-0.103-0.086-0.12
			C15.45,15.998,15.428,15.993,15.428,15.993"/>
		<path style="fill:#FFFFFF;" d="M15.3,16.418c0,0-0.054-0.013-0.092,0.01c-0.037,0.024-0.024,0.042-0.024,0.042
			s0.056,0.044,0.096,0.051c0.04,0.006,0.128,0.044,0.123,0.013c-0.004-0.029-0.053-0.082-0.068-0.098
			C15.318,16.422,15.3,16.418,15.3,16.418"/>
		<path style="fill:#FFFFFF;" d="M15.147,16.816c0,0-0.046-0.011-0.078,0.008c-0.032,0.02-0.022,0.037-0.022,0.037
			s0.049,0.037,0.083,0.042c0.034,0.007,0.11,0.039,0.106,0.013c-0.002-0.025-0.045-0.071-0.059-0.084
			C15.161,16.819,15.147,16.816,15.147,16.816"/>
		<path style="fill:#FFFFFF;" d="M14.989,17.194c0,0-0.048-0.01-0.079,0.01c-0.031,0.019-0.02,0.035-0.02,0.035
			s0.046,0.038,0.082,0.044c0.035,0.005,0.11,0.037,0.106,0.013c-0.002-0.027-0.045-0.073-0.059-0.086
			C15.005,17.198,14.989,17.194,14.989,17.194"/>
		<path style="fill:#FFFFFF;" d="M4.762,19.118c0,0-0.079,0.153-0.04,0.236c0.039,0.084,0.145-0.134,0.145-0.134
			s0.11-0.218,0.065-0.257C4.887,18.923,4.861,19.035,4.762,19.118"/>
		<path d="M15.882,38.731v-0.297c0-0.674,0.341-0.806,1.337-0.811c0.916,0.005,1.24,0.12,1.24,0.701v2.244h0.338v0.506h-2.238
			c-0.472,0-0.779-0.324-0.779-0.722v-0.455c0-0.392,0.2-0.734,0.902-0.738h0.875v-0.683c0-0.357-0.024-0.399-0.382-0.399H17.17
			c-0.429,0-0.457,0.056-0.457,0.399v0.254L15.882,38.731 M16.921,39.536c-0.176,0-0.28,0.142-0.28,0.318v0.434
			c0,0.175,0.075,0.314,0.28,0.316h0.315c0.174,0,0.315-0.054,0.315-0.316l0.002-0.751h-0.298
			C17.248,39.536,16.921,39.536,16.921,39.536z"/>
		<path d="M13.753,38.469v-0.784h-1.249v0.467h0.333v2.417h-0.333v0.507h1.564v-0.507h-0.315v-1.295
			c0-0.121,0.736-1.051,0.736-0.943v1.286h0.865v-1.448c0-0.331-0.216-0.545-0.611-0.545C14.274,37.623,13.957,38.213,13.753,38.469
			"/>
		<polyline points="23.707,40.565 23.707,37.684 22.432,37.684 22.432,38.151 22.789,38.151 22.789,40.565 22.432,40.565 
			22.432,41.075 24.041,41.075 24.041,40.565 23.707,40.565 		"/>
		<path d="M10.541,38.469v-0.784H9.292v0.467h0.333v2.417H9.292v0.507h1.563v-0.507h-0.314v-1.295c0-0.121,0.735-1.051,0.735-0.943
			v1.286h0.864v-1.448c0-0.331-0.215-0.545-0.61-0.545C11.062,37.623,10.745,38.213,10.541,38.469"/>
		<path d="M8.814,39.964H7.938v0.254c0,0.345-0.057,0.359-0.484,0.364H7.448c-0.489,0.002-0.462-0.046-0.456-0.364v-0.602h1.823
			v-1.309c0-0.474-0.358-0.673-1.302-0.677H7.376c-1.02,0.005-1.291,0.237-1.291,0.823v1.916c0,0.645,0.381,0.754,1.31,0.779h0.101
			c1.014-0.023,1.318-0.093,1.318-0.695L8.814,39.964 M7.001,38.356c0-0.178,0.054-0.266,0.258-0.269h0.384
			c0.159,0,0.247,0.071,0.247,0.198v0.981H7.001L7.001,38.356L7.001,38.356z"/>
		
			<line style="fill:none;stroke:#000000;stroke-width:0.74;stroke-miterlimit:10;" x1="23.245" y1="36.988" x2="23.245" y2="36.374"/>
		<path d="M20.386,38.469v-0.784h-1.25v0.467h0.332v2.417h-0.332v0.507H20.7v-0.507h-0.314v-1.295c0-0.121,0.734-1.051,0.734-0.943
			v1.286h0.866v-1.448c0-0.331-0.218-0.545-0.614-0.545C20.906,37.623,20.588,38.213,20.386,38.469"/>
		<polyline points="4.993,39.426 4.993,38.974 4.506,38.974 4.506,40.569 5.35,40.569 5.35,41.075 2.877,41.075 2.877,40.569 
			3.535,40.569 3.535,36.988 3.018,36.988 3.018,36.372 22.283,36.372 22.283,36.988 4.506,36.988 4.506,38.426 4.993,38.426 
			4.993,38.001 5.553,38.001 5.553,39.426 4.993,39.426 		"/>
		<rect x="22.775" y="36.35" width="0.919" height="0.606"/>
	</g>
</g>
<g id="Layer_1">
</g>
</svg>
