<?xml version="1.0" encoding="utf-8"?>
<!-- Generator: Adobe Illustrator 20.0.0, SVG Export Plug-In . SVG Version: 6.00 Build 0)  -->
<svg version="1.1" id="Layer_1" xmlns="http://www.w3.org/2000/svg" xmlns:xlink="http://www.w3.org/1999/xlink" x="0px" y="0px"
	 viewBox="0 0 123.6 91.8" style="enable-background:new 0 0 123.6 91.8;" xml:space="preserve">
<style type="text/css">
	.st0{fill-rule:evenodd;clip-rule:evenodd;fill:#FFFFFF;}
	.st1{fill-rule:evenodd;clip-rule:evenodd;fill:#EB2229;}
</style>
<g>
	<path class="st0" d="M102.1,68.1l-1.5,0c0,0,1,0.8,5.6,5.4c7.2,7.2,17.4,6.6,17.4,6.6v11.8H88.8L65.4,69.3H40.9c0,0,0,1.9,0,4.5
		c0.1,1.5-1,6.3,6.6,6.3c0,0.4,0,11.8,0,11.8l-41.7,0c0,0,0-11.7,0-11.7c8.1,0,8.1-7.5,8.1-7.5s0-9.3,0-19c0-9.8-8.1-9.6-8.1-9.6
		V32.2h87.8c0,0,23.4-0.9,23.4,17.2C116.9,67,102.1,68.1,102.1,68.1L102.1,68.1L102.1,68.1z M85.1,54c0,0,4.4,0.3,4.4-3.1
		c0-3.3-4.4-3-4.4-3l-44,0l0,6.1L85.1,54L85.1,54z"/>
	<polygon class="st0" points="65,0 65,6.1 87.5,6.1 87.5,28 102.8,28 102.8,6.1 123.6,6.1 123.6,0 65,0 	"/>
	<path class="st0" d="M0,15.8C0,28.9,17.9,28,22.8,28c4.9,0,37.7,0,37.7,0V10.5H32.4v4.1h13V23H22.8c0,0-8-0.1-8-8.4
		c0-8.3,8-8.5,8-8.5h37.7V0c0,0-16.7,0-37.7,0C22.8,0,0-1.2,0,11.7L0,15.8L0,15.8z"/>
	<path class="st1" d="M95.1,65.3h-3.3c0,0,5.3,4.5,11.3,10.4c6.5,6.5,16.8,7.7,16.8,7.7V88H90.3L67.1,65.3H37.4v10.3
		c0,0,0,7.9,6.4,7.9c0,0.2,0,4.5,0,4.5H9.6c0,0,0-4.5,0-4.5c7.6,0,7.6-7.9,7.6-7.9s0-16.2,0-24.7c0-8.5-7.6-9.6-7.6-9.6v-4.9h82.2
		c0,0,21-1.3,21,14.5C112.9,66.3,95.1,65.3,95.1,65.3L95.1,65.3L95.1,65.3z M86.4,57.8c0,0,6.7,0,6.7-6.9c0-6.9-6.9-6.8-6.9-6.8
		H37.4v13.7H86.4L86.4,57.8z"/>
</g>
</svg>
