<?xml version="1.0" encoding="utf-8"?>
<!-- Generator: Adobe Illustrator 22.0.0, SVG Export Plug-In . SVG Version: 6.00 Build 0)  -->
<svg version="1.1" xmlns="http://www.w3.org/2000/svg" xmlns:xlink="http://www.w3.org/1999/xlink" x="0px" y="0px"
	 viewBox="0 0 379.8 345.7" style="enable-background:new 0 0 379.8 345.7;" xml:space="preserve">
<style type="text/css">
	.st0{fill:url(#SVGID_1_);}
	.st1{fill:url(#SVGID_2_);}
	.st2{fill:url(#SVGID_3_);}
	.st3{fill:#FFFFFF;}
	.st4{fill:url(#SVGID_4_);}
	.st5{opacity:0.66;fill:url(#SVGID_5_);}
	.st6{opacity:0.34;fill:url(#SVGID_6_);}
	.st7{opacity:0.66;fill:url(#SVGID_7_);}
	.st8{opacity:0.38;fill:#FFFFFF;}
	.st9{opacity:0.17;fill:#FFFFFF;}
	.st10{fill:url(#SVGID_8_);}
	.st11{fill:url(#SVGID_9_);}
	.st12{fill:url(#SVGID_10_);}
	.st13{fill:url(#SVGID_11_);}
	.st14{fill:url(#SVGID_12_);}
	.st15{opacity:0.72;fill:#2B88BD;}
	.st16{fill:#3EA4D2;}
	.st17{opacity:0.81;fill:#3EA4D2;}
</style>
<g id="Camada_1">
</g>
<g id="Camada_2">
	<g>
		<g>
			<linearGradient id="SVGID_1_" gradientUnits="userSpaceOnUse" x1="86.9785" y1="393.4732" x2="223.3376" y2="28.5122">
				<stop  offset="0" style="stop-color:#545454"/>
				<stop  offset="0.2236" style="stop-color:#7D7D7C"/>
				<stop  offset="0.7663" style="stop-color:#9D9D9D"/>
				<stop  offset="0.9121" style="stop-color:#5E5E5E"/>
				<stop  offset="1" style="stop-color:#434343"/>
			</linearGradient>
			<path class="st0" d="M210.2,344.1c-2.1-6.8-116.8-14.4-116.8-21.7c0.4-3.3,0.8-6.7,1.3-10c0.2-3.4,0.7-6.8,1.4-10.1
				c0.3-1,0.6-1.9,1-2.9c3-8.4,6.7-15.6,10.3-23.3c11-27.2,22.4-54.3,33.8-81.3c18.5-44.7,35.3-90.4,42.2-138.6
				c3.2-11.5,8.9-21.4,17.3-29.9c4.5-3.5,9.1-7.1,13.6-10.6c1.9-1.2,3.9-2.3,5.9-3.3c0.2-3.7,0.6-7.4,1.2-11h-29.9
				c-30.6,0-58.3,17.4-71.9,44.7l-15.3,37.7v0L67.1,177l-22.8,57.3c0,0,0,0,0,0l-14,35.1c0,0,0,0,0,0L0,345.7h96.6
				C96.5,345.2,210.4,344.6,210.2,344.1z"/>
		</g>
		<linearGradient id="SVGID_2_" gradientUnits="userSpaceOnUse" x1="123.1349" y1="317.8493" x2="299.1349" y2="-26.1507">
			<stop  offset="0" style="stop-color:#545454"/>
			<stop  offset="0.2236" style="stop-color:#7D7D7C"/>
			<stop  offset="0.5" style="stop-color:#DDDDDB"/>
			<stop  offset="0.7663" style="stop-color:#9D9D9D"/>
			<stop  offset="0.9121" style="stop-color:#5E5E5E"/>
			<stop  offset="1" style="stop-color:#434343"/>
		</linearGradient>
		<path class="st1" d="M208.7,0c-30.7,0-58.6,17.4-72.3,44.6L121,82.3v0l-37.3,93.3l-22.9,57.3c0,0,0,0,0,0l-14,35c0,0,0,0,0,0
			l-30.5,76.3h192.3c14.2-1.4,27.1-8.2,36.3-18.7c0.7-1,5-7.2,7.7-13.3l31.5-75.4l64.7-160c0,0,0,0,0,0l31-76.7H208.7z M328.3,94.6
			c-10.3,11.7-26.9,14.8-41.5,19.2h20.5L289,159.7c0,0,0,0,0,0l-38.2,95.7l-18.3,45.1c-1.6,3.7-3.6,7.3-3.9,7.9
			c-4.1,6.3-9,10.3-13.6,11.2h-61.4l18.1-45.6c0,0,0,0,0,0l8.3-21c0,0,0,0,0,0l13.6-34.3l22.1-55.8v0l9-22.5
			c7.2-15.9,17.6-26.2,27.2-26.7c-8-4.6-13.5-13.6-13.5-22.9c0-18.8,10-35.4,26.4-44.5c11-6,23.5-9.4,35.8-11.5
			c10.4-1.8,20.1-1,28.2,6.9c4.4,4.3,7.7,10.1,8.9,16.1C340.5,71,337.3,84.6,328.3,94.6z"/>
		<g>
			<linearGradient id="SVGID_3_" gradientUnits="userSpaceOnUse" x1="39.1563" y1="373.4925" x2="175.1563" y2="9.4925">
				<stop  offset="0" style="stop-color:#F3F3F3"/>
				<stop  offset="0.2538" style="stop-color:#DDDDDB"/>
				<stop  offset="0.9121" style="stop-color:#5E5E5E"/>
				<stop  offset="1" style="stop-color:#434343"/>
			</linearGradient>
			<path class="st2" d="M98.2,342.9c-2.1-6.8-2.8-14.6-2.8-21.9c0.4-3.3,0.8-6.7,1.3-10c0.2-3.4,0.7-6.7,1.4-10c0.3-1,0.6-1.9,1-2.9
				c3-8.3,6.7-15.5,10.3-23.2c11.1-27.1,22.5-54,34-81c18.6-44.5,35.5-90,42.4-138c3.2-11.4,9-21.4,17.4-29.8
				c4.6-3.5,9.1-7,13.7-10.5c1.9-1.2,3.9-2.3,5.9-3.3c0.2-3.7,0.6-7.4,1.2-11h-30c-30.7,0-58.6,17.4-72.2,44.5l-15.4,37.5v0
				l-37.3,92.9l-22.9,57c0,0,0,0,0,0l-14,34.9c0,0,0,0,0,0L1.5,344.1h97.1C98.4,343.7,98.3,343.3,98.2,342.9z"/>
		</g>
		<g>
			<path class="st3" d="M146.3,288c-1.1-13.2,1.4-26.7,3.8-39.6c4-20.9,13.3-41.1,22.5-60.1c12.2-25.3,27.3-49.1,39.1-74.6
				c3.2-8.5,5.9-17.3,7.8-26.2c0.5-10.7,3.3-20.8,8.6-30.2c-3.5-8.5-5.3-17.8-5.7-26.9c-0.1-1.7-0.1-3.4,0.1-5.2
				c-0.6-3.4-0.9-6.9-1.1-10.3c-0.2-4.4,0.3-9,1.3-13.5h-19.5c-25.7,0-49.3,12.1-64.4,31.9c-5.6,7.5-11.5,21.4-12.9,24.9l-10.3,25.2
				v0l-37.3,92.9l-22.9,57c0,0,0,0,0,0l-14,34.9c0,0,0,0,0,0l-30.5,75.9h6.5c4.6-5,9.9-9.3,16.7-13.2c7.1-4,14.8-6.9,22.4-9.6
				c5.8-2.1,11.9-3.5,18-4.9c12.8-2.8,25.7-5.1,38.1-9.2c6.6-3.3,13.1-6.8,19.7-10c4.8-2.3,9.6-4.6,14.4-6.8
				C146.5,289.6,146.4,288.8,146.3,288z"/>
		</g>
		<linearGradient id="SVGID_4_" gradientUnits="userSpaceOnUse" x1="99.5282" y1="131.0154" x2="289.9475" y2="213.5577">
			<stop  offset="0" style="stop-color:#F2F2F2"/>
			<stop  offset="3.449835e-02" style="stop-color:#EDECED"/>
			<stop  offset="8.530854e-02" style="stop-color:#DCDBDC"/>
			<stop  offset="0.1459" style="stop-color:#C3C1C2"/>
			<stop  offset="0.2035" style="stop-color:#A4A3A4"/>
			<stop  offset="0.2502" style="stop-color:#949496"/>
			<stop  offset="0.3794" style="stop-color:#717173"/>
			<stop  offset="0.495" style="stop-color:#727274"/>
			<stop  offset="0.6809" style="stop-color:#ECEBF0"/>
			<stop  offset="0.7676" style="stop-color:#E0DFE4"/>
			<stop  offset="0.9121" style="stop-color:#C5C5CA"/>
			<stop  offset="1" style="stop-color:#B7B6B6"/>
		</linearGradient>
		<path class="st4" d="M307.8,1.4h-12.7h-25.1h-12.7h-47h-3.8c-30.7,0-58.6,17.4-72.2,44.5l-15.4,37.5v0l-37.3,92.9l-22.9,57
			c0,0,0,0,0,0l-14,34.9c0,0,0,0,0,0l-30.5,75.9h192.2c14.2-1.4,27.1-8.2,36.3-18.6c0.7-1,5-7.1,7.7-13.2l31.5-75.1l64.7-159.4
			c0,0,0,0,0,0l31-76.4H307.8z M286.9,160.5C286.9,160.5,286.9,160.5,286.9,160.5l-38.2,95.3l-18.3,45c-1.6,3.6-3.6,7.3-3.9,7.9
			c-4.1,6.3-9,10.3-13.6,11.1h-61.4l18.1-45.4c0,0,0,0,0,0l8.3-20.9c0,0,0,0,0,0l13.6-34.1l22.1-55.6v0l9-22.4
			c7.3-16.2,18.1-26.6,27.9-26.6h1.2h15h4h8h4h22.3L286.9,160.5z M313.7,83.7c-1.7,4.6-11.6,11.4-19.6,13.4h-33.4l16.2-39.2h45.7
			C322.6,57.9,315.4,79.1,313.7,83.7z"/>
		<linearGradient id="SVGID_5_" gradientUnits="userSpaceOnUse" x1="336.1811" y1="32.3559" x2="372.5144" y2="18.3559">
			<stop  offset="0" style="stop-color:#C5C5CA;stop-opacity:0"/>
			<stop  offset="1" style="stop-color:#000000"/>
		</linearGradient>
		<path class="st5" d="M258.9,50.3c1,0.7,2.1,1.5,3.1,2.2c4.5,3.1,8.9,6.2,13.3,9.4l1.6-4h45.7c0,0-7.2,21.2-8.9,25.8
			c-0.5,1.4-1.8,3-3.6,4.7c8.5,7.2,15.7,14.9,22.7,23.5l13.8-34.1c0,0,0,0,0,0l31-76.4H213.5C227.9,18.5,242.1,35.7,258.9,50.3z"/>
		<linearGradient id="SVGID_6_" gradientUnits="userSpaceOnUse" x1="71.5024" y1="259.3502" x2="33.5024" y2="252.6835">
			<stop  offset="0" style="stop-color:#C5C5CA;stop-opacity:0"/>
			<stop  offset="1" style="stop-color:#000000"/>
		</linearGradient>
		<path class="st6" d="M148.3,334.1c-0.3-6.4-0.4-12.8-0.6-19.2c-1.4-4.6-2.8-9.2-4.1-13.7c-5.7-20.1-11.3-40.2-18.7-59.7
			c-11.8-25.5-26.2-49.8-39.6-74.6l-3.8,9.3l-22.9,57c0,0,0,0,0,0l-14,34.9c0,0,0,0,0,0l-30.5,75.9h134.5
			C148.3,340.9,148.2,337.5,148.3,334.1z"/>
		<linearGradient id="SVGID_7_" gradientUnits="userSpaceOnUse" x1="146.22" y1="311.6472" x2="153.72" y2="352.1472">
			<stop  offset="0" style="stop-color:#C5C5CA;stop-opacity:0"/>
			<stop  offset="1" style="stop-color:#000000"/>
		</linearGradient>
		<path class="st7" d="M257.8,258.4c-3.6,0.5-7.2,1-10.7,1.5l-16.6,40.8c-1.6,3.6-3.6,7.3-3.9,7.9c-4.1,6.3-9,10.3-13.6,11.1h-61.4
			l18.1-45.4c0,0,0,0,0,0l1.4-3.5c-15.6,2.4-31.1,4.8-46.7,7.1c-1.4,0.2-2.8,0.4-4.3,0.6c-0.1,0-0.3,0.1-0.4,0.1
			c-12.5,4-25,5.7-37.7,5.2c-15.2,2-30.5,3.8-45.8,5.4l-22.1,54.9h192.2c14.2-1.4,27.1-8.2,36.3-18.6c0.7-1,5-7.1,7.7-13.2L274,256
			C268.6,256.8,263.2,257.7,257.8,258.4z"/>
		<path class="st8" d="M260,44.3l-21.8,52.8h21.5L276.1,57h46.3c0,0-7.4,21.6-9.1,26.4c-1.7,4.8-11.8,11.7-19.8,13.7h3.5
			c12.8-2.7,19.4-10.4,22.1-16.9c2.7-6.5,14.4-36,14.4-36H260z"/>
		<path class="st9" d="M247.7,113.9c-9.8,0-20.6,10.4-27.9,26.6l-9,22.4v0l-22.1,55.6L175,252.6c0,0,0,0,0,0l-8.3,20.9c0,0,0,0,0,0
			l-18.1,47.2l63.6-0.9l-0.1-3.7c-3.6,0.1-7.2,0.3-10.9,0.5c-8.7,0.5-17.8-0.6-25.3-5.3c-6.9-4.3-9.6-13.4-5.4-20.6
			c2.2-3.8,6.2-6.3,10.4-7.2c-1.2-3.8-1.5-8-0.5-11.9c2.2-8.8,4.9-17.1,8.8-25.4c0.6-1.2,1.1-2.4,1.7-3.5c0-0.1,1-2.7,1.2-3.1
			c0.5-1.6,1-3.2,1.4-4.8c0.2-0.7,0.3-1.4,0.5-2.2c0-0.2,0-0.4,0.1-0.7c0.8-11.2,8.2-19.5,19.4-20.5l0.4-0.9c0,0,0,0,0,0l8.4-21.1
			l13.7-34.4h0l5.6-13.9c4.5-10,11.2-16.5,17.3-16.5h37.4l9.8-10.7H247.7z"/>
		<linearGradient id="SVGID_8_" gradientUnits="userSpaceOnUse" x1="141.193" y1="325.2712" x2="311.193" y2="117.2712">
			<stop  offset="0" style="stop-color:#1E2656"/>
			<stop  offset="0.1683" style="stop-color:#114897"/>
			<stop  offset="0.2889" style="stop-color:#115BA6"/>
			<stop  offset="0.3894" style="stop-color:#1163AD"/>
			<stop  offset="0.4899" style="stop-color:#1B70B8"/>
			<stop  offset="0.6332" style="stop-color:#0088C9"/>
			<stop  offset="0.7915" style="stop-color:#115FAA"/>
			<stop  offset="0.8618" style="stop-color:#174490"/>
			<stop  offset="0.9146" style="stop-color:#18285A"/>
			<stop  offset="1" style="stop-color:#007FC2"/>
		</linearGradient>
		<path class="st10" d="M282.9,114.8h-4h-8h-4h-15h-1.2c-9.8,0-20.6,10.4-27.9,26.6l-9,22.4v0l-22.1,55.6l-13.6,34.1c0,0,0,0,0,0
			l-8.3,20.9c0,0,0,0,0,0l-18.1,45.4h61.4c4.7-0.8,9.5-4.9,13.6-11.1c0.3-0.6,2.4-4.3,3.9-7.9l18.3-45l38.2-95.3c0,0,0,0,0,0
			l18.3-45.7H282.9z M284.3,153.7L284.3,153.7l-23.6,59.1l-34.4,82.8c-1,2.3-2.2,4.5-2.4,4.9c-2.5,3.9-5.5,6.4-8.4,6.9h-38
			l34.2-83.1c0,0,0,0,0,0l5.1-12.9c0,0,0,0,0,0l8.4-21.1l13.7-34.4h0l5.6-13.9c4.5-10,11.2-16.5,17.3-16.5h0.8h9.3h2.5h5h2.5h13.8
			L284.3,153.7z"/>
		<linearGradient id="SVGID_9_" gradientUnits="userSpaceOnUse" x1="153.3103" y1="304.614" x2="277.3102" y2="105.9474">
			<stop  offset="0" style="stop-color:#1E2656"/>
			<stop  offset="0.1683" style="stop-color:#114897"/>
			<stop  offset="0.2889" style="stop-color:#115BA6"/>
			<stop  offset="0.3894" style="stop-color:#1163AD"/>
			<stop  offset="0.4849" style="stop-color:#1B70B8"/>
			<stop  offset="0.6482" style="stop-color:#0076AD"/>
			<stop  offset="0.8618" style="stop-color:#174490"/>
			<stop  offset="0.9146" style="stop-color:#18285A"/>
			<stop  offset="1" style="stop-color:#007FC2"/>
		</linearGradient>
		<path class="st11" d="M211.6,224.3C211.6,224.3,211.6,224.3,211.6,224.3l5.1-12.9c0,0,0,0,0,0l8.4-21.1l13.7-34.4h0l5.6-13.9
			c4.5-10,11.2-16.5,17.3-16.5h0.8h9.3h2.5h5h2.5h13.8l9.6-10.7h-22.3h-4h-8h-4h-15h-1.2c-9.8,0-20.6,10.4-27.9,26.6l-9,22.4v0
			l-22.1,55.6l-13.6,34.1c0,0,0,0,0,0l-8.3,20.9c0,0,0,0,0,0l-18.1,45.4l25.9-12.4L211.6,224.3z"/>
		<linearGradient id="SVGID_10_" gradientUnits="userSpaceOnUse" x1="265.4838" y1="70.722" x2="340.2338" y2="72.597">
			<stop  offset="0" style="stop-color:#1E2656"/>
			<stop  offset="0.1683" style="stop-color:#114897"/>
			<stop  offset="0.2889" style="stop-color:#115BA6"/>
			<stop  offset="0.3894" style="stop-color:#1163AD"/>
			<stop  offset="0.4899" style="stop-color:#1B70B8"/>
			<stop  offset="0.6332" style="stop-color:#0088C9"/>
			<stop  offset="0.7915" style="stop-color:#115FAA"/>
			<stop  offset="0.8618" style="stop-color:#174490"/>
			<stop  offset="0.9146" style="stop-color:#18285A"/>
			<stop  offset="1" style="stop-color:#007FC2"/>
		</linearGradient>
		<path class="st12" d="M261,45.4l-21.5,51.7h21.2l16.2-39.2h45.7c0,0-7.2,21.2-8.9,25.8c-1.7,4.6-11.6,11.4-19.6,13.4h3.4
			c12.7-2.7,19.2-10.2,21.8-16.5c2.7-6.3,14.2-35.2,14.2-35.2H261z"/>
		<linearGradient id="SVGID_11_" gradientUnits="userSpaceOnUse" x1="247.9242" y1="95.809" x2="273.2575" y2="47.809">
			<stop  offset="0" style="stop-color:#1E2656"/>
			<stop  offset="0.1683" style="stop-color:#114897"/>
			<stop  offset="0.2889" style="stop-color:#115BA6"/>
			<stop  offset="0.3894" style="stop-color:#1163AD"/>
			<stop  offset="0.4899" style="stop-color:#1B70B8"/>
			<stop  offset="0.6332" style="stop-color:#0088C9"/>
			<stop  offset="0.7915" style="stop-color:#115FAA"/>
			<stop  offset="0.8618" style="stop-color:#174490"/>
			<stop  offset="0.9146" style="stop-color:#18285A"/>
			<stop  offset="1" style="stop-color:#007FC2"/>
		</linearGradient>
		<polygon class="st13" points="260.7,97.1 276.9,57.9 261,45.4 239.5,97.1 		"/>
		<linearGradient id="SVGID_12_" gradientUnits="userSpaceOnUse" x1="301.5894" y1="98.161" x2="331.8394" y2="44.286">
			<stop  offset="0" style="stop-color:#1E2656"/>
			<stop  offset="0.1683" style="stop-color:#114897"/>
			<stop  offset="0.2889" style="stop-color:#115BA6"/>
			<stop  offset="0.3894" style="stop-color:#1163AD"/>
			<stop  offset="0.4899" style="stop-color:#1B70B8"/>
			<stop  offset="0.6332" style="stop-color:#0088C9"/>
			<stop  offset="0.7915" style="stop-color:#115FAA"/>
			<stop  offset="0.8618" style="stop-color:#174490"/>
			<stop  offset="0.9146" style="stop-color:#18285A"/>
			<stop  offset="1" style="stop-color:#007FC2"/>
		</linearGradient>
		<path class="st14" d="M313.7,83.7c-1.7,4.6-11.6,11.4-19.6,13.4h3.4c12.7-2.7,19.2-10.2,21.8-16.5c2.7-6.3,14.2-35.2,14.2-35.2
			l-10.9,12.5C322.6,57.9,315.4,79.1,313.7,83.7z"/>
		<polygon class="st15" points="152.1,318.3 151.5,319.8 177.4,307.4 178,305.9 		"/>
		<polygon class="st16" points="304.5,114.8 295,125.4 295.6,125.4 305.2,114.8 		"/>
		<polygon class="st17" points="276.9,57.9 261,45.4 260.9,45.8 276.7,58.4 		"/>
		<path class="st17" d="M322.6,57.9c0,0-0.2,0.6-0.4,1l10.9-12.5l0,0c0.3-0.7,0.4-1.1,0.4-1.1L322.6,57.9z"/>
	</g>
</g>
</svg>
