<svg id="Layer_1" data-name="Layer 1" xmlns="http://www.w3.org/2000/svg" viewBox="0 0 663.18 149.11"><defs><style>.cls-1,.cls-65{fill:#231f20;}.cls-1,.cls-10,.cls-11,.cls-12,.cls-13,.cls-14,.cls-15,.cls-16,.cls-17,.cls-18,.cls-19,.cls-2,.cls-20,.cls-21,.cls-22,.cls-23,.cls-24,.cls-25,.cls-26,.cls-27,.cls-28,.cls-29,.cls-3,.cls-30,.cls-31,.cls-32,.cls-33,.cls-34,.cls-35,.cls-36,.cls-37,.cls-38,.cls-39,.cls-4,.cls-40,.cls-41,.cls-42,.cls-43,.cls-44,.cls-45,.cls-46,.cls-47,.cls-48,.cls-49,.cls-5,.cls-50,.cls-51,.cls-52,.cls-53,.cls-54,.cls-55,.cls-56,.cls-57,.cls-58,.cls-59,.cls-6,.cls-60,.cls-61,.cls-62,.cls-63,.cls-64,.cls-65,.cls-7,.cls-8,.cls-9{fill-rule:evenodd;}.cls-2{fill:#292424;}.cls-3{fill:#332d2d;}.cls-4{fill:#383231;}.cls-5{fill:#3e3634;}.cls-6{fill:#453b38;}.cls-7{fill:#4c413d;}.cls-8{fill:#51443f;}.cls-9{fill:#554540;}.cls-10{fill:#5c4a44;}.cls-11{fill:#604b44;}.cls-12{fill:#664e46;}.cls-13{fill:#6a5047;}.cls-14{fill:#6e5046;}.cls-15{fill:#735246;}.cls-16{fill:#775346;}.cls-17{fill:#7c5548;}.cls-18{fill:#805446;}.cls-19{fill:#855647;}.cls-20{fill:#895545;}.cls-21{fill:#8e5745;}.cls-22{fill:#915745;}.cls-23{fill:#955643;}.cls-24{fill:#9b5743;}.cls-25{fill:#9e5541;}.cls-26{fill:#a45641;}.cls-27{fill:#a7543f;}.cls-28{fill:#ab543e;}.cls-29{fill:#b1523c;}.cls-30{fill:#b6523b;}.cls-31{fill:#ba513a;}.cls-32{fill:#be4d36;}.cls-33{fill:#c34c35;}.cls-34{fill:#c74832;}.cls-35{fill:#cc4631;}.cls-36{fill:#d0432f;}.cls-37{fill:#d33e2c;}.cls-38{fill:#d9382a;}.cls-39{fill:#de3428;}.cls-40{fill:#e22e27;}.cls-41{fill:#e52424;}.cls-42{fill:#ed1c24;}.cls-43{fill:#808285;}.cls-44{fill:#86888a;}.cls-45{fill:#8a8c8e;}.cls-46{fill:#8f9194;}.cls-47{fill:#95979a;}.cls-48{fill:#9b9da0;}.cls-49{fill:#a1a3a6;}.cls-50{fill:#a7a9ac;}.cls-51{fill:#adafb2;}.cls-52{fill:#b1b3b6;}.cls-53{fill:#b8babc;}.cls-54{fill:#bec0c2;}.cls-55{fill:#c4c6c8;}.cls-56{fill:#cbccce;}.cls-57{fill:#d1d3d4;}.cls-58{fill:#d8d9da;}.cls-59{fill:#dcddde;}.cls-60{fill:#e2e3e4;}.cls-61{fill:#e9e9ea;}.cls-62{fill:#efeff0;}.cls-63{fill:#f6f6f6;}.cls-64{fill:#fff;}.cls-65{stroke:#231f20;stroke-miterlimit:22.93;stroke-width:0.22px;}</style></defs><title>mclaren</title><path class="cls-1" d="M717.13,357.37c141.28-113.83,263.73-94,91.47,64,40.13-78.18-3.13-98.72-91.47-64Z" transform="translate(-229.82 -285)"/><path class="cls-2" d="M717.41,357.2c140.34-113.05,262.35-93,91.36,63.88,40-78-3.14-98.53-91.36-63.88Z" transform="translate(-229.82 -285)"/><path class="cls-3" d="M717.69,357c139.41-112.27,261-92,91.25,63.82,39.82-77.9-3.15-98.35-91.25-63.82Z" transform="translate(-229.82 -285)"/><path class="cls-4" d="M718,356.88c138.48-111.49,259.59-91.05,91.14,63.74,39.67-77.75-3.16-98.16-91.14-63.74Z" transform="translate(-229.82 -285)"/><path class="cls-5" d="M718.24,356.71c137.54-110.71,258.21-90.06,91,63.67,39.52-77.62-3.17-98-91-63.67Z" transform="translate(-229.82 -285)"/><path class="cls-6" d="M718.52,356.55c136.61-109.93,256.83-89.08,90.92,63.6,39.37-77.48-3.18-97.8-90.92-63.6Z" transform="translate(-229.82 -285)"/><path class="cls-7" d="M718.79,356.39c135.68-109.16,255.44-88.1,90.8,63.53,39.22-77.34-3.19-97.62-90.8-63.53Z" transform="translate(-229.82 -285)"/><path class="cls-8" d="M719.07,356.22c134.75-108.38,254.07-87.11,90.69,63.46,39.07-77.2-3.21-97.43-90.69-63.46Z" transform="translate(-229.82 -285)"/><path class="cls-9" d="M719.35,356.05C853.16,248.46,972,269.93,809.93,419.45c38.91-77.06-3.22-97.25-90.58-63.39Z" transform="translate(-229.82 -285)"/><path class="cls-10" d="M719.62,355.9c132.88-106.82,251.3-85.14,90.47,63.32,38.76-76.92-3.23-97.07-90.47-63.32Z" transform="translate(-229.82 -285)"/><path class="cls-11" d="M719.9,355.73c131.95-106,249.92-84.15,90.36,63.25,38.61-76.78-3.24-96.89-90.36-63.25Z" transform="translate(-229.82 -285)"/><path class="cls-12" d="M720.18,355.57c131-105.26,248.54-83.16,90.25,63.18,38.46-76.64-3.25-96.71-90.25-63.18Z" transform="translate(-229.82 -285)"/><path class="cls-13" d="M720.45,355.4c130.09-104.48,247.16-82.18,90.14,63.11C848.9,342,807.33,322,720.45,355.4Z" transform="translate(-229.82 -285)"/><path class="cls-14" d="M720.73,355.24c129.15-103.7,245.77-81.19,90,63,38.16-76.37-3.27-96.34-90-63Z" transform="translate(-229.82 -285)"/><path class="cls-15" d="M721,355.08c128.22-102.92,244.39-80.21,89.92,63,38-76.23-3.28-96.16-89.92-63Z" transform="translate(-229.82 -285)"/><path class="cls-16" d="M721.28,354.91c127.29-102.14,243-79.22,89.81,62.9,37.86-76.08-3.3-96-89.81-62.9Z" transform="translate(-229.82 -285)"/><path class="cls-17" d="M721.56,354.74c126.35-101.36,241.63-78.24,89.7,62.84,37.71-75.95-3.31-95.79-89.7-62.84Z" transform="translate(-229.82 -285)"/><path class="cls-18" d="M721.83,354.58C847.26,254,962.08,277.33,811.42,417.34c37.55-75.8-3.32-95.6-89.59-62.76Z" transform="translate(-229.82 -285)"/><path class="cls-19" d="M722.11,354.42c124.49-99.8,238.86-76.26,89.48,62.69,37.4-75.67-3.33-95.42-89.48-62.69Z" transform="translate(-229.82 -285)"/><path class="cls-20" d="M722.39,354.25c123.56-99,237.48-75.28,89.37,62.62,37.25-75.53-3.34-95.24-89.37-62.62Z" transform="translate(-229.82 -285)"/><path class="cls-21" d="M722.67,354.09c122.62-98.24,236.1-74.3,89.25,62.55,37.1-75.39-3.35-95.06-89.25-62.55Z" transform="translate(-229.82 -285)"/><path class="cls-22" d="M722.94,353.93c121.69-97.46,234.72-73.31,89.14,62.48,36.95-75.25-3.36-94.88-89.14-62.48Z" transform="translate(-229.82 -285)"/><path class="cls-23" d="M723.22,353.77c120.76-96.69,233.34-72.32,89,62.41,36.8-75.11-3.38-94.69-89-62.41Z" transform="translate(-229.82 -285)"/><path class="cls-24" d="M723.5,353.6c119.82-95.91,232-71.34,88.92,62.34,36.65-75-3.39-94.51-88.92-62.34Z" transform="translate(-229.82 -285)"/><path class="cls-25" d="M723.77,353.44c118.89-95.13,230.57-70.35,88.81,62.27,36.49-74.83-3.4-94.33-88.81-62.27Z" transform="translate(-229.82 -285)"/><path class="cls-26" d="M724.05,353.27c118-94.35,229.19-69.37,88.7,62.2,36.34-74.69-3.41-94.14-88.7-62.2Z" transform="translate(-229.82 -285)"/><path class="cls-27" d="M724.33,353.11c117-93.57,227.81-68.38,88.59,62.13,36.19-74.55-3.42-94-88.59-62.13Z" transform="translate(-229.82 -285)"/><path class="cls-28" d="M724.6,352.95C840.7,260.16,951,285.56,813.08,415c36-74.41-3.43-93.78-88.48-62.06Z" transform="translate(-229.82 -285)"/><path class="cls-29" d="M724.88,352.78c115.16-92,225-66.41,88.37,62,35.89-74.27-3.44-93.6-88.37-62Z" transform="translate(-229.82 -285)"/><path class="cls-30" d="M725.16,352.62c114.23-91.23,223.67-65.42,88.26,61.92,35.74-74.13-3.45-93.42-88.26-61.92Z" transform="translate(-229.82 -285)"/><path class="cls-31" d="M725.43,352.45C838.73,262,947.71,288,813.58,414.3c35.58-74-3.47-93.23-88.15-61.85Z" transform="translate(-229.82 -285)"/><path class="cls-32" d="M725.71,352.29c112.37-89.67,220.9-63.45,88,61.78,35.44-73.86-3.48-93-88-61.78Z" transform="translate(-229.82 -285)"/><path class="cls-33" d="M726,352.13c111.43-88.89,219.52-62.46,87.93,61.71C849.2,340.12,810.42,321,726,352.13Z" transform="translate(-229.82 -285)"/><path class="cls-34" d="M726.26,352c110.5-88.11,218.14-61.48,87.81,61.64,35.13-73.58-3.5-92.68-87.81-61.64Z" transform="translate(-229.82 -285)"/><path class="cls-35" d="M726.54,351.8c109.57-87.33,216.76-60.49,87.71,61.57,35-73.43-3.51-92.5-87.71-61.57Z" transform="translate(-229.82 -285)"/><path class="cls-36" d="M726.81,351.64c108.63-86.55,215.37-59.51,87.59,61.5,34.83-73.3-3.52-92.31-87.59-61.5Z" transform="translate(-229.82 -285)"/><path class="cls-37" d="M727.09,351.47c107.7-85.77,214-58.51,87.49,61.43,34.68-73.15-3.53-92.14-87.49-61.43Z" transform="translate(-229.82 -285)"/><path class="cls-38" d="M727.37,351.31c106.77-85,212.61-57.54,87.38,61.35,34.53-73-3.54-92-87.38-61.35Z" transform="translate(-229.82 -285)"/><path class="cls-39" d="M727.64,351.14c105.84-84.22,211.23-56.55,87.26,61.29,34.37-72.88-3.56-91.77-87.26-61.29Z" transform="translate(-229.82 -285)"/><path class="cls-40" d="M727.92,351c104.9-83.44,209.85-55.57,87.15,61.21,34.22-72.74-3.57-91.58-87.15-61.21Z" transform="translate(-229.82 -285)"/><path class="cls-41" d="M728.2,350.82c104-82.66,208.47-54.58,87,61.14,34.07-72.6-3.58-91.4-87-61.14Z" transform="translate(-229.82 -285)"/><path class="cls-42" d="M728.47,350.65c103-81.88,207.09-53.59,86.93,61.08,33.92-72.46-3.59-91.22-86.93-61.08Z" transform="translate(-229.82 -285)"/><path class="cls-43" d="M858.15,291.55c26-3.52,35.55,7.86,28.57,31.58.11-19.42-10.34-29.37-28.57-31.58Z" transform="translate(-229.82 -285)"/><path class="cls-44" d="M858.57,291.58c25.5-3.39,35,8,28.16,31.24.09-19.08-10.26-29-28.16-31.24Z" transform="translate(-229.82 -285)"/><path class="cls-45" d="M859,291.63c25-3.26,34.4,8.05,27.76,30.88.06-18.74-10.18-28.68-27.76-30.88Z" transform="translate(-229.82 -285)"/><path class="cls-46" d="M859.43,291.67c24.44-3.14,33.82,8.15,27.35,30.52,0-18.4-10.1-28.33-27.35-30.52Z" transform="translate(-229.82 -285)"/><path class="cls-47" d="M859.86,291.72c23.91-3,33.24,8.24,26.95,30.17,0-18.06-10-28-26.95-30.17Z" transform="translate(-229.82 -285)"/><path class="cls-48" d="M860.28,291.76c23.38-2.89,32.67,8.33,26.54,29.81,0-17.71-9.94-27.64-26.54-29.81Z" transform="translate(-229.82 -285)"/><path class="cls-49" d="M860.71,291.81c22.85-2.77,32.09,8.43,26.14,29.46,0-17.37-9.86-27.29-26.14-29.46Z" transform="translate(-229.82 -285)"/><path class="cls-50" d="M861.13,291.85c22.33-2.64,31.51,8.52,25.73,29.1-.06-17-9.78-26.94-25.73-29.1Z" transform="translate(-229.82 -285)"/><path class="cls-51" d="M861.56,291.89c21.8-2.52,30.94,8.62,25.33,28.75-.09-16.68-9.7-26.6-25.33-28.75Z" transform="translate(-229.82 -285)"/><path class="cls-52" d="M862,291.94c21.27-2.39,30.36,8.71,24.92,28.39-.11-16.33-9.61-26.25-24.92-28.39Z" transform="translate(-229.82 -285)"/><path class="cls-53" d="M862.41,292c20.74-2.27,29.78,8.81,24.52,28-.14-16-9.53-25.91-24.52-28Z" transform="translate(-229.82 -285)"/><path class="cls-54" d="M862.84,292c20.21-2.14,29.2,8.91,24.11,27.68-.16-15.65-9.46-25.56-24.11-27.68Z" transform="translate(-229.82 -285)"/><path class="cls-55" d="M863.27,292.07c19.68-2,28.63,9,23.71,27.33-.19-15.3-9.37-25.22-23.71-27.33Z" transform="translate(-229.82 -285)"/><path class="cls-56" d="M863.69,292.11c19.15-1.89,28.05,9.1,23.3,27-.21-15-9.29-24.87-23.3-27Z" transform="translate(-229.82 -285)"/><path class="cls-57" d="M864.12,292.16c18.63-1.77,27.48,9.18,22.9,26.61-.24-14.62-9.21-24.52-22.9-26.61Z" transform="translate(-229.82 -285)"/><path class="cls-58" d="M864.55,292.2c18.1-1.64,26.9,9.28,22.49,26.26-.26-14.28-9.13-24.18-22.49-26.26Z" transform="translate(-229.82 -285)"/><path class="cls-59" d="M865,292.24c17.57-1.52,26.32,9.37,22.09,25.9-.29-13.93-9-23.83-22.09-25.9Z" transform="translate(-229.82 -285)"/><path class="cls-60" d="M865.4,292.29c17-1.39,25.74,9.47,21.68,25.55-.31-13.59-9-23.49-21.68-25.55Z" transform="translate(-229.82 -285)"/><path class="cls-61" d="M865.82,292.33c16.51-1.27,25.17,9.56,21.28,25.19-.33-13.24-8.89-23.14-21.28-25.19Z" transform="translate(-229.82 -285)"/><path class="cls-62" d="M866.25,292.37c16-1.15,24.59,9.66,20.87,24.84-.36-12.9-8.81-22.8-20.87-24.84Z" transform="translate(-229.82 -285)"/><path class="cls-63" d="M866.68,292.42c15.45-1,24,9.75,20.47,24.49-.39-12.56-8.73-22.45-20.47-24.49Z" transform="translate(-229.82 -285)"/><path class="cls-64" d="M867.1,292.46c14.92-.9,23.44,9.84,20.06,24.13-.41-12.22-8.65-22.11-20.06-24.13Z" transform="translate(-229.82 -285)"/><polygon class="cls-65" points="40.88 72.61 86.11 72.61 86.11 96.81 101.94 72.61 138.11 72.61 138.11 147.63 106.45 147.63 106.45 116.17 86.11 147.63 56.71 147.63 56.71 116.17 36.36 147.63 0.18 147.63 40.88 72.61 40.88 72.61"/><path class="cls-65" d="M435.76,427.79V408.43c-43.57,14.16-51.7-22.09,0-12.11V374.55c-86.28-31.56-84,86.8,0,53.25Z" transform="translate(-229.82 -285)"/><path class="cls-65" d="M707.1,372.13h29.39V377c19.54-11.09,34.18-9.84,44.31,2.73,3.21,4.6,3.18,9.24,3.18,16.26v36.68h-29.4V398.75c-3.64-6.59-13.73-6.6-18.09,0v33.91H707.1v-60.5Z" transform="translate(-229.82 -285)"/><path class="cls-65" d="M440.29,432.63v-75H474.2v46h22c-1.46-22.54,14.57-46.36,48.13-26.62v-4.84h29.39v60.5H544.3v-4.83c-21.54,11.23-35.86,5-43-6.87v11.74h-61v0Zm96.09-41.16c5.57,0,10.12,5.46,10.12,12.15s-4.54,12.15-10.12,12.15-10.11-5.46-10.11-12.15,4.54-12.15,10.11-12.15Z" transform="translate(-229.82 -285)"/><path class="cls-65" d="M659.61,393.91H677.7c-.15-12.53-18-13-18.09,0Zm40.74,19.37H690c-8.39,7.39-23.87,6-30.43-4.84H702a27.12,27.12,0,0,0,.8-6.57c0-17.71-17-32.15-37.8-32.15-15.6,0-29.05,8.12-34.8,19.63V369.71c-8.49-.25-16.26,2.12-22.62,9.68v-7.26H578.21v60.5h29.39V410.85c2.74-6.62,9.82-8.13,19.66-7.5.84,15.46,14.64,28.14,32.33,30.32h0l.18,0a44.8,44.8,0,0,0,5.25.3h.22c20,.06,31.75-12.16,35.1-20.72Z" transform="translate(-229.82 -285)"/></svg>