<svg xmlns="http://www.w3.org/2000/svg" xmlns:xlink="http://www.w3.org/1999/xlink" viewBox="0 0 279 261.37"><defs><style>.cls-1{fill:#fff;}.cls-2{fill:url(#linear-gradient);}.cls-3{fill:url(#radial-gradient);}.cls-4{fill:url(#radial-gradient-2);}.cls-5{fill:url(#radial-gradient-3);}.cls-6{fill:url(#radial-gradient-4);}.cls-7{fill:url(#radial-gradient-5);}.cls-8{fill-rule:evenodd;fill:url(#radial-gradient-6);}.cls-9{fill:#9d9fa2;}.cls-10{fill:#6d6e71;}.cls-11{fill:#4d4d4f;}</style><linearGradient id="linear-gradient" x1="368.5" y1="339.8" x2="368.5" y2="552.56" gradientUnits="userSpaceOnUse"><stop offset="0.19" stop-color="#fff"/><stop offset="0.32" stop-color="#cdcccc"/><stop offset="0.47" stop-color="#918f8f"/><stop offset="0.62" stop-color="#615f5f"/><stop offset="0.75" stop-color="#3f3c3d"/><stop offset="0.85" stop-color="#2b2728"/><stop offset="0.92" stop-color="#231f20"/></linearGradient><radialGradient id="radial-gradient" cx="290.31" cy="341.14" r="79.07" gradientTransform="translate(-411.47 -634.93) scale(2.42 2.69)" gradientUnits="userSpaceOnUse"><stop offset="0.2" stop-color="#fff"/><stop offset="0.39" stop-color="#fdfdfd"/><stop offset="0.5" stop-color="#f4f4f5"/><stop offset="0.59" stop-color="#e6e7e8"/><stop offset="0.67" stop-color="#d2d3d5"/><stop offset="0.69" stop-color="#cbccce"/><stop offset="1" stop-color="#58595b"/></radialGradient><radialGradient id="radial-gradient-2" cx="481.66" cy="467.78" r="164.67" gradientTransform="translate(-411.47 -634.93) scale(2.42 2.69)" gradientUnits="userSpaceOnUse"><stop offset="0.2" stop-color="#fff"/><stop offset="0.34" stop-color="#ebeced"/><stop offset="0.59" stop-color="#cbccce"/><stop offset="1" stop-color="#58595b"/></radialGradient><radialGradient id="radial-gradient-3" cx="309.31" cy="431.44" r="50.55" xlink:href="#radial-gradient-2"/><radialGradient id="radial-gradient-4" cx="350.1" cy="483.13" r="95.92" xlink:href="#radial-gradient-2"/><radialGradient id="radial-gradient-5" cx="321.39" cy="370.66" r="76.23" gradientTransform="translate(-411.47 -634.93) scale(2.42 2.69)" gradientUnits="userSpaceOnUse"><stop offset="0.2" stop-color="#fff"/><stop offset="0.4" stop-color="#fdfdfd"/><stop offset="0.52" stop-color="#f4f4f5"/><stop offset="0.62" stop-color="#e6e7e8"/><stop offset="0.7" stop-color="#d2d3d5"/><stop offset="0.73" stop-color="#cbccce"/><stop offset="1" stop-color="#6d6e71"/></radialGradient><radialGradient id="radial-gradient-6" cx="323.15" cy="378.29" r="51.34" gradientTransform="translate(-411.47 -634.93) scale(2.42 2.69)" gradientUnits="userSpaceOnUse"><stop offset="0.11" stop-color="#6d6e71"/><stop offset="0.24" stop-color="#6a6b6e"/><stop offset="0.35" stop-color="#616164"/><stop offset="0.44" stop-color="#525154"/><stop offset="0.53" stop-color="#3d3b3c"/><stop offset="0.61" stop-color="#231f20"/></radialGradient></defs><title>Nissan</title><rect class="cls-1" y="14.13" width="141.73" height="141.73"/><path class="cls-2" d="M496.32,435c-2.53-.79-5.36-1.16-11.31-2-24.63-1.12-85.49-3.75-116.51-3.75S276.63,431.89,252,433c-6,.82-8.78,1.19-11.32,2-7.74,2-9.45,5.12-9.45,11.29v42.26c0,6.16,5.94,10.32,10,11.16a100.4,100.4,0,0,0,11,1.64c22,1.51,73.13,4.68,116.22,4.73s94.2-3.21,116.22-4.73a100.4,100.4,0,0,0,11-1.64c4.1-.84,10-5,10-11.16V446.28C505.77,440.11,504.07,437,496.32,435Z" transform="translate(-226.77 -335.95)"/><path class="cls-3" d="M269.74,436.65c12.12-46.87,51.94-81.26,99.2-81.26s86.87,34.2,99.1,80.88c0,.17.06.25.11.41a115.09,115.09,0,0,0,17.77-3.55c-.08-.3-.1-.36-.17-.66-13.91-55.61-60.93-96.52-116.8-96.52-56.06,0-103.21,41.18-116.94,97.06A102.41,102.41,0,0,0,269.74,436.65Z" transform="translate(-226.77 -335.95)"/><path class="cls-4" d="M467.75,498.08l-.32,1.1c-12.89,45.56-52.1,78.7-98.49,78.7-46.75,0-86.22-33.65-98.79-79.75-7.68,1.51-10.28,2.09-17.87,3.21,14.07,55.33,61,96,116.66,96s102.63-40.7,116.68-96.08C478.93,500.33,475,499.64,467.75,498.08Z" transform="translate(-226.77 -335.95)"/><path class="cls-5" d="M272.21,436.55c2.92-1.34,5.74-3.48,10.14-4.85,13.12-37.89,46.93-64.86,86.58-64.86s73.26,26.81,86.46,64.52c0,.13.09.28.13.38,2.27.88,9,3.89,11,4.9l1.58.05-.11-.41c-12.24-46.67-52-80.86-99.1-80.86s-87.07,34.38-99.19,81.23C270.45,436.65,271.78,436.58,272.21,436.55Z" transform="translate(-226.77 -335.95)"/><path class="cls-1" d="M368.19,358.59c44.22,0,83.42,29.31,98.26,77.63l.12.41,1.58.05c0-.18-.08-.28-.11-.41-12.24-46.67-52-80.86-99.1-80.86s-87.07,34.38-99.19,81.23c.95,0,1.4,0,2.47-.1C285.49,390.68,324.3,358.59,368.19,358.59Z" transform="translate(-226.77 -335.95)"/><path class="cls-6" d="M465.24,498.22a56.58,56.58,0,0,1-10.29,5l-.26.73c-13.67,36.66-46.91,62.54-85.75,62.54-39.08,0-72.49-26.19-86-63.21a73.3,73.3,0,0,1-11.13-5l-1.66-.09c12.57,46.1,52,79.75,98.79,79.75,46.54,0,85.86-33.34,98.62-79.12l.19-.68C467,498.12,465.89,498.22,465.24,498.22Z" transform="translate(-226.77 -335.95)"/><path class="cls-7" d="M494.12,438.05c-6.52-.88-11-.79-26.86-1.4l-2.2-.08C436.25,435.47,393,434,368.5,434s-67.74,1.47-96.56,2.57l-2.2.08c-15.89.61-20.34.52-26.86,1.4s-11.65,4.06-11.65,9.47V486.7c0,5.4,6.17,9.78,11.65,9.78,0,0,69.65,4.78,125.62,4.83s125.62-4.83,125.62-4.83c5.47,0,11.65-4.38,11.65-9.78V447.52C505.77,442.12,500.64,438.94,494.12,438.05Z" transform="translate(-226.77 -335.95)"/><path class="cls-8" d="M424.28,455.4c-2.29-5.69-1.48-5.09-6.46-5.24a13.16,13.16,0,0,0-3-.15,17.61,17.61,0,0,0-3,.15c-4.71,0-3.91-.3-5.52,3.44,0,0-8.08,20.21-11.58,28.59l-.13.3c-.67,1.5-.27,1.5.81,1.5h7.27a1,1,0,0,0,.94-.6s1.08-2.55,2.43-6.14h17.77c1.35,3.44,2.29,6,2.29,6.14a.89.89,0,0,0,.94.6h7.54c1.08,0,1.35.15.94-.9-1.35-3.59-10.1-24.56-11.31-27.7ZM408.8,470.08c2.29-6,4.58-11.83,4.58-12a.8.8,0,0,1,.81-.45c.13-.15.54-.15.94-.15s.67,0,.81.15.54.15.67.6c.54,1.65,2.56,6.74,4.45,11.83Zm-97-20.36c.67,0,.81.3.81.9v32c0,.75-.13,1-.94,1h-7c-.81,0-.94-.15-.94-1v-32c0-.6.13-.9.67-.9Zm-14.95.3c.81,0,.94.3.94,1V483c0,.9-.14,1-.94,1h-8.21c-4.85,0-5.25,0-6.87-3-3.37-5.84-13.47-23.06-13.47-23.06v25c0,.9-.13,1-.94,1h-6.06c-.81,0-.94-.15-.94-1V451.06c0-.75.13-1,.94-1h7c5.25,0,5.93-.15,7.81,2.85,1.48,2.69,13.73,23.65,13.73,23.65V451.06c0-.75.13-1,.94-1Zm179.77,0c.81,0,.94.3.94,1V483c0,.9-.13,1-.94,1h-8.21c-4.85,0-5.25,0-6.87-3-3.37-5.84-13.47-23.06-13.47-23.06v25c0,.9-.14,1-.94,1h-6.06c-.81,0-.94-.15-.94-1V451.06c0-.75.14-1,.94-1h7c5.25,0,5.93-.15,7.81,2.85,1.61,2.69,13.73,23.65,13.73,23.65V451.06c0-.75.13-1,.94-1Zm-134,13c5.39.6,9.29,1.65,10.37,7.33,0,.45.13,1.95.13,3.59a16.84,16.84,0,0,1-.27,3.59C352,483,348.34,484,342.68,484H320.06c-.81,0-.94-.15-.94-1v-5.39c0-.9.13-1,.94-1h22.89c.94,0,1.21-.3,1.35-1v-2.25c-.13-.6-.27-1.5-1.48-1.65-2.56-.15-10.1-.9-15.22-1.5-6.6-.75-8.21-3.89-8.48-6.59a23.4,23.4,0,0,1-.13-3.14,28.16,28.16,0,0,1,.13-3.29c.94-4.79,4.18-7,9.83-7h21.95c.81,0,1.08.15,1.08.9v5.54c0,.75-.27,1-1.08.9H329.35c-.94,0-1.35.45-1.48,1.5v1.35a1.43,1.43,0,0,0,1.35,1.5c2.56.3,10.51,1,13.47,1.35Zm38.91,0c5.39.6,9.29,1.65,10.37,7.33,0,.45.13,1.95.13,3.59a16.84,16.84,0,0,1-.27,3.59c-.94,5.39-4.58,6.44-10.24,6.44H359c-.81,0-.94-.15-.94-1v-5.39c0-.9.13-1,.94-1h22.89c.94,0,1.21-.3,1.35-1v-2.25a1.81,1.81,0,0,0-1.48-1.65c-2.56-.15-10.1-.9-15.22-1.5-6.6-.75-8.08-3.89-8.48-6.59a23.4,23.4,0,0,1-.13-3.14,28.16,28.16,0,0,1,.13-3.29c.94-4.79,4.18-7,9.83-7h22c.81,0,1.08.15,1.08.9v5.54c0,.75-.27,1-1.08.9H368.27c-.94,0-1.35.45-1.48,1.5v1.35a1.34,1.34,0,0,0,1.35,1.5c2.56.3,10.5,1,13.46,1.35Z" transform="translate(-226.77 -335.95)"/><path class="cls-1" d="M465.24,498.22c-13.67,45.09-52.11,76.5-95.54,76.5-43.87,0-82.8-28.85-97.9-76.5l-1.65-.09c12.57,46.1,52,79.75,98.8,79.75s86.25-33.68,98.81-79.8Z" transform="translate(-226.77 -335.95)"/><path class="cls-9" d="M465.33,498.21h-.09a56.58,56.58,0,0,1-10.29,5l-.26.73A101.23,101.23,0,0,1,436.27,535,107.24,107.24,0,0,0,465.33,498.21Z" transform="translate(-226.77 -335.95)"/><path class="cls-10" d="M304.25,537.93a100.89,100.89,0,0,1-21.32-34.68,73.41,73.41,0,0,1-11.13-5,99.57,99.57,0,0,0,7.75,14.49,107.51,107.51,0,0,0,21.74,23.19Q302.75,536.95,304.25,537.93Z" transform="translate(-226.77 -335.95)"/><path class="cls-11" d="M270.15,498.13h0c-7.66,1.51-10.26,2.08-17.84,3.2q.92,3.61,2,7.14Z" transform="translate(-226.77 -335.95)"/></svg>