<svg id="Layer_1" data-name="Layer 1" xmlns="http://www.w3.org/2000/svg" viewBox="0 0 146.17 181.81"><defs><style>.cls-1,.cls-4{fill:#f9ca55;}.cls-1,.cls-2{stroke:#231f20;stroke-miterlimit:2.61;stroke-width:0.99px;}.cls-1,.cls-3,.cls-4,.cls-5{fill-rule:evenodd;}.cls-2{fill:none;}.cls-3{fill:#231f20;}.cls-5{fill:#eb2e2e;}</style></defs><title>Artboard 1</title><path class="cls-1" d="M114.19,155.61c-10.9,9.93-20.28,15.28-40,25.65a191.64,191.64,0,0,1-40.82-24.74C18.93,145.32,8.6,127.12,7.7,116L.52,9.77C49.16-2.88,100.9-2.59,145.65,10.62l-7.29,105.12c-.93,9.52-9.44,28-24.17,39.87Z"/><path class="cls-1" d="M130,112.26l6.57-93.87C98.09,6.12,52,5.94,9.45,17.1l6.71,95.1c.7,9.88,7.82,25,21.47,36.58,8.21,7,24.3,18.68,36.19,23.17a182.35,182.35,0,0,0,36-24c12.24-11.14,19.46-25,20.2-35.64Z"/><path class="cls-1" d="M108.24,145.42c-9.46,8.16-22.19,17.3-34.43,23.14C62.88,165.18,46.73,152.71,39,146c-13.56-11.7-19.07-24-19.9-35.54L12.47,19.7C52.94,9.07,97.12,9.07,133.82,20.76l-6.51,89.57c-.94,11.92-6.48,23.3-19.07,35.1Z"/><path class="cls-2" d="M15.49,21.46,16.8,37.11m0,0c38.63-9.66,79.11-8.69,112.7,1.47m0,0,1.44-15.92m0,0C96.13,12,53.87,11.41,15.49,21.46"/><polygon class="cls-3" points="111.57 27.27 102.86 25.83 102.52 29.92 99.68 29.5 100.35 18.64 103.25 19.07 102.95 23.23 111.78 24.66 112.07 20.49 115.03 21.05 114.13 31.94 111.25 31.41 111.57 27.27 111.57 27.27"/><path class="cls-3" d="M69.51,23.58A2.59,2.59,0,0,1,67,22.36a6,6,0,0,1,0-4.12A2.47,2.47,0,0,1,69.32,17l12.36,0,0,2.67L70,19.66c-.58,0-.59,1.29,0,1.29h9.21a2.48,2.48,0,0,1,2.34,1.5,8.13,8.13,0,0,1,0,3.82,2.34,2.34,0,0,1-2.44,1.32H67l0-2.73H77.82a.64.64,0,1,0,0-1.27Z"/><path class="cls-3" d="M62.37,24.67a1,1,0,0,0-1.06-1l-8.2.59.17,4.06-2.66.27-.56-10.72L62.26,17a2.33,2.33,0,0,1,2.58,2c.09,1.17.14,2.67-.77,3.29a2.9,2.9,0,0,1,1,2.56l0,2.74-2.66.11,0-3Z"/><path class="cls-4" d="M60.63,21.19c1-.06,1-1.68,0-1.59l-7.8.59.09,1.49,7.71-.48Z"/><path class="cls-3" d="M35.06,19.77a87.62,87.62,0,0,1,10.32-1.61,2.05,2.05,0,0,1,2.35,1.5,26.62,26.62,0,0,1,.36,7.52A2.16,2.16,0,0,1,46.27,29a88.28,88.28,0,0,1-10.19,1.44A2.1,2.1,0,0,1,34,29a28.77,28.77,0,0,1-.53-7.43,2.2,2.2,0,0,1,1.59-1.8Z"/><path class="cls-4" d="M44.81,26.3a.8.8,0,0,0,.53-.73,14.53,14.53,0,0,0-.18-3.74c-.06-.29-.3-.47-.85-.42a70.09,70.09,0,0,0-7.36,1.08c-.52.12-.71.42-.74.7a19.43,19.43,0,0,0,.3,3.76.63.63,0,0,0,.64.42,65.48,65.48,0,0,0,7.67-1.06Z"/><path class="cls-3" d="M87.86,20.22a1,1,0,0,0-1,.64,24.76,24.76,0,0,0-.18,3.55c0,.2.33.74.62.79,2.61.37,7.68.82,10.45,1L97.56,29c-3.63-.17-7.42-.74-11.36-1a2.15,2.15,0,0,1-2.28-2A35.61,35.61,0,0,1,84.34,19a2.31,2.31,0,0,1,2.5-1.65,109.29,109.29,0,0,1,11.26,1.09l-.18,2.79c-2.31-.2-6.68-.88-10.07-1Z"/><path class="cls-3" d="M28.46,21c3.67-.86,4.23,5.66,1.17,6.41l-8.56,2.14.41,4.21-2.69.71-1-11L28.46,21Z"/><path class="cls-4" d="M28.41,25.3c.88-.2.76-1.77-.18-1.58L20.5,25.59l.18,1.62,7.73-1.91Z"/><polygon class="cls-3" points="119.26 28.89 119.08 30.65 127.56 32.79 127.34 35.25 115.95 32.56 116.94 21.51 128.4 24.29 128.14 26.86 119.61 24.8 119.44 26.66 127.91 28.73 127.7 30.91 119.26 28.89 119.26 28.89"/><path class="cls-2" d="M50.35,77.05v-15l21.81,0V32.27m0,0a203.25,203.25,0,0,0-55.29,7.11m0,0,4.07,56H50.35V77.05"/><path class="cls-3" d="M50.32,67c0-.2-2.41-.38-3.61-.23-3.19.38-11.16,2.88-14.53,5.2a11.11,11.11,0,0,1-.29,1.82,2.46,2.46,0,0,1-1.18,1.17c-.87.38-1.87-.77-2.31-.61a2.46,2.46,0,0,1-2.47-.18,2.09,2.09,0,0,1-.55-2,3.06,3.06,0,0,1,.91-1.21c.3-.3.09-1.47,1.18-2.17.76-.48,1.81-.09,2.61.33a1.18,1.18,0,0,0,.44-.26c.11-.32.27-1.29.42-2a21.5,21.5,0,0,1,.49-2.11A15.66,15.66,0,0,1,35,58.85,7,7,0,0,1,39.46,57c-.14.21-1.85,1.74-2.35,2.43a18.49,18.49,0,0,0-2.79,6.06,2.27,2.27,0,0,0-.06,1.41c1.12-.5,2.58-1,3.43-1.26.33-.74.52-1.59.8-2.27a13.28,13.28,0,0,1,1.21-2.26C41.06,59,43.91,57,46,57a19,19,0,0,0-2.73,3A15.36,15.36,0,0,0,42,62.48a7.56,7.56,0,0,0-.46,1.94,15.14,15.14,0,0,1,2.87-.59c.47-.26.62-.76.88-1.23a10.78,10.78,0,0,1,3.38-3.73,4.09,4.09,0,0,1,2.84-.59,11.12,11.12,0,0,0-2.29,2.43,6.92,6.92,0,0,0-1.12,2.68,8.48,8.48,0,0,0,2.14-.09l0,3.65v0Z"/><path class="cls-3" d="M40.65,42.4c1.15-1.61,4.19-4,6.53-3.89A15.82,15.82,0,0,0,44,42.15a14.52,14.52,0,0,0-2,5.41,36,36,0,0,1,3.64-1,15.44,15.44,0,0,1,3.64-5.44,5.88,5.88,0,0,1,4.07-1.44A8.93,8.93,0,0,1,52,40.86a7.07,7.07,0,0,0-1.67,2.42A24.78,24.78,0,0,0,49.5,46a19.66,19.66,0,0,1,3.29.23c1.23-1.61,3.92-3.94,7.14-3.41-1.4.76-3.95,3-3.79,4.18,2.09,1.35,5.22,4.18,5.36,6.81a15.86,15.86,0,0,0-5-3.36,18.41,18.41,0,0,0-9-.62C41.59,51,36.38,53.52,31.39,56.5a6.14,6.14,0,0,1-.93,2.42,2.69,2.69,0,0,1-1.5.89,3.55,3.55,0,0,1-2.14-.52c-.41-.23-1.49.06-2.17-.3a1.87,1.87,0,0,1-1-2c.17-1,1.12-1.53,1.26-2.44a2.3,2.3,0,0,1,1.67-2,2.72,2.72,0,0,1,1.61.3,5.35,5.35,0,0,0,.64.35,7,7,0,0,0,.65-.38c0-.15.55-2.93.82-4.14a30.49,30.49,0,0,1,1.14-3.38c1.18-3.37,4.84-6.76,7.77-6.58a32.42,32.42,0,0,0-2.4,2.41c-2.11,2.47-2.64,5.09-3.43,9.6,1.62-.76,3-1.3,4.51-1.84a25.88,25.88,0,0,1,1.4-4.08,14,14,0,0,1,1.37-2.43Z"/><polygon class="cls-5" points="129.12 46.13 74.87 46.18 74.91 62.13 127.91 62.1 129.12 46.13 129.12 46.13"/><path class="cls-3" d="M87.34,117.47a24.71,24.71,0,0,0-.53,4.17c.93-.38,1.79-.71,2.55-.94A32.12,32.12,0,0,1,91,117.62a12.47,12.47,0,0,1,4.54-4.26,5,5,0,0,1,3.86-.67,13.2,13.2,0,0,0-3.72,3,8.8,8.8,0,0,0-1.93,3,5.85,5.85,0,0,0-.12.61,42.16,42.16,0,0,1,4.28-.74c.12,0,.44-.7.68-1a14,14,0,0,1,1-1.21c1.25-1.35,3.36-2.79,5.4-2.47a9.87,9.87,0,0,0-3.34,3.64c-.14.27-.32.65-.24.82.3.06,1.81,0,2.72.14a10.68,10.68,0,0,1,3.35-1.49,5,5,0,0,1,3.81.57,5.56,5.56,0,0,0-2.34.39,3.45,3.45,0,0,0-1.59,1.11A11,11,0,0,1,112,122.7c1.11,1.5,1.34,4.2.74,5a8.1,8.1,0,0,0-.61-1.38,9,9,0,0,0-2.08-2.39c-3.45-2.62-8.41-2.76-12.46-1.94-3.48.71-9.75,2-13.85,4.93a2,2,0,0,1-.68,1.71c-.62.45-1.5-.17-2,.08a2.2,2.2,0,0,1-1.72,0,1.65,1.65,0,0,1-1-1.44c0-.52.46-1.14.56-1.7,0-.23-.2-1.35.76-1.93a2.11,2.11,0,0,1,1.11-.24c.38.08.68.32,1.06.38a7.42,7.42,0,0,0,1.47-.71,30.71,30.71,0,0,0,.68-3.71l3.26-1.86Z"/><path class="cls-2" d="M84.07,119.33a24.46,24.46,0,0,1-9.29,2.38m0,0,0,43.62m0,0c12.68-6.43,26.58-16.95,32.5-22.72,9.58-9.32,16-18.77,17-32.38m0,0,.9-12.4-28.8,0m0,0c0,7-2.34,14.32-9.09,19.64m0,0-3.25,1.9"/><path class="cls-3" d="M87.86,133.61c.46-.7,1-1.71,1.28-2.15a8.7,8.7,0,0,1,3.28-3.11c1.29-.62,3.37-1,4.29-.53a7.17,7.17,0,0,0-2.5,1.21,14.05,14.05,0,0,0-2.52,2.35,7.78,7.78,0,0,0-.79,1.44,18.53,18.53,0,0,1,3.25-.47,18.75,18.75,0,0,1,2.9-2.94,4.48,4.48,0,0,1,3.66-.68,9,9,0,0,0-3.58,2.84,2.73,2.73,0,0,0-.32.64c.56,0,1.62.15,2.2.23a19.55,19.55,0,0,1,2.35-1.17c.93-.26,2.44-.59,3.4.43a5,5,0,0,0-1.87.3,2.89,2.89,0,0,0-1.4,1,9.47,9.47,0,0,1,3.87,3,3.42,3.42,0,0,1,.53,2.46,6.2,6.2,0,0,0-1.58-1.43,13.58,13.58,0,0,0-2.09-1.14,20.22,20.22,0,0,0-9.11-.91,27.77,27.77,0,0,0-10.49,3.87,1.73,1.73,0,0,1-.61,1.74c-.87.44-1.7-.3-1.85-.26a2.24,2.24,0,0,1-1.43.11,1.45,1.45,0,0,1-.62-1.64,4,4,0,0,1,.76-1,1.41,1.41,0,0,1,1.35-1.59c.47,0,.8.32,1.18.39l.77-.38c.21-.76.53-1.53.74-2.17a12.6,12.6,0,0,1,1.52-3,5.89,5.89,0,0,1,4.6-2.84,7.08,7.08,0,0,0-1.34,1.2,14.44,14.44,0,0,0-1.61,2.44,7.86,7.86,0,0,0-.85,2.94c.73-.35,1.85-.86,2.61-1.17Z"/><path class="cls-3" d="M87.57,141.81a3.31,3.31,0,0,1,1.61-.3,6,6,0,0,0-2.76,3.44c0,.15,0,.45.11.55a14.28,14.28,0,0,0,1.53-.41,8.26,8.26,0,0,1,.79-1.15c.91-1.21,2.22-2.43,4-2a4.8,4.8,0,0,0-2.38,2.21c-.09.17-.15.48,0,.48l1.63,0c.53-.47,2.08-1.36,3.14-1a5.44,5.44,0,0,0-1.44,1,1,1,0,0,0-.27.45,12.13,12.13,0,0,1,2.55,1.67,4.59,4.59,0,0,1,1.37,2.12,12.88,12.88,0,0,0-5.51-2.27,13.29,13.29,0,0,0-3.05.3,28,28,0,0,0-7.47,3,1.6,1.6,0,0,1-.56,1.38c-.33.27-1.06.41-1.34,0-.15-.21-1.14,0-1.35-.26a2,2,0,0,1-.29-.87,1.34,1.34,0,0,1,.58-1.06c.08-.09.06-.94.7-1.23a1.14,1.14,0,0,1,1.12.09c.14-.08.24-.15.33-.21a10.32,10.32,0,0,1,.62-2.88c.5-1.4,2.14-3.09,3.55-3a8.48,8.48,0,0,0-2,3.64,9.83,9.83,0,0,0-.11,1.47,6.9,6.9,0,0,1,1.06-.53c.15-.36.59-1.27.82-1.68a7.22,7.22,0,0,1,3-2.89Z"/><path class="cls-5" d="M22.39,111.83a33.31,33.31,0,0,0,5.3,16.05H71.85l-.09-6.16c-5.68,0-14.35-3.74-17.78-9.87l-31.59,0Z"/><path class="cls-2" d="M52.75,98.07c0,28,41.08,28,41.08.29m0,0,0-33.75H52.75V98.07"/><path class="cls-3" d="M66,84.63a3.9,3.9,0,0,0,1-1.82c.08-.48-1.29-.45-1.79-.15a2.91,2.91,0,0,0-.74.8.74.74,0,0,1-1,.15c-.29-.27.23-.74.21-1,0-.48-.93.24-1.35,0a.57.57,0,0,1-.11-.83c.11-.14.41-.08.55-.23A1.23,1.23,0,0,0,63,81c.06-.23.3-.33.46-.5A8.37,8.37,0,0,1,65.3,79c.5,0,1.21.3,1.65.08.09,0,.26-.2.11-.29L65.88,78a.83.83,0,0,1,.27-.65c.55-.48,1.4-.15,2.11-.26a2.43,2.43,0,0,0,1.34-.62c.09.36-.14.73-.14,1.11.46.42.93.79,1.37,1.2a7.5,7.5,0,0,1,2,4.87c.08.77.08,1.56.08,2.85A9.21,9.21,0,0,0,72,79a12.24,12.24,0,0,0-1.61-1.82c.06-.61.58-1.64,1.06-1.26.32.24-.15.61.18.82a1.72,1.72,0,0,0,1.12.15,10.24,10.24,0,0,1,1.53-.32c.23,0,.61-.12.68.11s-.11.26-.27.32-.5,0-.67.18-.27.29-.23.48a.42.42,0,0,0,.55.27,12,12,0,0,1,2.81-.42c.5,0,.4.36.15.5a1.78,1.78,0,0,1-.59.18c-.9.11-1.56.17-1.46.68.08.35.64,0,.76.27s-.24.42-.21.61c.09.58,1.2.45,1.72.33s1-.39,1.17-.15a.4.4,0,0,1-.18.61,4.76,4.76,0,0,0-1.75.73.64.64,0,0,0,.33.91,13,13,0,0,1,1.88.23.45.45,0,0,1,.36.41c0,.23-.23.3-.41.36-.35.11-.94.11-1.26.24-.11,0-.32.12-.29.24s.55.17.93.21c.21,0,.62.18.62.41s-.21.32-.59.29a3.48,3.48,0,0,0-1.4.14c-.08,0-.53.09-.52.3s.52.09.64.35-.23.38-.26.68c0,.12.06.18.18.23a2.19,2.19,0,0,0,1.24.08c.41-.08.56.47.46.53-.53.29-1.72,0-2,.15s.64.79.61.91a.46.46,0,0,1-.24.3c-.52.2-1.18-.18-1.56,0s-.18.7-.38,1-.79.18-1,.36a.74.74,0,0,0,0,1.11,3.3,3.3,0,0,0,.88.61c1.58.79,3.22,1.58,4.75,1.47a11.35,11.35,0,0,1,2.79.09,8.63,8.63,0,0,1,2.35,1.24,1.91,1.91,0,0,0,1.53.12.83.83,0,0,0,.53-.91c-.23-1.21-2.23-1.59-2.26-2.8a6.18,6.18,0,0,0-.61-3c-.17-.33-.2-1.11.2-1.21s.42.36.68.26c1.17-.46,1.22-2.31,2.43-2.65.71-.2,3.11-.23,2.91-.53a1.69,1.69,0,0,1,0-1.91c.18-.24.68-.49.88-.24s-.41.7-.36,1.17.68,1.29.2,1.74c-.29.27-2.46.36-3.1,1.33-.39.59-.44,1.06,0,1s.7-.5,1-.76c.62-.45,1.12-.64,1.47-.3.18.17-.06.49-.39.58s-.94.8-.76,1,1.79-1,2.17-.76c.2.15-.74,1.12-.58,1.38s.84-.18,1,.06-.5,1.08-1,1.39-.21,1.08-.71,1.33-.82.76-.76.83.2.21.41.08c.62-.39,1.4-.86,1.72-.74s-.08.94-.3,1.35.93.18.76.53a1.7,1.7,0,0,0-.12,1c.09.47-1.24.58-1.37.89a.31.31,0,0,0,.27.47A.67.67,0,0,1,91.23,96a2.13,2.13,0,0,1-1.79.48,6.33,6.33,0,0,1-2.5-.86.39.39,0,0,0-.61.18c0,.26.23.73.35,1.12a3.41,3.41,0,0,1-.12,1.91c-.42,1.2-1.56,2.2-1.88,3.64a2.24,2.24,0,0,0,.18,1.21,9.19,9.19,0,0,0,1.37,2.2.91.91,0,0,1,.09.65c-.12.3-1.06,1-1.34,1.21a5.37,5.37,0,0,0-1.78,3c-.06.41-.94.82-1.53,1a3.41,3.41,0,0,0-1.26.53c0,.33.15.62.2,1,.08.58-.65.86-1.21,1a2.46,2.46,0,0,1-.84.17c-.11,0-.14-.18-.12-.27a9.21,9.21,0,0,1,.62-2.08,2,2,0,0,1,.52-.61l2.17-1.82,1.7-2.44a1.08,1.08,0,0,0,.21-.59,1.63,1.63,0,0,0-.53-1.21,6.46,6.46,0,0,0-1.52-.68A13.19,13.19,0,0,1,80,103.47c-.33-.17-.53.44-.58.79a13.08,13.08,0,0,0,.08,1.56.74.74,0,0,1-.15.53c-1.43.82-3.2,1.12-4.25,2.43a3,3,0,0,1-.59.64c-.59.41-1.58-.06-2,.58-.2.29,0,.67,0,1s-.39.42-.67.56a3.38,3.38,0,0,1-1.15.29c-.44-.21-.17-.83,0-1.27a2.72,2.72,0,0,1,.71-1.21,9.64,9.64,0,0,1,1.58-1.23c.35-.17.88-.17,1.3-.33a4.59,4.59,0,0,0,1.26-.61A4.2,4.2,0,0,0,77,105.62a2.36,2.36,0,0,0-.15-2.43,9.93,9.93,0,0,1-1.29-1.84,1.24,1.24,0,0,1,.21-1.2s-.2-.14-.3-.11a15.52,15.52,0,0,1-6.39-1c-.53-.21-1.08-.89-1.46-.94s-.56.39-.91.49a6,6,0,0,1-1.94,0,21.15,21.15,0,0,1-3.48-.77,1.44,1.44,0,0,0-.55.17,1.06,1.06,0,0,0-.3.83c0,.41.09.79,0,1.21,0,.21-.14.44-.07.64s.3.35.47.5a1.76,1.76,0,0,1,.32,1.21c0,.47-.17,1.09.23,1.41.24.2.58-.06.88,0s.44.47.46.79a2.65,2.65,0,0,1-.49,1.33c-.14.14-.36,0-.53,0a2.36,2.36,0,0,1-1.09-.94c-.11-.18-.11-.41-.21-.61a2.32,2.32,0,0,0-.77-.76,1.73,1.73,0,0,1-.5-1.21,6.51,6.51,0,0,1,.06-1.21,7.7,7.7,0,0,0-.15-2.43A4.06,4.06,0,0,1,58.76,97a1,1,0,0,1,.55-.68,17.41,17.41,0,0,0,4.33-.76l-.91-.89c-.23,0-.41.23-.64.23s-.58-.35-.67-.47a7.48,7.48,0,0,1-1-2.32,1.68,1.68,0,0,0-1.61-.94,2.34,2.34,0,0,0-1.52,1.82c0,.21.11.39.08.61a1.57,1.57,0,0,1-.58.86,2.09,2.09,0,0,0-.61.88,1.29,1.29,0,0,0,.15.91.8.8,0,0,1,.12.61c-.18.5-1.38,1-1.73,1-.12,0-.23-.17-.27-.3a2.89,2.89,0,0,1,0-1.4,3.11,3.11,0,0,0,.7-1.21,10.16,10.16,0,0,1,.38-1.82,39.5,39.5,0,0,1,3.08-4.24.77.77,0,0,1,.74-.15c.82.53,1.31,1.18,2.09,1.59.43.21,1,.53,1.34.23s.44-2.33.68-2.85a18.77,18.77,0,0,1,2.52-3Z"/><polygon class="cls-3" points="81.1 72 80.76 73.27 79.55 73.27 81.13 67.3 82.51 67.3 84.03 73.23 82.81 73.23 82.51 72 81.1 72 81.1 72"/><path class="cls-3" d="M77.91,69c0-.39-.11-.91-.43-1a.71.71,0,0,0-.83.21,3.61,3.61,0,0,0-.24,1.88,7.41,7.41,0,0,0,.12,1.62c.26.8.94.85,1.28.35A2.15,2.15,0,0,0,78,70.91h-.7V70h1.81v3.21H78.2v-.44a3.4,3.4,0,0,1-.58.41,1.92,1.92,0,0,1-1.35-.06,2,2,0,0,1-.94-1.38,11.67,11.67,0,0,1-.09-2.43,2.62,2.62,0,0,1,1.06-2.11A2.38,2.38,0,0,1,78,67.18,1.83,1.83,0,0,1,79,69Z"/><path class="cls-3" d="M57.57,67.39a1.49,1.49,0,0,1,.65,1.52h-1c0-.61-.26-.89-.77-.91a.78.78,0,0,0-.71.62c0,.8.7,1,1.18,1.12a1.77,1.77,0,0,1,1.14,2.62,1.94,1.94,0,0,1-1.21.94A2.16,2.16,0,0,1,55.13,73a1.69,1.69,0,0,1-.55-1.58h1.08a1.17,1.17,0,0,0,.17.68.73.73,0,0,0,.55.33.78.78,0,0,0,.83-.86c-.06-.92-1.61-1-2.14-1.58a1.82,1.82,0,0,1,.08-2.36,2,2,0,0,1,2.43-.2Z"/><path class="cls-3" d="M88.22,71.34c0,.23,0,1,.06,1.55a1.17,1.17,0,0,0,.17.36H87.31c-.15,0-.17-.27-.18-.5,0-.61,0-2-.56-2h-.73v2.53H84.7V67.33h2a1.36,1.36,0,0,1,1.55,1.39c0,.53,0,1.15-.62,1.41a2,2,0,0,1,.55,1.21Z"/><path class="cls-4" d="M86.66,68.18h-.85v1.59h.62c1,0,1-1.59.23-1.59Z"/><polygon class="cls-3" points="61.03 73.26 59.89 73.26 59.89 68.28 58.59 68.28 58.59 67.28 62.35 67.28 62.35 68.28 61.03 68.28 61.03 73.26 61.03 73.26"/><polygon class="cls-3" points="68.36 73.26 68.36 68.28 67.06 68.28 67.06 67.28 70.84 67.28 70.84 68.28 69.5 68.28 69.5 73.26 68.36 73.26 68.36 73.26"/><polygon class="cls-3" points="71.35 67.28 75.13 67.28 75.13 68.29 73.79 68.29 73.79 73.27 72.65 73.27 72.65 68.29 71.35 68.29 71.35 67.28 71.35 67.28"/><polygon class="cls-3" points="91.1 68.29 91.1 73.28 89.96 73.28 89.96 68.29 88.65 68.29 88.65 67.28 92.42 67.28 92.42 68.29 91.1 68.29 91.1 68.29"/><path class="cls-3" d="M65.33,71.55V67.29h1.11v4.15a1.81,1.81,0,1,1-3.61.08V67.29h1.11v4.28a.7.7,0,1,0,1.4,0Z"/><path class="cls-2" d="M67.89,76a11.76,11.76,0,0,1,1.35-1c.49-.32-.06.41-.09.71-.09.82-.71.91-1.4.76-.12,0-.07-.26.14-.44"/><polygon class="cls-5" points="96.44 95.13 125.43 95.12 126.72 79.11 96.44 79.12 96.44 95.13 96.44 95.13"/><path class="cls-5" d="M72,145l-29.91-.06c6.16,5.53,20.43,15.89,29.82,20.09L72,145Z"/><path class="cls-3" d="M50.35,81.86v2.56c-1.18-.88-6.68-1.52-10.07-.2a24.1,24.1,0,0,0-4.71,2.43l-3.42,2.7a1.75,1.75,0,0,0-.36,1.32A1.66,1.66,0,0,1,30,92.21,3.71,3.71,0,0,0,28,92.08c-.71.15-1.35-.74-1.41-1.26s.41-1.47.44-1.74a2,2,0,0,1,.8-1.89,1.48,1.48,0,0,1,1.44,0,.55.55,0,0,0,.41.06,4.48,4.48,0,0,0,.67-.52c0-.61,0-1.56,0-2.09A12.88,12.88,0,0,1,30.93,82a15.21,15.21,0,0,1,1.31-2.83c.79-1.29,2.35-2.53,3.52-2.43a9.77,9.77,0,0,0-.94,1.55,18.34,18.34,0,0,0-1.47,4.29,7.84,7.84,0,0,0-.23,2.32,23,23,0,0,1,2.46-1.56A16.33,16.33,0,0,1,37.09,79c.76-1.44,2.81-3,4.14-2.88a11.94,11.94,0,0,0-2.49,4.47,3.46,3.46,0,0,0-.23,1.35,6.9,6.9,0,0,1,2-.59,16.35,16.35,0,0,1,1.17-2.43C42.91,77.1,44.78,76,45.84,76a12.59,12.59,0,0,0-2.07,3.64,4.08,4.08,0,0,0-.23,1.14,15.19,15.19,0,0,1,2.08-.11,26.23,26.23,0,0,1,2.22-2.2,11.17,11.17,0,0,1,2.5-1.46v1.79a9.78,9.78,0,0,0-2,2.2,11.06,11.06,0,0,1,2,.81Z"/><polygon class="cls-4" points="82.34 70.91 81.8 68.52 81.28 70.91 82.34 70.91 82.34 70.91"/><polygon class="cls-3" points="127.75 63.69 96.54 63.7 96.54 77.51 126.79 77.55 127.71 64.23 127.75 63.69 127.75 63.69"/><path class="cls-3" d="M129.19,44.61l.28-4.5A181.82,181.82,0,0,0,74.8,32.25V44.53l54.39.08Z"/><path class="cls-3" d="M53.24,110.21a25.92,25.92,0,0,1-3-12.43l-28.8,0,.9,12.4Z"/><path class="cls-3" d="M71.87,142.9V130l-43.1,0a69.09,69.09,0,0,0,10.58,12.65l.36.34,32.15,0Z"/></svg>