<svg id="Layer_1" data-name="Layer 1" xmlns="http://www.w3.org/2000/svg" xmlns:xlink="http://www.w3.org/1999/xlink" viewBox="0 0 60.81 146.89"><defs><style>.cls-1{fill:none;}.cls-2{clip-path:url(#clip-path);}.cls-3{fill:#e72529;}.cls-4{clip-path:url(#clip-path-2);}.cls-5{fill:#fff;}</style><clipPath id="clip-path" transform="translate(-74.1 -20.29)"><rect class="cls-1" x="74.1" y="131.19" width="60.81" height="36"/></clipPath><clipPath id="clip-path-2" transform="translate(-74.1 -20.29)"><rect class="cls-1" x="74.1" y="20.29" width="60.8" height="87.29"/></clipPath></defs><title>tesla</title><g class="cls-2"><path class="cls-3" d="M89.43,135.9h5.89a2.17,2.17,0,0,0,1.6-1.58h-9.1a2.18,2.18,0,0,0,1.6,1.58m0,3.21h5.89a2.17,2.17,0,0,0,1.6-1.58h-9.1a2.19,2.19,0,0,0,1.6,1.58M74.1,131.2a2.2,2.2,0,0,0,1.6,1.57h2.48l.13.05v6.26h1.55v-6.26l.14-.05h2.48a2.23,2.23,0,0,0,1.59-1.57v0h-10Zm15.33,1.57h5.89a2.17,2.17,0,0,0,1.6-1.58h-9.1a2.19,2.19,0,0,0,1.6,1.58M126,139.1h1.53v-3.18h5.58v3.18h1.53v-4.77H126Zm-17.73-6.35A2.39,2.39,0,0,0,110,131.2h-8.65v4.67h7.08v1.64h-5.55a3.09,3.09,0,0,0-2,1.6h9.05v-4.79h-7.08v-1.56Zm19.09,0h5.89a2.17,2.17,0,0,0,1.6-1.58h-9.1a2.18,2.18,0,0,0,1.6,1.58m-11.53-1.58h-1.54v7.91h7.07a2.19,2.19,0,0,0,1.35-1.56h-6.88Z" transform="translate(-74.1 -20.29)"/><rect class="cls-3" y="142.84" width="60.81" height="4.05"/></g><rect class="cls-3" width="60.8" height="87.29"/><g class="cls-4"><path class="cls-5" d="M104.54,75.38l6.25-35.16c6,0,7.84.65,8.11,3.32,0,0,4-1.49,6-4.52a44.17,44.17,0,0,0-15.77-3.81l-4.61,5.62h0l-4.61-5.62A44.17,44.17,0,0,0,84.15,39c2,3,6,4.52,6,4.52.27-2.67,2.15-3.32,8.07-3.33Z" transform="translate(-74.1 -20.29)"/><path class="cls-5" d="M104.54,33.59a51.52,51.52,0,0,1,21.09,4.23,17,17,0,0,0,1.25-2.58,59.51,59.51,0,0,0-44.69,0,21.5,21.5,0,0,0,1.25,2.58,51.52,51.52,0,0,1,21.09-4.23Z" transform="translate(-74.1 -20.29)"/><path class="cls-5" d="M79.05,88a1.78,1.78,0,0,0,1.29,1.27h2l.1,0v5.06H83.7V89.33l.11,0h2A1.8,1.8,0,0,0,87.1,88h-8Z" transform="translate(-74.1 -20.29)"/><path class="cls-5" d="M117.26,94.4a1.77,1.77,0,0,0,1.09-1.26h-5.55V88h-1.24V94.4Z" transform="translate(-74.1 -20.29)"/><path class="cls-5" d="M102.29,89.27h4.4A1.93,1.93,0,0,0,108,88h-7v3.77h5.72v1.32h-4.48a2.5,2.5,0,0,0-1.6,1.29H108V90.53h-5.71Z" transform="translate(-74.1 -20.29)"/><polygon class="cls-5" points="46.91 70.24 46.91 74.11 48.15 74.11 48.15 71.54 52.66 71.54 52.66 74.11 53.89 74.11 53.89 70.25 46.91 70.24"/><path class="cls-5" d="M91.44,89.28H96.2A1.76,1.76,0,0,0,97.49,88H90.14a1.77,1.77,0,0,0,1.29,1.28" transform="translate(-74.1 -20.29)"/><path class="cls-5" d="M91.44,91.81H96.2a1.76,1.76,0,0,0,1.29-1.28H90.14a1.77,1.77,0,0,0,1.29,1.28" transform="translate(-74.1 -20.29)"/><path class="cls-5" d="M91.44,94.4H96.2a1.76,1.76,0,0,0,1.29-1.28H90.14a1.76,1.76,0,0,0,1.29,1.28" transform="translate(-74.1 -20.29)"/><path class="cls-5" d="M122.11,89.29h4.76A1.75,1.75,0,0,0,128.16,88h-7.35a1.77,1.77,0,0,0,1.29,1.28" transform="translate(-74.1 -20.29)"/></g></svg>